<svg width="340" height="258" viewBox="0 0 340 258" fill="none" xmlns="http://www.w3.org/2000/svg">
<rect x="3.23012" y="36.2301" width="156.54" height="48.5398" rx="5.29265" fill="#EFEFEF" stroke="url(#paint0_linear_2861_169)" stroke-width="0.46023"/>
<path d="M49.0095 54.1105C47.8387 54.1105 46.9551 53.7938 46.3586 53.1605C45.7695 52.5273 45.475 51.6694 45.475 50.5869C45.475 49.8064 45.6038 49.1326 45.8616 48.5656C46.1193 47.9912 46.5096 47.5494 47.0324 47.2401C47.5626 46.9309 48.2327 46.7762 49.0427 46.7762C49.4624 46.7762 49.8416 46.8057 50.1804 46.8646C50.5264 46.9161 50.8504 46.9935 51.1524 47.0965V48.1348C50.5485 47.9139 49.8784 47.8035 49.1421 47.8035C48.2363 47.8035 47.5994 48.0428 47.2312 48.5214C46.8704 49.0001 46.69 49.6886 46.69 50.5869C46.69 51.4043 46.8814 52.0265 47.2643 52.4536C47.6472 52.8807 48.24 53.0943 49.0427 53.0943C49.6759 53.0943 50.1877 53.0206 50.578 52.8734V50.8852H48.7997V50.1009H51.6052V53.525C51.377 53.6723 51.0493 53.8085 50.6222 53.9337C50.2024 54.0515 49.6649 54.1105 49.0095 54.1105ZM52.7328 54V46.8867H55.9029C56.4478 46.8867 56.897 46.9898 57.2504 47.196C57.6039 47.4021 57.8653 47.6856 58.0347 48.0465C58.204 48.3999 58.2887 48.8049 58.2887 49.2615C58.2887 49.9684 58.0678 50.5354 57.626 50.9625C57.1915 51.3896 56.6024 51.6031 55.8587 51.6031H53.9368V54H52.7328ZM53.9368 50.6532H55.6378C56.1164 50.6532 56.4772 50.528 56.7202 50.2777C56.9632 50.0273 57.0847 49.6886 57.0847 49.2615C57.0847 48.8049 56.9669 48.4515 56.7313 48.2011C56.503 47.9507 56.1569 47.8256 55.693 47.8256H53.9368V50.6532ZM61.0534 54V47.8256H58.7781V46.8867H64.5217V47.8256H62.2574V54H61.0534Z" fill="#404040"/>
<path d="M45.504 67V61.848H49.008V62.528H46.376V64.088H48.712V64.76H46.376V67H45.504ZM51.1559 67.08C50.4732 67.08 49.9719 66.9093 49.6519 66.568C49.3372 66.2267 49.1799 65.7387 49.1799 65.104C49.1799 64.4693 49.3399 63.9813 49.6599 63.64C49.9799 63.2987 50.4786 63.128 51.1559 63.128C51.8386 63.128 52.3399 63.2987 52.6599 63.64C52.9799 63.9813 53.1399 64.4693 53.1399 65.104C53.1399 65.7387 52.9799 66.2267 52.6599 66.568C52.3452 66.9093 51.8439 67.08 51.1559 67.08ZM51.1559 66.344C51.5559 66.344 51.8386 66.248 52.0039 66.056C52.1746 65.8587 52.2599 65.5413 52.2599 65.104C52.2599 64.6667 52.1746 64.352 52.0039 64.16C51.8386 63.968 51.5559 63.872 51.1559 63.872C50.7612 63.872 50.4786 63.968 50.3079 64.16C50.1426 64.352 50.0599 64.6667 50.0599 65.104C50.0599 65.5413 50.1426 65.8587 50.3079 66.056C50.4786 66.248 50.7612 66.344 51.1559 66.344ZM53.9492 67V63.208H54.7492L54.7972 63.648C54.9786 63.5307 55.1946 63.424 55.4452 63.328C55.6959 63.232 55.9439 63.1653 56.1892 63.128V63.792C56.0399 63.8187 55.8772 63.8587 55.7012 63.912C55.5306 63.96 55.3679 64.016 55.2132 64.08C55.0586 64.1387 54.9279 64.2 54.8212 64.264V67H53.9492ZM60.1578 67.08C59.8165 67.08 59.5151 67.0213 59.2538 66.904C58.9925 66.7867 58.7898 66.592 58.6458 66.32C58.5018 66.048 58.4298 65.6827 58.4298 65.224C58.4298 64.7707 58.5071 64.3893 58.6618 64.08C58.8165 63.7653 59.0298 63.528 59.3018 63.368C59.5791 63.208 59.8911 63.128 60.2378 63.128C60.4671 63.128 60.6698 63.1547 60.8458 63.208C61.0271 63.2613 61.2005 63.344 61.3658 63.456V61.608H62.2378V67H61.4938L61.4378 66.624C61.2671 66.7787 61.0805 66.8933 60.8778 66.968C60.6751 67.0427 60.4351 67.08 60.1578 67.08ZM60.3898 66.424C60.7791 66.424 61.1045 66.2907 61.3658 66.024V64.128C61.1151 63.904 60.8005 63.792 60.4218 63.792C60.0538 63.792 59.7765 63.9147 59.5898 64.16C59.4031 64.4053 59.3098 64.7627 59.3098 65.232C59.3098 65.6853 59.3951 65.9973 59.5658 66.168C59.7418 66.3387 60.0165 66.424 60.3898 66.424ZM65.0488 67.08C64.3875 67.08 63.8755 66.9173 63.5128 66.592C63.1502 66.2667 62.9688 65.768 62.9688 65.096C62.9688 64.488 63.1235 64.008 63.4328 63.656C63.7422 63.304 64.2115 63.128 64.8408 63.128C65.4168 63.128 65.8488 63.28 66.1368 63.584C66.4302 63.8827 66.5768 64.2693 66.5768 64.744V65.448H63.8008C63.8435 65.816 63.9768 66.0693 64.2008 66.208C64.4248 66.3467 64.7662 66.416 65.2248 66.416C65.4168 66.416 65.6142 66.3973 65.8168 66.36C66.0195 66.3227 66.1955 66.2747 66.3448 66.216V66.856C66.1742 66.9307 65.9768 66.9867 65.7528 67.024C65.5342 67.0613 65.2995 67.08 65.0488 67.08ZM63.8008 64.88H65.8088V64.616C65.8088 64.3547 65.7368 64.152 65.5928 64.008C65.4488 63.8587 65.2062 63.784 64.8648 63.784C64.4595 63.784 64.1795 63.872 64.0248 64.048C63.8755 64.224 63.8008 64.5013 63.8008 64.88ZM69.3066 67.08C68.6453 67.08 68.1333 66.9173 67.7706 66.592C67.4079 66.2667 67.2266 65.768 67.2266 65.096C67.2266 64.488 67.3813 64.008 67.6906 63.656C67.9999 63.304 68.4693 63.128 69.0986 63.128C69.6746 63.128 70.1066 63.28 70.3946 63.584C70.6879 63.8827 70.8346 64.2693 70.8346 64.744V65.448H68.0586C68.1013 65.816 68.2346 66.0693 68.4586 66.208C68.6826 66.3467 69.0239 66.416 69.4826 66.416C69.6746 66.416 69.8719 66.3973 70.0746 66.36C70.2773 66.3227 70.4533 66.2747 70.6026 66.216V66.856C70.4319 66.9307 70.2346 66.9867 70.0106 67.024C69.7919 67.0613 69.5573 67.08 69.3066 67.08ZM68.0586 64.88H70.0666V64.616C70.0666 64.3547 69.9946 64.152 69.8506 64.008C69.7066 63.8587 69.4639 63.784 69.1226 63.784C68.7173 63.784 68.4373 63.872 68.2826 64.048C68.1333 64.224 68.0586 64.5013 68.0586 64.88ZM71.6444 68.728V63.208H72.3964L72.4444 63.584C72.615 63.4293 72.8017 63.3147 73.0044 63.24C73.207 63.1653 73.447 63.128 73.7244 63.128C74.2684 63.128 74.6924 63.2773 74.9964 63.576C75.3004 63.8693 75.4524 64.3573 75.4524 65.04C75.4524 65.7227 75.295 66.2347 74.9804 66.576C74.6657 66.912 74.2364 67.08 73.6924 67.08C73.2337 67.08 72.8417 66.9733 72.5164 66.76V68.728H71.6444ZM73.4684 66.424C74.2044 66.424 74.5724 65.96 74.5724 65.032C74.5724 64.584 74.4897 64.2667 74.3244 64.08C74.159 63.888 73.8817 63.792 73.4924 63.792C73.103 63.792 72.7777 63.9253 72.5164 64.192V66.088C72.639 66.1893 72.775 66.272 72.9244 66.336C73.079 66.3947 73.2604 66.424 73.4684 66.424ZM78.0662 67V63.208H78.8662L78.9142 63.648C79.0955 63.5307 79.3115 63.424 79.5622 63.328C79.8128 63.232 80.0608 63.1653 80.3062 63.128V63.792C80.1568 63.8187 79.9942 63.8587 79.8182 63.912C79.6475 63.96 79.4848 64.016 79.3302 64.08C79.1755 64.1387 79.0448 64.2 78.9382 64.264V67H78.0662ZM82.6658 67.08C82.0045 67.08 81.4925 66.9173 81.1298 66.592C80.7672 66.2667 80.5858 65.768 80.5858 65.096C80.5858 64.488 80.7405 64.008 81.0498 63.656C81.3592 63.304 81.8285 63.128 82.4578 63.128C83.0338 63.128 83.4658 63.28 83.7538 63.584C84.0472 63.8827 84.1938 64.2693 84.1938 64.744V65.448H81.4178C81.4605 65.816 81.5938 66.0693 81.8178 66.208C82.0418 66.3467 82.3832 66.416 82.8418 66.416C83.0338 66.416 83.2312 66.3973 83.4338 66.36C83.6365 66.3227 83.8125 66.2747 83.9618 66.216V66.856C83.7912 66.9307 83.5938 66.9867 83.3698 67.024C83.1512 67.0613 82.9165 67.08 82.6658 67.08ZM81.4178 64.88H83.4258V64.616C83.4258 64.3547 83.3538 64.152 83.2098 64.008C83.0658 63.8587 82.8232 63.784 82.4818 63.784C82.0765 63.784 81.7965 63.872 81.6418 64.048C81.4925 64.224 81.4178 64.5013 81.4178 64.88ZM86.1876 67.08C85.9476 67.08 85.7236 67.0373 85.5156 66.952C85.3129 66.8667 85.1503 66.7387 85.0276 66.568C84.9049 66.392 84.8436 66.176 84.8436 65.92C84.8436 65.5573 84.9663 65.2667 85.2116 65.048C85.4623 64.824 85.8463 64.712 86.3636 64.712H87.5796V64.544C87.5796 64.3627 87.5503 64.2187 87.4916 64.112C87.4383 64.0053 87.3369 63.928 87.1876 63.88C87.0436 63.832 86.8303 63.808 86.5476 63.808C86.0996 63.808 85.6809 63.8747 85.2916 64.008V63.36C85.4623 63.2907 85.6703 63.2347 85.9156 63.192C86.1609 63.1493 86.4249 63.128 86.7076 63.128C87.2623 63.128 87.6836 63.24 87.9716 63.464C88.2649 63.688 88.4116 64.0533 88.4116 64.56V67H87.6676L87.6116 66.616C87.4569 66.7653 87.2649 66.88 87.0356 66.96C86.8116 67.04 86.5289 67.08 86.1876 67.08ZM86.4196 66.456C86.6809 66.456 86.9076 66.4133 87.0996 66.328C87.2969 66.2373 87.4569 66.1173 87.5796 65.968V65.304H86.3796C86.1236 65.304 85.9369 65.3547 85.8196 65.456C85.7076 65.552 85.6516 65.7013 85.6516 65.904C85.6516 66.1013 85.7183 66.2427 85.8516 66.328C85.9849 66.4133 86.1743 66.456 86.4196 66.456ZM90.6035 67.08C90.3422 67.08 90.0915 67.0613 89.8515 67.024C89.6168 66.9867 89.4222 66.9413 89.2675 66.888V66.152C89.4488 66.2213 89.6488 66.2747 89.8675 66.312C90.0862 66.3493 90.2942 66.368 90.4915 66.368C90.7902 66.368 91.0035 66.3413 91.1315 66.288C91.2595 66.2347 91.3235 66.1307 91.3235 65.976C91.3235 65.864 91.2835 65.776 91.2035 65.712C91.1288 65.648 91.0142 65.5893 90.8595 65.536C90.7102 65.4827 90.5182 65.4187 90.2835 65.344C90.0595 65.2693 89.8648 65.1893 89.6995 65.104C89.5342 65.0133 89.4062 64.8987 89.3155 64.76C89.2248 64.6213 89.1795 64.44 89.1795 64.216C89.1795 63.8693 89.3048 63.6027 89.5555 63.416C89.8062 63.224 90.2088 63.128 90.7635 63.128C90.9822 63.128 91.1902 63.144 91.3875 63.176C91.5848 63.208 91.7528 63.248 91.8915 63.296V64.024C91.7422 63.9653 91.5768 63.92 91.3955 63.888C91.2195 63.856 91.0542 63.84 90.8995 63.84C90.6222 63.84 90.4115 63.864 90.2675 63.912C90.1288 63.96 90.0595 64.056 90.0595 64.2C90.0595 64.3493 90.1315 64.456 90.2755 64.52C90.4248 64.5787 90.6622 64.6613 90.9875 64.768C91.2862 64.8587 91.5235 64.9547 91.6995 65.056C91.8755 65.1573 92.0008 65.28 92.0755 65.424C92.1555 65.5627 92.1955 65.744 92.1955 65.968C92.1955 66.3413 92.0595 66.6213 91.7875 66.808C91.5155 66.9893 91.1208 67.08 90.6035 67.08ZM94.7101 67.08C94.0275 67.08 93.5261 66.9093 93.2061 66.568C92.8915 66.2267 92.7341 65.7387 92.7341 65.104C92.7341 64.4693 92.8941 63.9813 93.2141 63.64C93.5341 63.2987 94.0328 63.128 94.7101 63.128C95.3928 63.128 95.8941 63.2987 96.2141 63.64C96.5341 63.9813 96.6941 64.4693 96.6941 65.104C96.6941 65.7387 96.5341 66.2267 96.2141 66.568C95.8995 66.9093 95.3981 67.08 94.7101 67.08ZM94.7101 66.344C95.1101 66.344 95.3928 66.248 95.5581 66.056C95.7288 65.8587 95.8141 65.5413 95.8141 65.104C95.8141 64.6667 95.7288 64.352 95.5581 64.16C95.3928 63.968 95.1101 63.872 94.7101 63.872C94.3155 63.872 94.0328 63.968 93.8621 64.16C93.6968 64.352 93.6141 64.6667 93.6141 65.104C93.6141 65.5413 93.6968 65.8587 93.8621 66.056C94.0328 66.248 94.3155 66.344 94.7101 66.344ZM97.5035 67V63.208H98.3035L98.3435 63.608C98.5142 63.4747 98.7168 63.3627 98.9515 63.272C99.1915 63.176 99.4555 63.128 99.7435 63.128C100.234 63.128 100.591 63.2427 100.815 63.472C101.039 63.7013 101.151 64.0587 101.151 64.544V67H100.287V64.584C100.287 64.2907 100.226 64.0853 100.103 63.968C99.9862 63.8507 99.7622 63.792 99.4315 63.792C99.2342 63.792 99.0395 63.832 98.8475 63.912C98.6608 63.992 98.5035 64.096 98.3755 64.224V67H97.5035ZM102.409 62.416V61.696H103.361V62.416H102.409ZM102.481 67V63.872H101.905L101.985 63.208H103.353V67H102.481ZM104.332 67V63.208H105.132L105.172 63.608C105.342 63.4747 105.545 63.3627 105.78 63.272C106.02 63.176 106.284 63.128 106.572 63.128C107.062 63.128 107.42 63.2427 107.644 63.472C107.868 63.7013 107.98 64.0587 107.98 64.544V67H107.116V64.584C107.116 64.2907 107.054 64.0853 106.932 63.968C106.814 63.8507 106.59 63.792 106.26 63.792C106.062 63.792 105.868 63.832 105.676 63.912C105.489 63.992 105.332 64.096 105.204 64.224V67H104.332ZM110.453 68.408C110.171 68.408 109.888 68.3893 109.605 68.352C109.323 68.32 109.083 68.2693 108.885 68.2V67.528C109.099 67.5973 109.344 67.6507 109.621 67.688C109.899 67.7253 110.163 67.744 110.413 67.744C110.797 67.744 111.077 67.7227 111.253 67.68C111.429 67.6373 111.517 67.5413 111.517 67.392C111.517 67.28 111.475 67.2 111.389 67.152C111.304 67.1093 111.141 67.088 110.901 67.088H109.877C109.189 67.088 108.845 66.8453 108.845 66.36C108.845 66.2053 108.891 66.0613 108.981 65.928C109.072 65.7947 109.216 65.6933 109.413 65.624C109.195 65.5173 109.032 65.3707 108.925 65.184C108.824 64.9973 108.773 64.7733 108.773 64.512C108.773 64.0267 108.917 63.6747 109.205 63.456C109.499 63.2373 109.936 63.128 110.517 63.128C110.64 63.128 110.768 63.1387 110.901 63.16C111.035 63.176 111.139 63.192 111.213 63.208H112.605L112.581 63.776H111.941C112.043 63.8613 112.117 63.968 112.165 64.096C112.213 64.224 112.237 64.3627 112.237 64.512C112.237 64.9173 112.115 65.2373 111.869 65.472C111.624 65.7013 111.253 65.816 110.757 65.816C110.672 65.816 110.592 65.8133 110.517 65.808C110.448 65.7973 110.371 65.7867 110.285 65.776C110.125 65.792 109.981 65.8347 109.853 65.904C109.725 65.9733 109.661 66.0667 109.661 66.184C109.661 66.264 109.693 66.3227 109.757 66.36C109.821 66.392 109.928 66.408 110.077 66.408H111.141C111.52 66.408 111.811 66.4907 112.013 66.656C112.221 66.816 112.325 67.0507 112.325 67.36C112.325 67.7333 112.163 68 111.837 68.16C111.517 68.3253 111.056 68.408 110.453 68.408ZM110.517 65.264C110.864 65.264 111.104 65.2053 111.237 65.088C111.376 64.9707 111.445 64.7707 111.445 64.488C111.445 64.2053 111.376 64 111.237 63.872C111.104 63.744 110.864 63.68 110.517 63.68C110.192 63.68 109.955 63.7413 109.805 63.864C109.656 63.9867 109.581 64.1947 109.581 64.488C109.581 64.76 109.651 64.9573 109.789 65.08C109.933 65.2027 110.176 65.264 110.517 65.264ZM116.793 67.08C116.238 67.08 115.793 66.96 115.457 66.72C115.121 66.4747 114.953 66.1493 114.953 65.744C114.953 65.3813 115.059 65.0747 115.273 64.824C115.491 64.5733 115.787 64.3467 116.161 64.144C115.953 63.9573 115.785 63.7733 115.657 63.592C115.534 63.4107 115.473 63.1973 115.473 62.952C115.473 62.616 115.593 62.336 115.833 62.112C116.073 61.8827 116.403 61.768 116.825 61.768C117.241 61.768 117.566 61.8773 117.801 62.096C118.041 62.3093 118.161 62.5947 118.161 62.952C118.161 63.2293 118.094 63.4667 117.961 63.664C117.827 63.8613 117.614 64.056 117.321 64.248L118.505 65.456C118.59 65.2747 118.633 65.0613 118.633 64.816V64.68H119.297V64.832C119.297 65.0347 119.27 65.2347 119.217 65.432C119.163 65.624 119.091 65.792 119.001 65.936L119.649 66.592L119.121 67.072L118.545 66.496C118.347 66.6987 118.099 66.848 117.801 66.944C117.502 67.0347 117.166 67.08 116.793 67.08ZM116.777 63.872C117.006 63.7227 117.177 63.5893 117.289 63.472C117.401 63.3547 117.457 63.1947 117.457 62.992C117.457 62.8053 117.406 62.6587 117.305 62.552C117.209 62.44 117.049 62.384 116.825 62.384C116.595 62.384 116.43 62.4427 116.329 62.56C116.227 62.6773 116.177 62.8213 116.177 62.992C116.177 63.1573 116.225 63.3067 116.321 63.44C116.422 63.568 116.574 63.712 116.777 63.872ZM116.793 66.472C117.326 66.472 117.734 66.32 118.017 66.016L116.681 64.664C116.382 64.7867 116.158 64.9333 116.009 65.104C115.865 65.2693 115.793 65.4773 115.793 65.728C115.793 65.9733 115.886 66.16 116.073 66.288C116.259 66.4107 116.499 66.472 116.793 66.472ZM45.504 78.728V73.208H46.256L46.304 73.584C46.4747 73.4293 46.6613 73.3147 46.864 73.24C47.0667 73.1653 47.3067 73.128 47.584 73.128C48.128 73.128 48.552 73.2773 48.856 73.576C49.16 73.8693 49.312 74.3573 49.312 75.04C49.312 75.7227 49.1547 76.2347 48.84 76.576C48.5253 76.912 48.096 77.08 47.552 77.08C47.0933 77.08 46.7013 76.9733 46.376 76.76V78.728H45.504ZM47.328 76.424C48.064 76.424 48.432 75.96 48.432 75.032C48.432 74.584 48.3493 74.2667 48.184 74.08C48.0187 73.888 47.7413 73.792 47.352 73.792C46.9627 73.792 46.6373 73.9253 46.376 74.192V76.088C46.4987 76.1893 46.6347 76.272 46.784 76.336C46.9387 76.3947 47.12 76.424 47.328 76.424ZM51.0652 77.08C50.7558 77.08 50.5212 77.0053 50.3612 76.856C50.2012 76.7013 50.1212 76.448 50.1212 76.096V71.608H50.9932V76.016C50.9932 76.1653 51.0198 76.2667 51.0732 76.32C51.1265 76.3733 51.2065 76.4 51.3132 76.4C51.4412 76.4 51.5638 76.384 51.6812 76.352V76.984C51.5798 77.0213 51.4812 77.0453 51.3852 77.056C51.2945 77.072 51.1878 77.08 51.0652 77.08ZM53.5082 77.08C53.2682 77.08 53.0442 77.0373 52.8362 76.952C52.6336 76.8667 52.4709 76.7387 52.3482 76.568C52.2256 76.392 52.1642 76.176 52.1642 75.92C52.1642 75.5573 52.2869 75.2667 52.5322 75.048C52.7829 74.824 53.1669 74.712 53.6842 74.712H54.9002V74.544C54.9002 74.3627 54.8709 74.2187 54.8122 74.112C54.7589 74.0053 54.6576 73.928 54.5082 73.88C54.3642 73.832 54.1509 73.808 53.8682 73.808C53.4202 73.808 53.0016 73.8747 52.6122 74.008V73.36C52.7829 73.2907 52.9909 73.2347 53.2362 73.192C53.4816 73.1493 53.7456 73.128 54.0282 73.128C54.5829 73.128 55.0042 73.24 55.2922 73.464C55.5856 73.688 55.7322 74.0533 55.7322 74.56V77H54.9882L54.9322 76.616C54.7776 76.7653 54.5856 76.88 54.3562 76.96C54.1322 77.04 53.8496 77.08 53.5082 77.08ZM53.7402 76.456C54.0016 76.456 54.2282 76.4133 54.4202 76.328C54.6176 76.2373 54.7776 76.1173 54.9002 75.968V75.304H53.7002C53.4442 75.304 53.2576 75.3547 53.1402 75.456C53.0282 75.552 52.9722 75.7013 52.9722 75.904C52.9722 76.1013 53.0389 76.2427 53.1722 76.328C53.3056 76.4133 53.4949 76.456 53.7402 76.456ZM56.6601 77V73.208H57.4601L57.5001 73.608C57.6708 73.4747 57.8735 73.3627 58.1081 73.272C58.3481 73.176 58.6121 73.128 58.9001 73.128C59.3908 73.128 59.7481 73.2427 59.9721 73.472C60.1961 73.7013 60.3081 74.0587 60.3081 74.544V77H59.4441V74.584C59.4441 74.2907 59.3828 74.0853 59.2601 73.968C59.1428 73.8507 58.9188 73.792 58.5881 73.792C58.3908 73.792 58.1961 73.832 58.0041 73.912C57.8175 73.992 57.6601 74.096 57.5321 74.224V77H56.6601ZM61.246 77V73.208H62.046L62.086 73.608C62.2567 73.4747 62.4594 73.3627 62.694 73.272C62.934 73.176 63.198 73.128 63.486 73.128C63.9767 73.128 64.334 73.2427 64.558 73.472C64.782 73.7013 64.894 74.0587 64.894 74.544V77H64.03V74.584C64.03 74.2907 63.9687 74.0853 63.846 73.968C63.7287 73.8507 63.5047 73.792 63.174 73.792C62.9767 73.792 62.782 73.832 62.59 73.912C62.4034 73.992 62.246 74.096 62.118 74.224V77H61.246ZM66.1519 72.416V71.696H67.1039V72.416H66.1519ZM66.2239 77V73.872H65.6479L65.7279 73.208H67.0959V77H66.2239ZM68.0741 77V73.208H68.8741L68.9141 73.608C69.0848 73.4747 69.2874 73.3627 69.5221 73.272C69.7621 73.176 70.0261 73.128 70.3141 73.128C70.8048 73.128 71.1621 73.2427 71.3861 73.472C71.6101 73.7013 71.7221 74.0587 71.7221 74.544V77H70.8581V74.584C70.8581 74.2907 70.7968 74.0853 70.6741 73.968C70.5568 73.8507 70.3328 73.792 70.0021 73.792C69.8048 73.792 69.6101 73.832 69.4181 73.912C69.2314 73.992 69.0741 74.096 68.9461 74.224V77H68.0741ZM74.196 78.408C73.9133 78.408 73.6307 78.3893 73.348 78.352C73.0653 78.32 72.8253 78.2693 72.628 78.2V77.528C72.8413 77.5973 73.0867 77.6507 73.364 77.688C73.6413 77.7253 73.9053 77.744 74.156 77.744C74.54 77.744 74.82 77.7227 74.996 77.68C75.172 77.6373 75.26 77.5413 75.26 77.392C75.26 77.28 75.2173 77.2 75.132 77.152C75.0467 77.1093 74.884 77.088 74.644 77.088H73.62C72.932 77.088 72.588 76.8453 72.588 76.36C72.588 76.2053 72.6333 76.0613 72.724 75.928C72.8147 75.7947 72.9587 75.6933 73.156 75.624C72.9373 75.5173 72.7747 75.3707 72.668 75.184C72.5667 74.9973 72.516 74.7733 72.516 74.512C72.516 74.0267 72.66 73.6747 72.948 73.456C73.2413 73.2373 73.6787 73.128 74.26 73.128C74.3827 73.128 74.5107 73.1387 74.644 73.16C74.7773 73.176 74.8813 73.192 74.956 73.208H76.348L76.324 73.776H75.684C75.7853 73.8613 75.86 73.968 75.908 74.096C75.956 74.224 75.98 74.3627 75.98 74.512C75.98 74.9173 75.8573 75.2373 75.612 75.472C75.3667 75.7013 74.996 75.816 74.5 75.816C74.4147 75.816 74.3347 75.8133 74.26 75.808C74.1907 75.7973 74.1133 75.7867 74.028 75.776C73.868 75.792 73.724 75.8347 73.596 75.904C73.468 75.9733 73.404 76.0667 73.404 76.184C73.404 76.264 73.436 76.3227 73.5 76.36C73.564 76.392 73.6707 76.408 73.82 76.408H74.884C75.2627 76.408 75.5533 76.4907 75.756 76.656C75.964 76.816 76.068 77.0507 76.068 77.36C76.068 77.7333 75.9053 78 75.58 78.16C75.26 78.3253 74.7987 78.408 74.196 78.408ZM74.26 75.264C74.6067 75.264 74.8467 75.2053 74.98 75.088C75.1187 74.9707 75.188 74.7707 75.188 74.488C75.188 74.2053 75.1187 74 74.98 73.872C74.8467 73.744 74.6067 73.68 74.26 73.68C73.9347 73.68 73.6973 73.7413 73.548 73.864C73.3987 73.9867 73.324 74.1947 73.324 74.488C73.324 74.76 73.3933 74.9573 73.532 75.08C73.676 75.2027 73.9187 75.264 74.26 75.264ZM76.8906 77V76.32H77.6266V77H76.8906Z" fill="#737373"/>
<rect x="11.2301" y="47.2301" width="27.6138" height="27.1535" rx="3.91196" fill="#30EDE6" fill-opacity="0.2" stroke="url(#paint1_linear_2861_169)" stroke-width="0.46023"/>
<path d="M30.4395 54.3638H19.6341C19.4192 54.3638 19.2131 54.4492 19.0611 54.6011C18.9091 54.7531 18.8237 54.9592 18.8237 55.1742V65.9796C18.8237 66.1945 18.9091 66.4006 19.0611 66.5526C19.2131 66.7046 19.4192 66.79 19.6341 66.79H30.4395C30.6545 66.79 30.8606 66.7046 31.0126 66.5526C31.1645 66.4006 31.2499 66.1945 31.2499 65.9796V55.1742C31.2499 54.9592 31.1645 54.7531 31.0126 54.6011C30.8606 54.4492 30.6545 54.3638 30.4395 54.3638ZM22.3355 62.4678C22.4958 62.4678 22.6524 62.5153 22.7857 62.6044C22.919 62.6934 23.0229 62.82 23.0842 62.9681C23.1455 63.1162 23.1616 63.2791 23.1303 63.4363C23.099 63.5935 23.0219 63.7379 22.9085 63.8513C22.7952 63.9646 22.6508 64.0418 22.4936 64.073C22.3364 64.1043 22.1734 64.0883 22.0254 64.0269C21.8773 63.9656 21.7507 63.8617 21.6617 63.7285C21.5726 63.5952 21.5251 63.4385 21.5251 63.2782C21.5251 63.0633 21.6105 62.8572 21.7624 62.7052C21.9144 62.5532 22.1205 62.4678 22.3355 62.4678ZM19.364 65.9796V55.1742C19.364 55.1025 19.3925 55.0338 19.4431 54.9832C19.4938 54.9325 19.5625 54.904 19.6341 54.904H22.0653V61.9546C21.7374 62.0215 21.446 62.2078 21.2476 62.4774C21.0492 62.747 20.958 63.0807 20.9916 63.4137C21.0253 63.7467 21.1814 64.0554 21.4297 64.2799C21.678 64.5043 22.0008 64.6286 22.3355 64.6286C22.6702 64.6286 22.993 64.5043 23.2413 64.2799C23.4896 64.0554 23.6457 63.7467 23.6793 63.4137C23.713 63.0807 23.6217 62.747 23.4234 62.4774C23.225 62.2078 22.9336 62.0215 22.6056 61.9546V59.0682L26.3875 62.8501V66.2497H19.6341C19.5625 66.2497 19.4938 66.2212 19.4431 66.1706C19.3925 66.1199 19.364 66.0512 19.364 65.9796ZM30.7097 65.9796C30.7097 66.0512 30.6812 66.1199 30.6305 66.1706C30.5799 66.2212 30.5112 66.2497 30.4395 66.2497H26.9278V62.7379C26.9278 62.7025 26.9208 62.6673 26.9073 62.6345C26.8937 62.6017 26.8738 62.5719 26.8488 62.5468L22.6056 58.3037V54.904H25.307V56.795C25.3069 56.8305 25.3139 56.8656 25.3275 56.8984C25.341 56.9312 25.3609 56.961 25.386 56.9861L26.6124 58.2132C26.428 58.4925 26.3538 58.8303 26.4043 59.1611C26.4548 59.4919 26.6263 59.7922 26.8855 60.0038C27.1448 60.2154 27.4734 60.3232 27.8077 60.3064C28.1419 60.2895 28.458 60.1491 28.6946 59.9125C28.9312 59.6758 29.0716 59.3598 29.0885 59.0255C29.1054 58.6913 28.9976 58.3627 28.786 58.1034C28.5744 57.8441 28.274 57.6727 27.9432 57.6222C27.6124 57.5717 27.2746 57.6459 26.9953 57.8303L25.8472 56.6822V54.904H30.4395C30.5112 54.904 30.5799 54.9325 30.6305 54.9832C30.6812 55.0338 30.7097 55.1025 30.7097 55.1742V65.9796ZM27.7382 58.1457C27.8985 58.1457 28.0551 58.1932 28.1884 58.2822C28.3217 58.3713 28.4256 58.4978 28.4869 58.6459C28.5482 58.794 28.5643 58.957 28.533 59.1142C28.5017 59.2714 28.4246 59.4158 28.3112 59.5291C28.1979 59.6424 28.0535 59.7196 27.8963 59.7509C27.7391 59.7822 27.5761 59.7661 27.428 59.7048C27.28 59.6434 27.1534 59.5396 27.0644 59.4063C26.9753 59.273 26.9278 59.1163 26.9278 58.9561C26.9278 58.7411 27.0132 58.535 27.1651 58.383C27.3171 58.231 27.5232 58.1457 27.7382 58.1457Z" fill="url(#paint2_linear_2861_169)"/>
<rect x="3.23012" y="105.23" width="156.54" height="48.5398" rx="5.29265" fill="#EFEFEF" stroke="url(#paint3_linear_2861_169)" stroke-width="0.46023"/>
<g opacity="0.75">
<path d="M49.0316 123.11C47.8608 123.11 46.9735 122.79 46.3696 122.149C45.7732 121.509 45.475 120.644 45.475 119.554C45.475 118.773 45.6001 118.103 45.8505 117.544C46.1082 116.977 46.4985 116.542 47.0213 116.24C47.5442 115.931 48.2106 115.776 49.0206 115.776C49.4329 115.776 49.8085 115.809 50.1472 115.876C50.4933 115.935 50.8136 116.016 51.1082 116.119V117.168C50.8136 117.05 50.497 116.962 50.1583 116.903C49.8269 116.837 49.4771 116.803 49.1089 116.803C48.2253 116.803 47.5994 117.039 47.2312 117.51C46.8704 117.982 46.69 118.663 46.69 119.554C46.69 120.386 46.8888 121.019 47.2864 121.454C47.6841 121.881 48.2989 122.094 49.131 122.094C49.4698 122.094 49.8085 122.068 50.1472 122.017C50.4933 121.958 50.8173 121.87 51.1192 121.752V122.812C50.8247 122.908 50.5044 122.982 50.1583 123.033C49.8195 123.085 49.444 123.11 49.0316 123.11ZM53.5508 123.11C53.1237 123.11 52.7997 123.007 52.5788 122.801C52.3579 122.588 52.2474 122.238 52.2474 121.752V115.555H53.4514V121.641C53.4514 121.848 53.4882 121.987 53.5618 122.061C53.6355 122.135 53.7459 122.172 53.8932 122.172C54.0699 122.172 54.2393 122.149 54.4013 122.105V122.978C54.2614 123.029 54.1252 123.063 53.9926 123.077C53.8674 123.099 53.7201 123.11 53.5508 123.11ZM56.9388 123.11C56.6075 123.11 56.2982 123.052 56.011 122.934C55.7312 122.816 55.5066 122.639 55.3372 122.404C55.1679 122.161 55.0832 121.862 55.0832 121.509C55.0832 121.008 55.2525 120.607 55.5913 120.305C55.9374 119.996 56.4675 119.841 57.1818 119.841H58.8607V119.609C58.8607 119.359 58.8202 119.16 58.7392 119.013C58.6656 118.865 58.5257 118.759 58.3195 118.692C58.1207 118.626 57.8261 118.593 57.4359 118.593C56.8173 118.593 56.2393 118.685 55.7017 118.869V117.974C55.9374 117.879 56.2245 117.801 56.5633 117.742C56.902 117.683 57.2665 117.654 57.6568 117.654C58.4226 117.654 59.0043 117.809 59.402 118.118C59.807 118.427 60.0095 118.932 60.0095 119.631V123H58.9822L58.9049 122.47C58.6914 122.676 58.4263 122.834 58.1096 122.945C57.8004 123.055 57.4101 123.11 56.9388 123.11ZM57.2591 122.249C57.62 122.249 57.9329 122.19 58.198 122.072C58.4705 121.947 58.6914 121.781 58.8607 121.575V120.658H57.2039C56.8505 120.658 56.5927 120.728 56.4307 120.868C56.2761 121.001 56.1988 121.207 56.1988 121.487C56.1988 121.759 56.2908 121.954 56.4749 122.072C56.659 122.19 56.9204 122.249 57.2591 122.249ZM63.1943 123.11C62.5684 123.11 62.0861 122.937 61.7473 122.591C61.416 122.245 61.2503 121.737 61.2503 121.067V117.764H62.4542V121.067C62.4542 121.457 62.55 121.744 62.7414 121.929C62.9329 122.113 63.2274 122.205 63.6251 122.205C63.9196 122.205 64.1921 122.149 64.4424 122.039C64.6928 121.929 64.91 121.781 65.0941 121.597V117.764H66.287V123H65.1935L65.1383 122.459C64.9027 122.643 64.6228 122.797 64.2988 122.923C63.9748 123.048 63.6067 123.11 63.1943 123.11ZM69.817 123.11C69.3457 123.11 68.9297 123.029 68.5689 122.867C68.2081 122.705 67.9282 122.437 67.7294 122.061C67.5306 121.686 67.4312 121.181 67.4312 120.548C67.4312 119.922 67.538 119.395 67.7515 118.968C67.9651 118.534 68.2596 118.206 68.6352 117.985C69.0181 117.764 69.4488 117.654 69.9275 117.654C70.2441 117.654 70.5239 117.691 70.7669 117.764C71.0173 117.838 71.2566 117.952 71.4849 118.107V115.555H72.6889V123H71.6616L71.5843 122.481C71.3487 122.694 71.0909 122.853 70.8111 122.956C70.5313 123.059 70.1999 123.11 69.817 123.11ZM70.1373 122.205C70.6749 122.205 71.1241 122.021 71.4849 121.652V119.035C71.1388 118.725 70.7043 118.571 70.1815 118.571C69.6734 118.571 69.2905 118.74 69.0328 119.079C68.7751 119.418 68.6462 119.911 68.6462 120.559C68.6462 121.185 68.764 121.616 68.9997 121.851C69.2427 122.087 69.6219 122.205 70.1373 122.205ZM76.5849 123.11C75.6718 123.11 74.9649 122.886 74.4642 122.437C73.9634 121.987 73.7131 121.299 73.7131 120.371C73.7131 119.532 73.9266 118.869 74.3537 118.383C74.7808 117.897 75.4288 117.654 76.2977 117.654C77.093 117.654 77.6895 117.864 78.0871 118.284C78.4921 118.696 78.6946 119.23 78.6946 119.885V120.857H74.8618C74.9207 121.365 75.1048 121.715 75.4141 121.906C75.7233 122.098 76.1946 122.194 76.8279 122.194C77.093 122.194 77.3655 122.168 77.6453 122.116C77.9251 122.065 78.1681 121.999 78.3743 121.918V122.801C78.1386 122.904 77.8662 122.982 77.5569 123.033C77.255 123.085 76.931 123.11 76.5849 123.11ZM74.8618 120.073H77.6342V119.708C77.6342 119.348 77.5348 119.068 77.336 118.869C77.1372 118.663 76.8021 118.56 76.3309 118.56C75.7712 118.56 75.3846 118.681 75.1711 118.924C74.9649 119.167 74.8618 119.55 74.8618 120.073Z" fill="#404040"/>
<path d="M45.504 136V130.848H49.008V131.528H46.376V133.088H48.712V133.76H46.376V136H45.504ZM51.1559 136.08C50.4732 136.08 49.9719 135.909 49.6519 135.568C49.3372 135.227 49.1799 134.739 49.1799 134.104C49.1799 133.469 49.3399 132.981 49.6599 132.64C49.9799 132.299 50.4786 132.128 51.1559 132.128C51.8386 132.128 52.3399 132.299 52.6599 132.64C52.9799 132.981 53.1399 133.469 53.1399 134.104C53.1399 134.739 52.9799 135.227 52.6599 135.568C52.3452 135.909 51.8439 136.08 51.1559 136.08ZM51.1559 135.344C51.5559 135.344 51.8386 135.248 52.0039 135.056C52.1746 134.859 52.2599 134.541 52.2599 134.104C52.2599 133.667 52.1746 133.352 52.0039 133.16C51.8386 132.968 51.5559 132.872 51.1559 132.872C50.7612 132.872 50.4786 132.968 50.3079 133.16C50.1426 133.352 50.0599 133.667 50.0599 134.104C50.0599 134.541 50.1426 134.859 50.3079 135.056C50.4786 135.248 50.7612 135.344 51.1559 135.344ZM53.9492 136V132.208H54.7492L54.7972 132.648C54.9786 132.531 55.1946 132.424 55.4452 132.328C55.6959 132.232 55.9439 132.165 56.1892 132.128V132.792C56.0399 132.819 55.8772 132.859 55.7012 132.912C55.5306 132.96 55.3679 133.016 55.2132 133.08C55.0586 133.139 54.9279 133.2 54.8212 133.264V136H53.9492ZM60.4538 136.08C59.7871 136.08 59.2831 135.912 58.9418 135.576C58.6005 135.235 58.4298 134.744 58.4298 134.104C58.4298 133.437 58.6165 132.941 58.9898 132.616C59.3685 132.291 59.8725 132.128 60.5018 132.128C60.7631 132.128 60.9818 132.147 61.1578 132.184C61.3391 132.221 61.5125 132.28 61.6778 132.36V133.008C61.4005 132.869 61.0645 132.8 60.6698 132.8C60.2325 132.8 59.8965 132.899 59.6618 133.096C59.4271 133.288 59.3098 133.624 59.3098 134.104C59.3098 134.557 59.4138 134.891 59.6218 135.104C59.8298 135.312 60.1738 135.416 60.6538 135.416C61.0325 135.416 61.3765 135.344 61.6858 135.2V135.864C61.5098 135.933 61.3205 135.987 61.1178 136.024C60.9205 136.061 60.6991 136.08 60.4538 136.08ZM64.1558 136.08C63.4731 136.08 62.9718 135.909 62.6518 135.568C62.3371 135.227 62.1798 134.739 62.1798 134.104C62.1798 133.469 62.3398 132.981 62.6598 132.64C62.9798 132.299 63.4784 132.128 64.1558 132.128C64.8384 132.128 65.3398 132.299 65.6598 132.64C65.9798 132.981 66.1398 133.469 66.1398 134.104C66.1398 134.739 65.9798 135.227 65.6598 135.568C65.3451 135.909 64.8438 136.08 64.1558 136.08ZM64.1558 135.344C64.5558 135.344 64.8384 135.248 65.0038 135.056C65.1744 134.859 65.2598 134.541 65.2598 134.104C65.2598 133.667 65.1744 133.352 65.0038 133.16C64.8384 132.968 64.5558 132.872 64.1558 132.872C63.7611 132.872 63.4784 132.968 63.3078 133.16C63.1424 133.352 63.0598 133.667 63.0598 134.104C63.0598 134.541 63.1424 134.859 63.3078 135.056C63.4784 135.248 63.7611 135.344 64.1558 135.344ZM68.5171 136.08C68.1758 136.08 67.8744 136.021 67.6131 135.904C67.3518 135.787 67.1491 135.592 67.0051 135.32C66.8611 135.048 66.7891 134.683 66.7891 134.224C66.7891 133.771 66.8664 133.389 67.0211 133.08C67.1758 132.765 67.3891 132.528 67.6611 132.368C67.9384 132.208 68.2504 132.128 68.5971 132.128C68.8264 132.128 69.0291 132.155 69.2051 132.208C69.3864 132.261 69.5598 132.344 69.7251 132.456V130.608H70.5971V136H69.8531L69.7971 135.624C69.6264 135.779 69.4398 135.893 69.2371 135.968C69.0344 136.043 68.7944 136.08 68.5171 136.08ZM68.7491 135.424C69.1384 135.424 69.4638 135.291 69.7251 135.024V133.128C69.4744 132.904 69.1598 132.792 68.7811 132.792C68.4131 132.792 68.1358 132.915 67.9491 133.16C67.7624 133.405 67.6691 133.763 67.6691 134.232C67.6691 134.685 67.7544 134.997 67.9251 135.168C68.1011 135.339 68.3758 135.424 68.7491 135.424ZM71.8862 131.416V130.696H72.8382V131.416H71.8862ZM71.9582 136V132.872H71.3822L71.4622 132.208H72.8302V136H71.9582ZM73.8084 136V132.208H74.6084L74.6484 132.608C74.8191 132.475 75.0217 132.363 75.2564 132.272C75.4964 132.176 75.7604 132.128 76.0484 132.128C76.5391 132.128 76.8964 132.243 77.1204 132.472C77.3444 132.701 77.4564 133.059 77.4564 133.544V136H76.5924V133.584C76.5924 133.291 76.5311 133.085 76.4084 132.968C76.2911 132.851 76.0671 132.792 75.7364 132.792C75.5391 132.792 75.3444 132.832 75.1524 132.912C74.9657 132.992 74.8084 133.096 74.6804 133.224V136H73.8084ZM79.9303 137.408C79.6476 137.408 79.365 137.389 79.0823 137.352C78.7996 137.32 78.5596 137.269 78.3623 137.2V136.528C78.5756 136.597 78.821 136.651 79.0983 136.688C79.3756 136.725 79.6396 136.744 79.8903 136.744C80.2743 136.744 80.5543 136.723 80.7303 136.68C80.9063 136.637 80.9943 136.541 80.9943 136.392C80.9943 136.28 80.9516 136.2 80.8663 136.152C80.781 136.109 80.6183 136.088 80.3783 136.088H79.3543C78.6663 136.088 78.3223 135.845 78.3223 135.36C78.3223 135.205 78.3676 135.061 78.4583 134.928C78.549 134.795 78.693 134.693 78.8903 134.624C78.6716 134.517 78.509 134.371 78.4023 134.184C78.301 133.997 78.2503 133.773 78.2503 133.512C78.2503 133.027 78.3943 132.675 78.6823 132.456C78.9756 132.237 79.413 132.128 79.9943 132.128C80.117 132.128 80.245 132.139 80.3783 132.16C80.5116 132.176 80.6156 132.192 80.6903 132.208H82.0823L82.0583 132.776H81.4183C81.5196 132.861 81.5943 132.968 81.6423 133.096C81.6903 133.224 81.7143 133.363 81.7143 133.512C81.7143 133.917 81.5916 134.237 81.3463 134.472C81.101 134.701 80.7303 134.816 80.2343 134.816C80.149 134.816 80.069 134.813 79.9943 134.808C79.925 134.797 79.8476 134.787 79.7623 134.776C79.6023 134.792 79.4583 134.835 79.3303 134.904C79.2023 134.973 79.1383 135.067 79.1383 135.184C79.1383 135.264 79.1703 135.323 79.2343 135.36C79.2983 135.392 79.405 135.408 79.5543 135.408H80.6183C80.997 135.408 81.2876 135.491 81.4903 135.656C81.6983 135.816 81.8023 136.051 81.8023 136.36C81.8023 136.733 81.6396 137 81.3143 137.16C80.9943 137.325 80.533 137.408 79.9303 137.408ZM79.9943 134.264C80.341 134.264 80.581 134.205 80.7143 134.088C80.853 133.971 80.9223 133.771 80.9223 133.488C80.9223 133.205 80.853 133 80.7143 132.872C80.581 132.744 80.341 132.68 79.9943 132.68C79.669 132.68 79.4316 132.741 79.2823 132.864C79.133 132.987 79.0583 133.195 79.0583 133.488C79.0583 133.76 79.1276 133.957 79.2663 134.08C79.4103 134.203 79.653 134.264 79.9943 134.264ZM86.2695 136.08C85.7149 136.08 85.2695 135.96 84.9335 135.72C84.5975 135.475 84.4295 135.149 84.4295 134.744C84.4295 134.381 84.5362 134.075 84.7495 133.824C84.9682 133.573 85.2642 133.347 85.6375 133.144C85.4295 132.957 85.2615 132.773 85.1335 132.592C85.0109 132.411 84.9495 132.197 84.9495 131.952C84.9495 131.616 85.0695 131.336 85.3095 131.112C85.5495 130.883 85.8802 130.768 86.3015 130.768C86.7175 130.768 87.0429 130.877 87.2775 131.096C87.5175 131.309 87.6375 131.595 87.6375 131.952C87.6375 132.229 87.5709 132.467 87.4375 132.664C87.3042 132.861 87.0909 133.056 86.7975 133.248L87.9815 134.456C88.0669 134.275 88.1095 134.061 88.1095 133.816V133.68H88.7735V133.832C88.7735 134.035 88.7469 134.235 88.6935 134.432C88.6402 134.624 88.5682 134.792 88.4775 134.936L89.1255 135.592L88.5975 136.072L88.0215 135.496C87.8242 135.699 87.5762 135.848 87.2775 135.944C86.9789 136.035 86.6429 136.08 86.2695 136.08ZM86.2535 132.872C86.4829 132.723 86.6535 132.589 86.7655 132.472C86.8775 132.355 86.9335 132.195 86.9335 131.992C86.9335 131.805 86.8829 131.659 86.7815 131.552C86.6855 131.44 86.5255 131.384 86.3015 131.384C86.0722 131.384 85.9069 131.443 85.8055 131.56C85.7042 131.677 85.6535 131.821 85.6535 131.992C85.6535 132.157 85.7015 132.307 85.7975 132.44C85.8989 132.568 86.0509 132.712 86.2535 132.872ZM86.2695 135.472C86.8029 135.472 87.2109 135.32 87.4935 135.016L86.1575 133.664C85.8589 133.787 85.6349 133.933 85.4855 134.104C85.3415 134.269 85.2695 134.477 85.2695 134.728C85.2695 134.973 85.3629 135.16 85.5495 135.288C85.7362 135.411 85.9762 135.472 86.2695 135.472ZM93.2668 136.08C92.9255 136.08 92.6242 136.021 92.3628 135.904C92.1015 135.787 91.8988 135.592 91.7548 135.32C91.6108 135.048 91.5388 134.683 91.5388 134.224C91.5388 133.771 91.6162 133.389 91.7708 133.08C91.9255 132.765 92.1388 132.528 92.4108 132.368C92.6882 132.208 93.0002 132.128 93.3468 132.128C93.5762 132.128 93.7788 132.155 93.9548 132.208C94.1362 132.261 94.3095 132.344 94.4748 132.456V130.608H95.3468V136H94.6028L94.5468 135.624C94.3762 135.779 94.1895 135.893 93.9868 135.968C93.7842 136.043 93.5442 136.08 93.2668 136.08ZM93.4988 135.424C93.8882 135.424 94.2135 135.291 94.4748 135.024V133.128C94.2242 132.904 93.9095 132.792 93.5308 132.792C93.1628 132.792 92.8855 132.915 92.6988 133.16C92.5122 133.405 92.4188 133.763 92.4188 134.232C92.4188 134.685 92.5042 134.997 92.6748 135.168C92.8508 135.339 93.1255 135.424 93.4988 135.424ZM98.1579 136.08C97.4965 136.08 96.9845 135.917 96.6219 135.592C96.2592 135.267 96.0779 134.768 96.0779 134.096C96.0779 133.488 96.2325 133.008 96.5419 132.656C96.8512 132.304 97.3205 132.128 97.9499 132.128C98.5259 132.128 98.9579 132.28 99.2459 132.584C99.5392 132.883 99.6859 133.269 99.6859 133.744V134.448H96.9099C96.9525 134.816 97.0859 135.069 97.3099 135.208C97.5339 135.347 97.8752 135.416 98.3339 135.416C98.5259 135.416 98.7232 135.397 98.9259 135.36C99.1285 135.323 99.3045 135.275 99.4539 135.216V135.856C99.2832 135.931 99.0859 135.987 98.8619 136.024C98.6432 136.061 98.4085 136.08 98.1579 136.08ZM96.9099 133.88H98.9179V133.616C98.9179 133.355 98.8459 133.152 98.7019 133.008C98.5579 132.859 98.3152 132.784 97.9739 132.784C97.5685 132.784 97.2885 132.872 97.1339 133.048C96.9845 133.224 96.9099 133.501 96.9099 133.88ZM101.394 136L99.8981 132.208H100.802L101.866 135.152L102.93 132.208H103.826L102.338 136H101.394ZM46.344 146L45.344 142.208H46.216L46.872 144.968L47.616 142.672V142.208H48.28L49.104 144.968L49.76 142.208H50.624L49.632 146H48.808L48 143.52L47.176 146H46.344ZM52.8903 146.08C52.2076 146.08 51.7063 145.909 51.3863 145.568C51.0716 145.227 50.9143 144.739 50.9143 144.104C50.9143 143.469 51.0743 142.981 51.3943 142.64C51.7143 142.299 52.2129 142.128 52.8903 142.128C53.5729 142.128 54.0743 142.299 54.3943 142.64C54.7143 142.981 54.8743 143.469 54.8743 144.104C54.8743 144.739 54.7143 145.227 54.3943 145.568C54.0796 145.909 53.5783 146.08 52.8903 146.08ZM52.8903 145.344C53.2903 145.344 53.5729 145.248 53.7383 145.056C53.9089 144.859 53.9943 144.541 53.9943 144.104C53.9943 143.667 53.9089 143.352 53.7383 143.16C53.5729 142.968 53.2903 142.872 52.8903 142.872C52.4956 142.872 52.2129 142.968 52.0423 143.16C51.8769 143.352 51.7943 143.667 51.7943 144.104C51.7943 144.541 51.8769 144.859 52.0423 145.056C52.2129 145.248 52.4956 145.344 52.8903 145.344ZM55.6836 146V142.208H56.4836L56.5316 142.648C56.7129 142.531 56.9289 142.424 57.1796 142.328C57.4303 142.232 57.6783 142.165 57.9236 142.128V142.792C57.7743 142.819 57.6116 142.859 57.4356 142.912C57.2649 142.96 57.1023 143.016 56.9476 143.08C56.7929 143.139 56.6623 143.2 56.5556 143.264V146H55.6836ZM58.5195 146V140.608H59.3915V143.728L60.9835 142.208H61.9835L60.4395 143.736L62.0715 146H61.1515L59.8955 144.2L59.3915 144.68V146H58.5195ZM62.728 146V142.888H62.176V142.208H62.728V141.8C62.728 141.427 62.848 141.12 63.088 140.88C63.3334 140.635 63.6667 140.501 64.088 140.48C64.2427 140.475 64.4 140.483 64.56 140.504C64.7254 140.525 64.8747 140.557 65.008 140.6H65.728V146H64.856V142.888H63.592V146H62.728ZM63.592 142.208H64.856V141.224C64.7867 141.197 64.7067 141.179 64.616 141.168C64.5307 141.157 64.4454 141.152 64.36 141.152C63.848 141.152 63.592 141.376 63.592 141.824V142.208ZM68.437 146.08C67.7543 146.08 67.253 145.909 66.933 145.568C66.6183 145.227 66.461 144.739 66.461 144.104C66.461 143.469 66.621 142.981 66.941 142.64C67.261 142.299 67.7597 142.128 68.437 142.128C69.1197 142.128 69.621 142.299 69.941 142.64C70.261 142.981 70.421 143.469 70.421 144.104C70.421 144.739 70.261 145.227 69.941 145.568C69.6263 145.909 69.125 146.08 68.437 146.08ZM68.437 145.344C68.837 145.344 69.1197 145.248 69.285 145.056C69.4557 144.859 69.541 144.541 69.541 144.104C69.541 143.667 69.4557 143.352 69.285 143.16C69.1197 142.968 68.837 142.872 68.437 142.872C68.0423 142.872 67.7597 142.968 67.589 143.16C67.4237 143.352 67.341 143.667 67.341 144.104C67.341 144.541 67.4237 144.859 67.589 145.056C67.7597 145.248 68.0423 145.344 68.437 145.344ZM71.711 146L70.711 142.208H71.583L72.239 144.968L72.983 142.672V142.208H73.647L74.471 144.968L75.127 142.208H75.991L74.999 146H74.175L73.367 143.52L72.543 146H71.711ZM77.7052 146.08C77.4439 146.08 77.1932 146.061 76.9532 146.024C76.7186 145.987 76.5239 145.941 76.3692 145.888V145.152C76.5506 145.221 76.7506 145.275 76.9692 145.312C77.1879 145.349 77.3959 145.368 77.5932 145.368C77.8919 145.368 78.1052 145.341 78.2332 145.288C78.3612 145.235 78.4252 145.131 78.4252 144.976C78.4252 144.864 78.3852 144.776 78.3052 144.712C78.2306 144.648 78.1159 144.589 77.9612 144.536C77.8119 144.483 77.6199 144.419 77.3852 144.344C77.1612 144.269 76.9666 144.189 76.8012 144.104C76.6359 144.013 76.5079 143.899 76.4172 143.76C76.3266 143.621 76.2812 143.44 76.2812 143.216C76.2812 142.869 76.4066 142.603 76.6572 142.416C76.9079 142.224 77.3106 142.128 77.8652 142.128C78.0839 142.128 78.2919 142.144 78.4892 142.176C78.6866 142.208 78.8546 142.248 78.9932 142.296V143.024C78.8439 142.965 78.6786 142.92 78.4972 142.888C78.3212 142.856 78.1559 142.84 78.0012 142.84C77.7239 142.84 77.5132 142.864 77.3692 142.912C77.2306 142.96 77.1612 143.056 77.1612 143.2C77.1612 143.349 77.2332 143.456 77.3772 143.52C77.5266 143.579 77.7639 143.661 78.0892 143.768C78.3879 143.859 78.6252 143.955 78.8012 144.056C78.9772 144.157 79.1026 144.28 79.1772 144.424C79.2572 144.563 79.2972 144.744 79.2972 144.968C79.2972 145.341 79.1612 145.621 78.8892 145.808C78.6172 145.989 78.2226 146.08 77.7052 146.08ZM79.9531 146V145.32H80.6891V146H79.9531Z" fill="#737373"/>
</g>
<g opacity="0.75">
<rect x="11.2301" y="116.23" width="27.6138" height="27.1535" rx="3.91196" fill="#30EDE6" fill-opacity="0.2" stroke="url(#paint4_linear_2861_169)" stroke-width="0.46023"/>
<path d="M32.6981 130.18L26.3551 126.143C26.2249 126.061 26.075 126.015 25.9209 126.01C25.7669 126.005 25.6143 126.041 25.4791 126.115C25.3445 126.187 25.2322 126.295 25.1542 126.426C25.0763 126.557 25.0356 126.708 25.0367 126.86V130.067L18.875 126.143C18.7448 126.061 18.5949 126.015 18.4408 126.01C18.2868 126.005 18.1342 126.041 17.999 126.115C17.8644 126.187 17.7521 126.295 17.6741 126.426C17.5962 126.557 17.5556 126.708 17.5567 126.86V134.939C17.5556 135.091 17.5962 135.242 17.6741 135.373C17.7521 135.504 17.8644 135.612 17.999 135.684C18.1342 135.758 18.2868 135.794 18.4408 135.789C18.5949 135.784 18.7448 135.738 18.875 135.656L25.0367 131.732V134.939C25.0356 135.091 25.0763 135.242 25.1542 135.373C25.2322 135.504 25.3445 135.612 25.4791 135.684C25.6143 135.758 25.7669 135.794 25.9209 135.789C26.075 135.784 26.2249 135.738 26.3551 135.656L32.6981 131.619C32.8188 131.542 32.9183 131.436 32.9872 131.311C33.0561 131.185 33.0922 131.045 33.0922 130.902C33.0922 130.759 33.0561 130.618 32.9872 130.493C32.9183 130.367 32.8188 130.261 32.6981 130.185V130.18ZM24.9087 131.129L18.5636 135.17C18.5209 135.198 18.4717 135.213 18.421 135.215C18.3704 135.216 18.3202 135.204 18.2759 135.18C18.2322 135.157 18.1956 135.122 18.1703 135.079C18.1449 135.037 18.1317 134.988 18.1321 134.939V126.86C18.1317 126.811 18.1449 126.762 18.1703 126.72C18.1956 126.677 18.2322 126.643 18.2759 126.619C18.318 126.596 18.3652 126.584 18.4133 126.583C18.4676 126.583 18.5208 126.599 18.5665 126.629L24.9087 130.668C24.948 130.693 24.9803 130.727 25.0027 130.767C25.0251 130.808 25.0369 130.853 25.0369 130.9C25.0369 130.946 25.0251 130.991 25.0027 131.032C24.9803 131.072 24.948 131.107 24.9087 131.131V131.129ZM32.3888 131.129L26.0437 135.17C26.001 135.198 25.9518 135.213 25.9011 135.215C25.8505 135.216 25.8003 135.204 25.756 135.18C25.7123 135.157 25.6757 135.122 25.6504 135.079C25.625 135.037 25.6118 134.988 25.6121 134.939V126.86C25.6118 126.811 25.625 126.762 25.6504 126.72C25.6757 126.677 25.7123 126.643 25.756 126.619C25.7981 126.596 25.8453 126.584 25.8934 126.583C25.9477 126.583 26.0009 126.599 26.0466 126.629L32.3888 130.668C32.428 130.693 32.4604 130.727 32.4828 130.767C32.5052 130.808 32.517 130.853 32.517 130.9C32.517 130.946 32.5052 130.991 32.4828 131.032C32.4604 131.072 32.428 131.107 32.3888 131.131V131.129Z" fill="url(#paint5_linear_2861_169)"/>
</g>
<path d="M266.443 128.178H282.24L292.159 128.178" stroke="url(#paint6_linear_2861_169)" stroke-width="0.920461"/>
<g filter="url(#filter0_f_2861_169)">
<path d="M271.8 128.089L265 128.457L272.656 129.078C273.221 129.123 273.767 129.299 274.252 129.59L275.665 130.438C275.76 130.494 275.823 130.592 275.835 130.702L275.905 131.333C275.945 131.695 276.475 131.683 276.499 131.32C276.503 131.254 276.53 131.191 276.574 131.142L277.354 130.265C277.991 129.547 278.88 129.104 279.837 129.026L286.861 128.457L279.95 128.083C278.923 128.028 277.96 127.568 277.273 126.803C276.631 126.09 276.276 125.165 276.276 124.205V122.014L276.006 124.169C275.883 125.159 275.433 126.078 274.728 126.783C273.946 127.564 272.904 128.03 271.8 128.089Z" fill="#30EDE6"/>
</g>
<path d="M336.085 123.49C336.045 123.319 335.964 123.161 335.848 123.029C335.733 122.897 335.586 122.796 335.422 122.734L319.243 116.668L323.322 96.2693C323.366 96.0427 323.336 95.8078 323.235 95.6C323.135 95.3922 322.969 95.2228 322.763 95.1174C322.558 95.012 322.324 94.9762 322.096 95.0156C321.869 95.0549 321.66 95.1672 321.502 95.3355L291.704 127.262C291.583 127.389 291.496 127.544 291.449 127.713C291.403 127.882 291.399 128.06 291.438 128.231C291.477 128.402 291.558 128.56 291.674 128.692C291.79 128.824 291.936 128.925 292.1 128.986L308.279 135.053L304.208 155.451C304.164 155.678 304.194 155.913 304.295 156.12C304.396 156.328 304.561 156.498 304.767 156.603C304.972 156.709 305.206 156.744 305.434 156.705C305.661 156.666 305.87 156.553 306.028 156.385L335.827 124.458C335.946 124.33 336.032 124.175 336.077 124.006C336.122 123.837 336.124 123.66 336.085 123.49ZM307.029 152.2L310.551 134.587C310.601 134.339 310.56 134.082 310.438 133.861C310.315 133.64 310.117 133.47 309.881 133.382L294.343 127.552L320.502 99.5205L316.979 117.134C316.93 117.381 316.97 117.639 317.093 117.859C317.215 118.08 317.413 118.25 317.65 118.339L333.187 124.168L307.029 152.2Z" fill="#00A6A6"/>
<rect x="3.23012" y="174.23" width="156.54" height="48.5398" rx="5.29265" fill="#EFEFEF" stroke="url(#paint7_linear_2861_169)" stroke-width="0.46023"/>
<g opacity="0.5">
<path d="M49.0095 192.11C47.8387 192.11 46.9551 191.794 46.3586 191.161C45.7695 190.527 45.475 189.669 45.475 188.587C45.475 187.806 45.6038 187.133 45.8616 186.566C46.1193 185.991 46.5096 185.549 47.0324 185.24C47.5626 184.931 48.2327 184.776 49.0427 184.776C49.4624 184.776 49.8416 184.806 50.1804 184.865C50.5264 184.916 50.8504 184.993 51.1524 185.097V186.135C50.5485 185.914 49.8784 185.803 49.1421 185.803C48.2363 185.803 47.5994 186.043 47.2312 186.521C46.8704 187 46.69 187.689 46.69 188.587C46.69 189.404 46.8814 190.027 47.2643 190.454C47.6472 190.881 48.24 191.094 49.0427 191.094C49.6759 191.094 50.1877 191.021 50.578 190.873V188.885H48.7997V188.101H51.6052V191.525C51.377 191.672 51.0493 191.809 50.6222 191.934C50.2024 192.052 49.6649 192.11 49.0095 192.11ZM55.3837 192.11C54.4706 192.11 53.7637 191.886 53.263 191.437C52.7623 190.987 52.5119 190.299 52.5119 189.371C52.5119 188.532 52.7254 187.869 53.1525 187.383C53.5796 186.897 54.2276 186.654 55.0966 186.654C55.8918 186.654 56.4883 186.864 56.8859 187.284C57.2909 187.696 57.4934 188.23 57.4934 188.885V189.857H53.6606C53.7195 190.365 53.9036 190.715 54.2129 190.906C54.5222 191.098 54.9935 191.194 55.6267 191.194C55.8918 191.194 56.1643 191.168 56.4441 191.116C56.7239 191.065 56.9669 190.999 57.1731 190.918V191.801C56.9375 191.904 56.665 191.982 56.3557 192.033C56.0538 192.085 55.7298 192.11 55.3837 192.11ZM53.6606 189.073H56.4331V188.708C56.4331 188.348 56.3337 188.068 56.1348 187.869C55.936 187.663 55.601 187.56 55.1297 187.56C54.57 187.56 54.1835 187.681 53.9699 187.924C53.7637 188.167 53.6606 188.55 53.6606 189.073ZM58.6264 192V186.764H59.7309L59.7861 187.317C60.0439 187.111 60.3274 186.949 60.6367 186.831C60.9459 186.713 61.2773 186.654 61.6307 186.654C62.0063 186.654 62.2972 186.717 62.5033 186.842C62.7169 186.96 62.8789 187.125 62.9893 187.339C63.2324 187.14 63.5122 186.978 63.8288 186.853C64.1454 186.72 64.5247 186.654 64.9665 186.654C65.5703 186.654 66.0158 186.809 66.303 187.118C66.5902 187.427 66.7338 187.902 66.7338 188.543V192H65.5519V188.664C65.5519 188.259 65.4672 187.976 65.2979 187.814C65.1285 187.652 64.8524 187.571 64.4694 187.571C64.2191 187.571 63.9798 187.615 63.7515 187.703C63.5306 187.792 63.3391 187.924 63.1771 188.101C63.1992 188.182 63.2139 188.267 63.2213 188.355C63.2287 188.443 63.2324 188.539 63.2324 188.642V192H62.1168V188.675C62.1168 188.292 62.0505 188.013 61.9179 187.836C61.7854 187.659 61.535 187.571 61.1668 187.571C60.9091 187.571 60.6624 187.633 60.4268 187.759C60.1985 187.876 59.9923 188.02 59.8082 188.189V192H58.6264ZM68.489 185.671V184.677H69.8034V185.671H68.489ZM68.5884 192V187.681H67.7931L67.9036 186.764H69.7923V192H68.5884ZM71.1578 192V186.764H72.2623L72.3175 187.317C72.5532 187.133 72.833 186.978 73.157 186.853C73.4884 186.72 73.8529 186.654 74.2505 186.654C74.928 186.654 75.4213 186.812 75.7306 187.129C76.0399 187.446 76.1945 187.939 76.1945 188.609V192H75.0016V188.664C75.0016 188.259 74.9169 187.976 74.7476 187.814C74.5856 187.652 74.2763 187.571 73.8197 187.571C73.5473 187.571 73.2785 187.626 73.0134 187.736C72.7557 187.847 72.5384 187.99 72.3617 188.167V192H71.1578ZM77.9462 185.671V184.677H79.2606V185.671H77.9462ZM78.0456 192V187.681H77.2503L77.3608 186.764H79.2495V192H78.0456Z" fill="#404040"/>
<path d="M45.504 205V199.848H49.008V200.528H46.376V202.088H48.712V202.76H46.376V205H45.504ZM51.1559 205.08C50.4732 205.08 49.9719 204.909 49.6519 204.568C49.3372 204.227 49.1799 203.739 49.1799 203.104C49.1799 202.469 49.3399 201.981 49.6599 201.64C49.9799 201.299 50.4786 201.128 51.1559 201.128C51.8386 201.128 52.3399 201.299 52.6599 201.64C52.9799 201.981 53.1399 202.469 53.1399 203.104C53.1399 203.739 52.9799 204.227 52.6599 204.568C52.3452 204.909 51.8439 205.08 51.1559 205.08ZM51.1559 204.344C51.5559 204.344 51.8386 204.248 52.0039 204.056C52.1746 203.859 52.2599 203.541 52.2599 203.104C52.2599 202.667 52.1746 202.352 52.0039 202.16C51.8386 201.968 51.5559 201.872 51.1559 201.872C50.7612 201.872 50.4786 201.968 50.3079 202.16C50.1426 202.352 50.0599 202.667 50.0599 203.104C50.0599 203.541 50.1426 203.859 50.3079 204.056C50.4786 204.248 50.7612 204.344 51.1559 204.344ZM53.9492 205V201.208H54.7492L54.7972 201.648C54.9786 201.531 55.1946 201.424 55.4452 201.328C55.6959 201.232 55.9439 201.165 56.1892 201.128V201.792C56.0399 201.819 55.8772 201.859 55.7012 201.912C55.5306 201.96 55.3679 202.016 55.2132 202.08C55.0586 202.139 54.9279 202.2 54.8212 202.264V205H53.9492ZM60.6698 205.08C60.3925 205.08 60.1525 205.043 59.9498 204.968C59.7471 204.893 59.5605 204.779 59.3898 204.624L59.3418 205H58.5898V199.608H59.4618V201.456C59.7925 201.237 60.1898 201.128 60.6538 201.128C61.1925 201.128 61.6165 201.283 61.9258 201.592C62.2405 201.896 62.3978 202.389 62.3978 203.072C62.3978 203.76 62.2431 204.267 61.9338 204.592C61.6245 204.917 61.2031 205.08 60.6698 205.08ZM60.4378 204.424C60.8325 204.424 61.1098 204.312 61.2698 204.088C61.4351 203.864 61.5178 203.525 61.5178 203.072C61.5178 202.603 61.4298 202.272 61.2538 202.08C61.0778 201.888 60.8005 201.792 60.4218 201.792C60.0271 201.792 59.7071 201.901 59.4618 202.12V204.024C59.7125 204.291 60.0378 204.424 60.4378 204.424ZM63.3707 200.416V199.696H64.3227V200.416H63.3707ZM63.4427 205V201.872H62.8667L62.9467 201.208H64.3147V205H63.4427ZM66.8288 206.408C66.5462 206.408 66.2635 206.389 65.9808 206.352C65.6982 206.32 65.4582 206.269 65.2608 206.2V205.528C65.4742 205.597 65.7195 205.651 65.9968 205.688C66.2742 205.725 66.5382 205.744 66.7888 205.744C67.1728 205.744 67.4528 205.723 67.6288 205.68C67.8048 205.637 67.8928 205.541 67.8928 205.392C67.8928 205.28 67.8502 205.2 67.7648 205.152C67.6795 205.109 67.5168 205.088 67.2768 205.088H66.2528C65.5648 205.088 65.2208 204.845 65.2208 204.36C65.2208 204.205 65.2662 204.061 65.3568 203.928C65.4475 203.795 65.5915 203.693 65.7888 203.624C65.5702 203.517 65.4075 203.371 65.3008 203.184C65.1995 202.997 65.1488 202.773 65.1488 202.512C65.1488 202.027 65.2928 201.675 65.5808 201.456C65.8742 201.237 66.3115 201.128 66.8928 201.128C67.0155 201.128 67.1435 201.139 67.2768 201.16C67.4102 201.176 67.5142 201.192 67.5888 201.208H68.9808L68.9568 201.776H68.3168C68.4182 201.861 68.4928 201.968 68.5408 202.096C68.5888 202.224 68.6128 202.363 68.6128 202.512C68.6128 202.917 68.4902 203.237 68.2448 203.472C67.9995 203.701 67.6288 203.816 67.1328 203.816C67.0475 203.816 66.9675 203.813 66.8928 203.808C66.8235 203.797 66.7462 203.787 66.6608 203.776C66.5008 203.792 66.3568 203.835 66.2288 203.904C66.1008 203.973 66.0368 204.067 66.0368 204.184C66.0368 204.264 66.0688 204.323 66.1328 204.36C66.1968 204.392 66.3035 204.408 66.4528 204.408H67.5168C67.8955 204.408 68.1862 204.491 68.3888 204.656C68.5968 204.816 68.7008 205.051 68.7008 205.36C68.7008 205.733 68.5382 206 68.2128 206.16C67.8928 206.325 67.4315 206.408 66.8288 206.408ZM66.8928 203.264C67.2395 203.264 67.4795 203.205 67.6128 203.088C67.7515 202.971 67.8208 202.771 67.8208 202.488C67.8208 202.205 67.7515 202 67.6128 201.872C67.4795 201.744 67.2395 201.68 66.8928 201.68C66.5675 201.68 66.3302 201.741 66.1808 201.864C66.0315 201.987 65.9568 202.195 65.9568 202.488C65.9568 202.76 66.0262 202.957 66.1648 203.08C66.3088 203.203 66.5515 203.264 66.8928 203.264ZM73.3521 205.08C72.6854 205.08 72.1814 204.912 71.8401 204.576C71.4987 204.235 71.3281 203.744 71.3281 203.104C71.3281 202.437 71.5147 201.941 71.8881 201.616C72.2667 201.291 72.7707 201.128 73.4001 201.128C73.6614 201.128 73.8801 201.147 74.0561 201.184C74.2374 201.221 74.4107 201.28 74.5761 201.36V202.008C74.2987 201.869 73.9627 201.8 73.5681 201.8C73.1307 201.8 72.7947 201.899 72.5601 202.096C72.3254 202.288 72.2081 202.624 72.2081 203.104C72.2081 203.557 72.3121 203.891 72.5201 204.104C72.7281 204.312 73.0721 204.416 73.5521 204.416C73.9307 204.416 74.2747 204.344 74.5841 204.2V204.864C74.4081 204.933 74.2187 204.987 74.0161 205.024C73.8187 205.061 73.5974 205.08 73.3521 205.08ZM77.054 205.08C76.3714 205.08 75.87 204.909 75.55 204.568C75.2354 204.227 75.078 203.739 75.078 203.104C75.078 202.469 75.238 201.981 75.558 201.64C75.878 201.299 76.3767 201.128 77.054 201.128C77.7367 201.128 78.238 201.299 78.558 201.64C78.878 201.981 79.038 202.469 79.038 203.104C79.038 203.739 78.878 204.227 78.558 204.568C78.2434 204.909 77.742 205.08 77.054 205.08ZM77.054 204.344C77.454 204.344 77.7367 204.248 77.902 204.056C78.0727 203.859 78.158 203.541 78.158 203.104C78.158 202.667 78.0727 202.352 77.902 202.16C77.7367 201.968 77.454 201.872 77.054 201.872C76.6594 201.872 76.3767 201.968 76.206 202.16C76.0407 202.352 75.958 202.667 75.958 203.104C75.958 203.541 76.0407 203.859 76.206 204.056C76.3767 204.248 76.6594 204.344 77.054 204.344ZM79.8474 205V201.208H80.6474L80.6874 201.608C80.8581 201.475 81.0607 201.363 81.2954 201.272C81.5354 201.176 81.7994 201.128 82.0874 201.128C82.5781 201.128 82.9354 201.243 83.1594 201.472C83.3834 201.701 83.4954 202.059 83.4954 202.544V205H82.6314V202.584C82.6314 202.291 82.5701 202.085 82.4474 201.968C82.3301 201.851 82.1061 201.792 81.7754 201.792C81.5781 201.792 81.3834 201.832 81.1914 201.912C81.0047 201.992 80.8474 202.096 80.7194 202.224V205H79.8474ZM85.8813 205.08C85.4759 205.08 85.1719 204.973 84.9693 204.76C84.7719 204.541 84.6733 204.245 84.6733 203.872V201.888H84.1133V201.208H84.6733V200.336L85.5373 200.072V201.208H86.5453L86.4893 201.888H85.5373V203.824C85.5373 204.043 85.5879 204.197 85.6893 204.288C85.7906 204.373 85.9559 204.416 86.1853 204.416C86.3293 204.416 86.4813 204.389 86.6413 204.336V204.952C86.4333 205.037 86.1799 205.08 85.8813 205.08ZM89.1892 205.08C88.5279 205.08 88.0159 204.917 87.6532 204.592C87.2905 204.267 87.1092 203.768 87.1092 203.096C87.1092 202.488 87.2639 202.008 87.5732 201.656C87.8825 201.304 88.3519 201.128 88.9812 201.128C89.5572 201.128 89.9892 201.28 90.2772 201.584C90.5705 201.883 90.7172 202.269 90.7172 202.744V203.448H87.9412C87.9839 203.816 88.1172 204.069 88.3412 204.208C88.5652 204.347 88.9065 204.416 89.3652 204.416C89.5572 204.416 89.7545 204.397 89.9572 204.36C90.1599 204.323 90.3359 204.275 90.4852 204.216V204.856C90.3145 204.931 90.1172 204.987 89.8932 205.024C89.6745 205.061 89.4399 205.08 89.1892 205.08ZM87.9412 202.88H89.9492V202.616C89.9492 202.355 89.8772 202.152 89.7332 202.008C89.5892 201.859 89.3465 201.784 89.0052 201.784C88.5999 201.784 88.3199 201.872 88.1652 202.048C88.0159 202.224 87.9412 202.501 87.9412 202.88ZM90.9036 205L92.3516 203.072L90.9596 201.208H91.8956L92.8236 202.472L93.7516 201.208H94.6876L93.3036 203.072L94.7436 205H93.7996L92.8236 203.68L91.8476 205H90.9036ZM96.6937 205.08C96.2883 205.08 95.9843 204.973 95.7817 204.76C95.5843 204.541 95.4857 204.245 95.4857 203.872V201.888H94.9257V201.208H95.4857V200.336L96.3497 200.072V201.208H97.3577L97.3017 201.888H96.3497V203.824C96.3497 204.043 96.4003 204.197 96.5017 204.288C96.603 204.373 96.7683 204.416 96.9977 204.416C97.1417 204.416 97.2937 204.389 97.4537 204.336V204.952C97.2457 205.037 96.9923 205.08 96.6937 205.08ZM101.566 205.08C101.012 205.08 100.566 204.96 100.23 204.72C99.8942 204.475 99.7262 204.149 99.7262 203.744C99.7262 203.381 99.8329 203.075 100.046 202.824C100.265 202.573 100.561 202.347 100.934 202.144C100.726 201.957 100.558 201.773 100.43 201.592C100.308 201.411 100.246 201.197 100.246 200.952C100.246 200.616 100.366 200.336 100.606 200.112C100.846 199.883 101.177 199.768 101.598 199.768C102.014 199.768 102.34 199.877 102.574 200.096C102.814 200.309 102.934 200.595 102.934 200.952C102.934 201.229 102.868 201.467 102.734 201.664C102.601 201.861 102.388 202.056 102.094 202.248L103.278 203.456C103.364 203.275 103.406 203.061 103.406 202.816V202.68H104.07V202.832C104.07 203.035 104.044 203.235 103.99 203.432C103.937 203.624 103.865 203.792 103.774 203.936L104.422 204.592L103.894 205.072L103.318 204.496C103.121 204.699 102.873 204.848 102.574 204.944C102.276 205.035 101.94 205.08 101.566 205.08ZM101.55 201.872C101.78 201.723 101.95 201.589 102.062 201.472C102.174 201.355 102.23 201.195 102.23 200.992C102.23 200.805 102.18 200.659 102.078 200.552C101.982 200.44 101.822 200.384 101.598 200.384C101.369 200.384 101.204 200.443 101.102 200.56C101.001 200.677 100.95 200.821 100.95 200.992C100.95 201.157 100.998 201.307 101.094 201.44C101.196 201.568 101.348 201.712 101.55 201.872ZM101.566 204.472C102.1 204.472 102.508 204.32 102.79 204.016L101.454 202.664C101.156 202.787 100.932 202.933 100.782 203.104C100.638 203.269 100.566 203.477 100.566 203.728C100.566 203.973 100.66 204.16 100.846 204.288C101.033 204.411 101.273 204.472 101.566 204.472ZM46.448 215.08C46.1387 215.08 45.904 215.005 45.744 214.856C45.584 214.701 45.504 214.448 45.504 214.096V209.608H46.376V214.016C46.376 214.165 46.4027 214.267 46.456 214.32C46.5093 214.373 46.5893 214.4 46.696 214.4C46.824 214.4 46.9467 214.384 47.064 214.352V214.984C46.9627 215.021 46.864 215.045 46.768 215.056C46.6773 215.072 46.5707 215.08 46.448 215.08ZM48.8911 215.08C48.6511 215.08 48.4271 215.037 48.2191 214.952C48.0164 214.867 47.8538 214.739 47.7311 214.568C47.6084 214.392 47.5471 214.176 47.5471 213.92C47.5471 213.557 47.6698 213.267 47.9151 213.048C48.1658 212.824 48.5498 212.712 49.0671 212.712H50.2831V212.544C50.2831 212.363 50.2538 212.219 50.1951 212.112C50.1418 212.005 50.0404 211.928 49.8911 211.88C49.7471 211.832 49.5338 211.808 49.2511 211.808C48.8031 211.808 48.3844 211.875 47.9951 212.008V211.36C48.1658 211.291 48.3738 211.235 48.6191 211.192C48.8644 211.149 49.1284 211.128 49.4111 211.128C49.9658 211.128 50.3871 211.24 50.6751 211.464C50.9684 211.688 51.1151 212.053 51.1151 212.56V215H50.3711L50.3151 214.616C50.1604 214.765 49.9684 214.88 49.7391 214.96C49.5151 215.04 49.2324 215.08 48.8911 215.08ZM49.1231 214.456C49.3844 214.456 49.6111 214.413 49.8031 214.328C50.0004 214.237 50.1604 214.117 50.2831 213.968V213.304H49.0831C48.8271 213.304 48.6404 213.355 48.5231 213.456C48.4111 213.552 48.3551 213.701 48.3551 213.904C48.3551 214.101 48.4218 214.243 48.5551 214.328C48.6884 214.413 48.8778 214.456 49.1231 214.456ZM52.043 215V211.208H52.843L52.891 211.648C53.0723 211.531 53.2883 211.424 53.539 211.328C53.7897 211.232 54.0377 211.165 54.283 211.128V211.792C54.1337 211.819 53.971 211.859 53.795 211.912C53.6243 211.96 53.4617 212.016 53.307 212.08C53.1523 212.139 53.0217 212.2 52.915 212.264V215H52.043ZM56.4149 216.408C56.1322 216.408 55.8496 216.389 55.5669 216.352C55.2842 216.32 55.0442 216.269 54.8469 216.2V215.528C55.0602 215.597 55.3056 215.651 55.5829 215.688C55.8602 215.725 56.1242 215.744 56.3749 215.744C56.7589 215.744 57.0389 215.723 57.2149 215.68C57.3909 215.637 57.4789 215.541 57.4789 215.392C57.4789 215.28 57.4362 215.2 57.3509 215.152C57.2656 215.109 57.1029 215.088 56.8629 215.088H55.8389C55.1509 215.088 54.8069 214.845 54.8069 214.36C54.8069 214.205 54.8522 214.061 54.9429 213.928C55.0336 213.795 55.1776 213.693 55.3749 213.624C55.1562 213.517 54.9936 213.371 54.8869 213.184C54.7856 212.997 54.7349 212.773 54.7349 212.512C54.7349 212.027 54.8789 211.675 55.1669 211.456C55.4602 211.237 55.8976 211.128 56.4789 211.128C56.6016 211.128 56.7296 211.139 56.8629 211.16C56.9962 211.176 57.1002 211.192 57.1749 211.208H58.5669L58.5429 211.776H57.9029C58.0042 211.861 58.0789 211.968 58.1269 212.096C58.1749 212.224 58.1989 212.363 58.1989 212.512C58.1989 212.917 58.0762 213.237 57.8309 213.472C57.5856 213.701 57.2149 213.816 56.7189 213.816C56.6336 213.816 56.5536 213.813 56.4789 213.808C56.4096 213.797 56.3322 213.787 56.2469 213.776C56.0869 213.792 55.9429 213.835 55.8149 213.904C55.6869 213.973 55.6229 214.067 55.6229 214.184C55.6229 214.264 55.6549 214.323 55.7189 214.36C55.7829 214.392 55.8896 214.408 56.0389 214.408H57.1029C57.4816 214.408 57.7722 214.491 57.9749 214.656C58.1829 214.816 58.2869 215.051 58.2869 215.36C58.2869 215.733 58.1242 216 57.7989 216.16C57.4789 216.325 57.0176 216.408 56.4149 216.408ZM56.4789 213.264C56.8256 213.264 57.0656 213.205 57.1989 213.088C57.3376 212.971 57.4069 212.771 57.4069 212.488C57.4069 212.205 57.3376 212 57.1989 211.872C57.0656 211.744 56.8256 211.68 56.4789 211.68C56.1536 211.68 55.9162 211.741 55.7669 211.864C55.6176 211.987 55.5429 212.195 55.5429 212.488C55.5429 212.76 55.6122 212.957 55.7509 213.08C55.8949 213.203 56.1376 213.264 56.4789 213.264ZM61.1114 215.08C60.45 215.08 59.938 214.917 59.5754 214.592C59.2127 214.267 59.0314 213.768 59.0314 213.096C59.0314 212.488 59.186 212.008 59.4954 211.656C59.8047 211.304 60.274 211.128 60.9034 211.128C61.4794 211.128 61.9114 211.28 62.1994 211.584C62.4927 211.883 62.6394 212.269 62.6394 212.744V213.448H59.8634C59.906 213.816 60.0394 214.069 60.2634 214.208C60.4874 214.347 60.8287 214.416 61.2874 214.416C61.4794 214.416 61.6767 214.397 61.8794 214.36C62.082 214.323 62.258 214.275 62.4074 214.216V214.856C62.2367 214.931 62.0394 214.987 61.8154 215.024C61.5967 215.061 61.362 215.08 61.1114 215.08ZM59.8634 212.88H61.8714V212.616C61.8714 212.355 61.7994 212.152 61.6554 212.008C61.5114 211.859 61.2687 211.784 60.9274 211.784C60.522 211.784 60.242 211.872 60.0874 212.048C59.938 212.224 59.8634 212.501 59.8634 212.88ZM65.4858 215V211.888H64.9338V211.208H65.4858V210.816C65.4858 210.555 65.5471 210.325 65.6698 210.128C65.7978 209.925 65.9738 209.768 66.1978 209.656C66.4271 209.539 66.6938 209.48 66.9978 209.48C67.1844 209.48 67.3604 209.493 67.5258 209.52C67.6911 209.541 67.8271 209.573 67.9338 209.616V210.264C67.8644 210.232 67.7631 210.208 67.6298 210.192C67.4964 210.176 67.3711 210.168 67.2538 210.168C66.9444 210.168 66.7151 210.221 66.5658 210.328C66.4218 210.435 66.3498 210.603 66.3498 210.832V211.208H68.4858V215H67.6138V211.888H66.3498V215H65.4858ZM70.4009 215.08C70.0915 215.08 69.8569 215.005 69.6969 214.856C69.5369 214.701 69.4569 214.448 69.4569 214.096V209.608H70.3289V214.016C70.3289 214.165 70.3555 214.267 70.4089 214.32C70.4622 214.373 70.5422 214.4 70.6489 214.4C70.7769 214.4 70.8995 214.384 71.0169 214.352V214.984C70.9155 215.021 70.8169 215.045 70.7209 215.056C70.6302 215.072 70.5235 215.08 70.4009 215.08ZM73.58 215.08C72.9186 215.08 72.4066 214.917 72.044 214.592C71.6813 214.267 71.5 213.768 71.5 213.096C71.5 212.488 71.6546 212.008 71.964 211.656C72.2733 211.304 72.7426 211.128 73.372 211.128C73.948 211.128 74.38 211.28 74.668 211.584C74.9613 211.883 75.108 212.269 75.108 212.744V213.448H72.332C72.3746 213.816 72.508 214.069 72.732 214.208C72.956 214.347 73.2973 214.416 73.756 214.416C73.948 214.416 74.1453 214.397 74.348 214.36C74.5506 214.323 74.7266 214.275 74.876 214.216V214.856C74.7053 214.931 74.508 214.987 74.284 215.024C74.0653 215.061 73.8306 215.08 73.58 215.08ZM72.332 212.88H74.34V212.616C74.34 212.355 74.268 212.152 74.124 212.008C73.98 211.859 73.7373 211.784 73.396 211.784C72.9906 211.784 72.7106 211.872 72.556 212.048C72.4066 212.224 72.332 212.501 72.332 212.88ZM77.1427 215.08C76.8813 215.08 76.6307 215.061 76.3907 215.024C76.156 214.987 75.9613 214.941 75.8067 214.888V214.152C75.988 214.221 76.188 214.275 76.4067 214.312C76.6253 214.349 76.8333 214.368 77.0307 214.368C77.3293 214.368 77.5427 214.341 77.6707 214.288C77.7987 214.235 77.8627 214.131 77.8627 213.976C77.8627 213.864 77.8227 213.776 77.7427 213.712C77.668 213.648 77.5533 213.589 77.3987 213.536C77.2493 213.483 77.0573 213.419 76.8227 213.344C76.5987 213.269 76.404 213.189 76.2387 213.104C76.0733 213.013 75.9453 212.899 75.8547 212.76C75.764 212.621 75.7187 212.44 75.7187 212.216C75.7187 211.869 75.844 211.603 76.0947 211.416C76.3453 211.224 76.748 211.128 77.3027 211.128C77.5213 211.128 77.7293 211.144 77.9267 211.176C78.124 211.208 78.292 211.248 78.4307 211.296V212.024C78.2813 211.965 78.116 211.92 77.9347 211.888C77.7587 211.856 77.5933 211.84 77.4387 211.84C77.1613 211.84 76.9507 211.864 76.8067 211.912C76.668 211.96 76.5987 212.056 76.5987 212.2C76.5987 212.349 76.6707 212.456 76.8147 212.52C76.964 212.579 77.2013 212.661 77.5267 212.768C77.8253 212.859 78.0627 212.955 78.2387 213.056C78.4147 213.157 78.54 213.28 78.6147 213.424C78.6947 213.563 78.7347 213.744 78.7347 213.968C78.7347 214.341 78.5987 214.621 78.3267 214.808C78.0547 214.989 77.66 215.08 77.1427 215.08ZM79.3905 215V214.32H80.1265V215H79.3905Z" fill="#737373"/>
</g>
<g opacity="0.5">
<rect x="11.2301" y="185.23" width="27.6138" height="27.1535" rx="3.91196" fill="#30EDE6" fill-opacity="0.2" stroke="url(#paint8_linear_2861_169)" stroke-width="0.46023"/>
<path d="M32.8032 198.577H31.9338C31.8597 196.924 31.1699 195.359 30 194.189C28.8301 193.019 27.2649 192.329 25.6121 192.255V191.386C25.6121 191.309 25.5818 191.236 25.5279 191.182C25.4739 191.128 25.4008 191.098 25.3245 191.098C25.2482 191.098 25.175 191.128 25.1211 191.182C25.0671 191.236 25.0368 191.309 25.0368 191.386V192.255C23.3841 192.329 21.8188 193.019 20.649 194.189C19.4791 195.359 18.7893 196.924 18.7152 198.577H17.8457C17.7695 198.577 17.6963 198.607 17.6424 198.661C17.5884 198.715 17.5581 198.788 17.5581 198.864C17.5581 198.941 17.5884 199.014 17.6424 199.068C17.6963 199.122 17.7695 199.152 17.8457 199.152H18.7152C18.7893 200.805 19.4791 202.37 20.649 203.54C21.8188 204.71 23.3841 205.399 25.0368 205.474V206.343C25.0368 206.419 25.0671 206.492 25.1211 206.546C25.175 206.6 25.2482 206.631 25.3245 206.631C25.4008 206.631 25.4739 206.6 25.5279 206.546C25.5818 206.492 25.6121 206.419 25.6121 206.343V205.474C27.2649 205.399 28.8301 204.71 30 203.54C31.1699 202.37 31.8597 200.805 31.9338 199.152H32.8032C32.8795 199.152 32.9527 199.122 33.0066 199.068C33.0605 199.014 33.0909 198.941 33.0909 198.864C33.0909 198.788 33.0605 198.715 33.0066 198.661C32.9527 198.607 32.8795 198.577 32.8032 198.577ZM25.6121 204.898V204.042C25.6121 203.966 25.5818 203.892 25.5279 203.838C25.4739 203.785 25.4008 203.754 25.3245 203.754C25.2482 203.754 25.175 203.785 25.1211 203.838C25.0671 203.892 25.0368 203.966 25.0368 204.042V204.898C23.5367 204.824 22.1175 204.195 21.0555 203.133C19.9934 202.071 19.3645 200.652 19.2912 199.152H20.1469C20.2232 199.152 20.2963 199.122 20.3503 199.068C20.4042 199.014 20.4345 198.941 20.4345 198.864C20.4345 198.788 20.4042 198.715 20.3503 198.661C20.2963 198.607 20.2232 198.577 20.1469 198.577H19.2912C19.3645 197.076 19.9934 195.657 21.0555 194.595C22.1175 193.533 23.5367 192.904 25.0368 192.831V193.687C25.0368 193.763 25.0671 193.836 25.1211 193.89C25.175 193.944 25.2482 193.974 25.3245 193.974C25.4008 193.974 25.4739 193.944 25.5279 193.89C25.5818 193.836 25.6121 193.763 25.6121 193.687V192.831C27.1123 192.904 28.5314 193.533 29.5935 194.595C30.6555 195.657 31.2844 197.076 31.3578 198.577H30.5021C30.4258 198.577 30.3526 198.607 30.2987 198.661C30.2447 198.715 30.2144 198.788 30.2144 198.864C30.2144 198.941 30.2447 199.014 30.2987 199.068C30.3526 199.122 30.4258 199.152 30.5021 199.152H31.3578C31.2844 200.652 30.6555 202.071 29.5935 203.133C28.5314 204.195 27.1123 204.824 25.6121 204.898ZM25.3245 196.275C24.8125 196.275 24.3119 196.427 23.8862 196.712C23.4605 196.996 23.1287 197.401 22.9327 197.874C22.7368 198.347 22.6855 198.867 22.7854 199.369C22.8853 199.871 23.1319 200.333 23.4939 200.695C23.856 201.057 24.3173 201.303 24.8194 201.403C25.3216 201.503 25.8421 201.452 26.3152 201.256C26.7882 201.06 27.1925 200.728 27.477 200.303C27.7614 199.877 27.9133 199.376 27.9133 198.864C27.9133 198.178 27.6405 197.519 27.155 197.034C26.6695 196.548 26.0111 196.275 25.3245 196.275ZM25.3245 200.878C24.9262 200.878 24.537 200.76 24.2058 200.538C23.8747 200.317 23.6166 200.003 23.4642 199.635C23.3118 199.267 23.272 198.862 23.3497 198.471C23.4274 198.081 23.6191 197.722 23.9007 197.441C24.1823 197.159 24.5411 196.967 24.9317 196.889C25.3222 196.812 25.7271 196.852 26.095 197.004C26.4629 197.156 26.7774 197.415 26.9986 197.746C27.2199 198.077 27.338 198.466 27.338 198.864C27.338 199.398 27.1258 199.91 26.7482 200.288C26.3706 200.666 25.8585 200.878 25.3245 200.878Z" fill="url(#paint9_linear_2861_169)"/>
</g>
<path opacity="0.5" d="M160 200H181.292C185.71 200 189.292 196.418 189.292 192V146C189.292 141.582 192.873 138 197.292 138H224" stroke="url(#paint10_linear_2861_169)" stroke-width="0.920461"/>
<path d="M160 61H181.292C185.71 61 189.292 64.5817 189.292 69V115C189.292 119.418 192.873 123 197.292 123H224" stroke="url(#paint11_linear_2861_169)" stroke-width="0.920461"/>
<g filter="url(#filter1_f_2861_169)">
<path d="M197.8 122.076L191 122.443L198.656 123.064C199.221 123.11 199.767 123.285 200.252 123.576L201.665 124.424C201.76 124.481 201.823 124.579 201.835 124.689L201.905 125.32C201.945 125.681 202.475 125.67 202.499 125.307C202.503 125.24 202.53 125.178 202.574 125.128L203.354 124.251C203.991 123.534 204.88 123.09 205.837 123.013L212.861 122.443L205.95 122.07C204.923 122.014 203.96 121.554 203.273 120.79C202.631 120.076 202.276 119.151 202.276 118.191V116L202.006 118.156C201.883 119.145 201.433 120.064 200.728 120.769C199.946 121.551 198.904 122.016 197.8 122.076Z" fill="#30EDE6"/>
</g>
<path opacity="0.75" d="M160 130H222" stroke="url(#paint12_linear_2861_169)" stroke-width="0.920461"/>
<path d="M243.932 105.23C257.022 105.23 267.634 115.842 267.634 128.932C267.634 142.022 257.022 152.634 243.932 152.634C230.842 152.634 220.23 142.022 220.23 128.932C220.231 115.842 230.842 105.231 243.932 105.23Z" fill="#018284" stroke="url(#paint13_linear_2861_169)" stroke-width="0.46023"/>
<path d="M255.668 127.685V130.012C254.769 130.012 254.038 130.745 254.038 131.648V135.397C254.038 137.417 252.397 139.057 250.383 139.057H245.305L246.699 136.73H250.383C251.118 136.73 251.715 136.132 251.715 135.397V131.648C251.715 130.554 252.158 129.568 252.871 128.849C252.158 128.132 251.715 127.143 251.715 126.052V122.246C251.715 121.513 251.118 120.915 250.383 120.915H246.53C245.796 120.915 245.199 121.513 245.199 122.246L245.199 127.685H248.618V130.012H245.199V135.397C245.199 137.417 243.561 139.057 241.547 139.057H237.693C235.679 139.057 234.039 137.417 234.039 135.397V131.648C234.039 130.745 233.307 130.012 232.408 130.012V127.685C233.307 127.685 234.039 126.952 234.039 126.052L234.039 122.246C234.039 120.228 235.679 118.588 237.693 118.588H242.771L241.377 120.915H237.693C236.959 120.915 236.362 121.513 236.362 122.246L236.362 126.052C236.362 127.143 235.918 128.132 235.205 128.849C235.918 129.568 236.362 130.554 236.362 131.648V135.397C236.362 136.132 236.959 136.73 237.693 136.73H241.547C242.279 136.73 242.876 136.132 242.876 135.397L242.876 122.246C242.876 120.228 244.516 118.588 246.53 118.588H250.383C252.397 118.588 254.038 120.228 254.038 122.246L254.038 126.052C254.038 126.952 254.769 127.685 255.668 127.685Z" fill="white"/>
<defs>
<filter id="filter0_f_2861_169" x="263.159" y="120.173" width="25.5432" height="13.2668" filterUnits="userSpaceOnUse" color-interpolation-filters="sRGB">
<feFlood flood-opacity="0" result="BackgroundImageFix"/>
<feBlend mode="normal" in="SourceGraphic" in2="BackgroundImageFix" result="shape"/>
<feGaussianBlur stdDeviation="0.920461" result="effect1_foregroundBlur_2861_169"/>
</filter>
<filter id="filter1_f_2861_169" x="189.159" y="114.159" width="25.5432" height="13.2668" filterUnits="userSpaceOnUse" color-interpolation-filters="sRGB">
<feFlood flood-opacity="0" result="BackgroundImageFix"/>
<feBlend mode="normal" in="SourceGraphic" in2="BackgroundImageFix" result="shape"/>
<feGaussianBlur stdDeviation="0.920461" result="effect1_foregroundBlur_2861_169"/>
</filter>
<linearGradient id="paint0_linear_2861_169" x1="5.85455" y1="36" x2="115.812" y2="66.0358" gradientUnits="userSpaceOnUse">
<stop stop-color="#30EDE6"/>
<stop offset="1" stop-color="#666666"/>
</linearGradient>
<linearGradient id="paint1_linear_2861_169" x1="31.4802" y1="77.3751" x2="10.0092" y2="76.6578" gradientUnits="userSpaceOnUse">
<stop stop-color="#30EDE6"/>
<stop offset="1" stop-color="#666666"/>
</linearGradient>
<linearGradient id="paint2_linear_2861_169" x1="25.0368" y1="54.3638" x2="25.0368" y2="66.79" gradientUnits="userSpaceOnUse">
<stop stop-color="#00A6A6"/>
<stop offset="1" stop-color="#076568"/>
</linearGradient>
<linearGradient id="paint3_linear_2861_169" x1="5.85455" y1="105" x2="115.812" y2="135.036" gradientUnits="userSpaceOnUse">
<stop stop-color="#30EDE6"/>
<stop offset="1" stop-color="#666666"/>
</linearGradient>
<linearGradient id="paint4_linear_2861_169" x1="39.074" y1="146.835" x2="20.8662" y2="141.15" gradientUnits="userSpaceOnUse">
<stop stop-color="#30EDE6"/>
<stop offset="1" stop-color="#666666"/>
</linearGradient>
<linearGradient id="paint5_linear_2861_169" x1="25.3244" y1="126.009" x2="25.3244" y2="135.79" gradientUnits="userSpaceOnUse">
<stop stop-color="#00A6A6"/>
<stop offset="1" stop-color="#076568"/>
</linearGradient>
<linearGradient id="paint6_linear_2861_169" x1="282.725" y1="114.204" x2="1.36895e+12" y2="8.53219e+14" gradientUnits="userSpaceOnUse">
<stop stop-color="#30EDE6"/>
<stop offset="1" stop-color="#666666"/>
</linearGradient>
<linearGradient id="paint7_linear_2861_169" x1="5.85455" y1="174" x2="115.812" y2="204.036" gradientUnits="userSpaceOnUse">
<stop stop-color="#30EDE6"/>
<stop offset="1" stop-color="#666666"/>
</linearGradient>
<linearGradient id="paint8_linear_2861_169" x1="34.2416" y1="212.614" x2="14.6629" y2="215.266" gradientUnits="userSpaceOnUse">
<stop stop-color="#30EDE6"/>
<stop offset="1" stop-color="#666666"/>
</linearGradient>
<linearGradient id="paint9_linear_2861_169" x1="25.3245" y1="191.098" x2="25.3245" y2="206.631" gradientUnits="userSpaceOnUse">
<stop stop-color="#00A6A6"/>
<stop offset="1" stop-color="#076568"/>
</linearGradient>
<linearGradient id="paint10_linear_2861_169" x1="190.212" y1="210.353" x2="190.212" y2="37.3376" gradientUnits="userSpaceOnUse">
<stop stop-color="#30EDE6"/>
<stop offset="1" stop-color="#666666"/>
</linearGradient>
<linearGradient id="paint11_linear_2861_169" x1="190.212" y1="50.6468" x2="190.212" y2="223.662" gradientUnits="userSpaceOnUse">
<stop stop-color="#30EDE6"/>
<stop offset="1" stop-color="#666666"/>
</linearGradient>
<linearGradient id="paint12_linear_2861_169" x1="189.268" y1="129.833" x2="189.268" y2="132.624" gradientUnits="userSpaceOnUse">
<stop stop-color="#30EDE6"/>
<stop offset="1" stop-color="#666666"/>
</linearGradient>
<linearGradient id="paint13_linear_2861_169" x1="243.932" y1="105" x2="243.932" y2="152.864" gradientUnits="userSpaceOnUse">
<stop stop-color="#30EDE6"/>
<stop offset="0.5" stop-color="#CCCCCC"/>
<stop offset="1" stop-color="#999999"/>
</linearGradient>
</defs>
</svg>
