<svg width="340" height="258" viewBox="0 0 340 258" fill="none" xmlns="http://www.w3.org/2000/svg">
<rect x="15.8301" y="27.25" width="307.534" height="190.417" rx="3.78838" fill="white" stroke="#D4D4D4" stroke-width="0.5"/>
<path d="M31.5682 97.1757H31.6728V91.3926H32.4044V97.4893H30.9412L29.1819 91.7062H29.0773V97.4893H28.3458V91.3926H29.8089L31.5682 97.1757ZM34.2012 95.5383C34.2186 95.968 34.3521 96.3135 34.6018 96.5748C34.8515 96.836 35.1998 96.9667 35.6469 96.9667C35.8501 96.9667 36.0272 96.9435 36.1782 96.897C36.3292 96.8506 36.4569 96.7867 36.5614 96.7054C36.6717 96.6241 36.7588 96.5312 36.8227 96.4267C36.8924 96.3164 36.9475 96.2003 36.9882 96.0783L37.6327 96.2525C37.5107 96.6532 37.2843 96.9812 36.9533 97.2367C36.6282 97.4864 36.1869 97.6112 35.6295 97.6112C35.3218 97.6112 35.0373 97.5589 34.776 97.4544C34.5205 97.3441 34.2999 97.1902 34.1141 96.9928C33.9283 96.7954 33.7831 96.5603 33.6786 96.2874C33.5741 96.0145 33.5218 95.7125 33.5218 95.3816V95.1725C33.5218 94.8706 33.5741 94.589 33.6786 94.3277C33.7889 94.0664 33.9399 93.8429 34.1315 93.6571C34.3231 93.4655 34.5466 93.3174 34.8021 93.2129C35.0634 93.1026 35.345 93.0474 35.6469 93.0474C36.0011 93.0474 36.3059 93.1142 36.5614 93.2478C36.8227 93.3755 37.0346 93.5352 37.1972 93.7268C37.3656 93.9184 37.4875 94.1274 37.563 94.3539C37.6443 94.5803 37.6849 94.7893 37.6849 94.9809V95.5383H34.2012ZM35.6469 93.6919C35.4553 93.6919 35.2753 93.7239 35.1069 93.7877C34.9444 93.8458 34.7992 93.93 34.6715 94.0403C34.5495 94.1506 34.4479 94.2813 34.3666 94.4322C34.2912 94.5774 34.2418 94.7371 34.2186 94.9113H37.0056C36.994 94.7255 36.9475 94.5571 36.8662 94.4061C36.7908 94.2551 36.6892 94.1274 36.5614 94.0229C36.4395 93.9184 36.2972 93.8371 36.1347 93.779C35.9779 93.721 35.8153 93.6919 35.6469 93.6919ZM42.6781 97.4893H41.4239L40.9014 93.4829H40.7969L40.2743 97.4893H39.0201L38.3408 93.1694H39.0375L39.6124 97.1757H39.7169L40.222 93.1694H41.4762L41.9813 97.1757H42.0859L42.6607 93.1694H43.3574L42.6781 97.4893ZM51.358 96.9319C51.6077 96.9319 51.8196 96.8912 51.9938 96.8099C52.1738 96.7228 52.319 96.6096 52.4293 96.4703C52.5454 96.3251 52.6296 96.1625 52.6819 95.9825C52.7399 95.7967 52.7689 95.6022 52.7689 95.399V95.2945H53.5005V95.399C53.5005 95.7067 53.4541 95.997 53.3612 96.2699C53.2683 96.537 53.1318 96.7722 52.9518 96.9754C52.7718 97.1728 52.5483 97.3296 52.2812 97.4457C52.0141 97.556 51.7064 97.6112 51.358 97.6112C50.6845 97.6112 50.159 97.3993 49.7816 96.9754C49.4042 96.5515 49.2155 95.9332 49.2155 95.1203V93.7616C49.2155 92.972 49.4042 92.3594 49.7816 91.9239C50.159 91.4884 50.6845 91.2707 51.358 91.2707C51.7064 91.2707 52.0141 91.3288 52.2812 91.4449C52.5483 91.5552 52.7718 91.712 52.9518 91.9152C53.1318 92.1126 53.2683 92.3478 53.3612 92.6207C53.4541 92.8878 53.5005 93.1752 53.5005 93.4829V93.5874H52.7689V93.4829C52.7631 93.2855 52.7312 93.0939 52.6731 92.9081C52.6209 92.7223 52.5367 92.5597 52.4206 92.4204C52.3102 92.2752 52.168 92.162 51.9938 92.0807C51.8196 91.9936 51.6077 91.95 51.358 91.95C50.8877 91.95 50.5335 92.1213 50.2955 92.4639C50.0632 92.8065 49.9471 93.2565 49.9471 93.8139V95.068C49.9471 95.6661 50.0632 96.1277 50.2955 96.4528C50.5335 96.7722 50.8877 96.9319 51.358 96.9319ZM58.7289 95.3816C58.7289 95.7416 58.6679 96.0609 58.546 96.3396C58.4298 96.6125 58.2731 96.8448 58.0757 97.0364C57.8782 97.2222 57.646 97.3644 57.3789 97.4631C57.1176 97.5618 56.8447 97.6112 56.5602 97.6112C56.2699 97.6112 55.9941 97.5618 55.7328 97.4631C55.4715 97.3644 55.2422 97.2222 55.0448 97.0364C54.8473 96.8448 54.6877 96.6125 54.5657 96.3396C54.4496 96.0609 54.3916 95.7416 54.3916 95.3816V95.2771C54.3916 94.9229 54.4496 94.6093 54.5657 94.3364C54.6877 94.0577 54.8473 93.8226 55.0448 93.631C55.248 93.4394 55.4802 93.2942 55.7415 93.1955C56.0028 93.0968 56.2757 93.0474 56.5602 93.0474C56.8447 93.0474 57.1176 93.0968 57.3789 93.1955C57.6402 93.2942 57.8695 93.4394 58.0669 93.631C58.2702 93.8226 58.4298 94.0577 58.546 94.3364C58.6679 94.6093 58.7289 94.9229 58.7289 95.2771V95.3816ZM56.5602 96.9667C56.7692 96.9667 56.9608 96.9319 57.135 96.8622C57.315 96.7867 57.4718 96.6793 57.6053 96.5399C57.7389 96.4006 57.8434 96.2351 57.9189 96.0435C57.9944 95.8461 58.0321 95.6254 58.0321 95.3816V95.2771C58.0321 95.0448 57.9944 94.8329 57.9189 94.6413C57.8434 94.4439 57.7389 94.2755 57.6053 94.1361C57.4718 93.9968 57.315 93.8894 57.135 93.8139C56.955 93.7326 56.7634 93.6919 56.5602 93.6919C56.357 93.6919 56.1654 93.7326 55.9854 93.8139C55.8054 93.8894 55.6486 93.9968 55.5151 94.1361C55.3815 94.2755 55.277 94.4439 55.2015 94.6413C55.1261 94.8329 55.0883 95.0448 55.0883 95.2771V95.3816C55.0883 95.6254 55.1261 95.8461 55.2015 96.0435C55.277 96.2351 55.3815 96.4006 55.5151 96.5399C55.6486 96.6793 55.8025 96.7867 55.9767 96.8622C56.1567 96.9319 56.3512 96.9667 56.5602 96.9667ZM60.5692 97.4893H59.8899V93.1694H60.5692V93.901H60.6737C60.9408 93.3319 61.4053 93.0474 62.0672 93.0474C62.5666 93.0474 62.9643 93.2042 63.2604 93.5177C63.5565 93.8255 63.7046 94.29 63.7046 94.9113V97.4893H63.0253V95.0506C63.0253 94.5977 62.9237 94.2581 62.7204 94.0316C62.5172 93.8052 62.2414 93.6919 61.893 93.6919C61.4808 93.6919 61.1556 93.8342 60.9176 94.1187C60.6853 94.3974 60.5692 94.7719 60.5692 95.2422V97.4893ZM67.6962 97.4893H66.3549L64.8482 93.1694H65.6495L66.9733 97.1757H67.0778L68.4017 93.1694H69.2029L67.6962 97.4893ZM70.8604 95.5383C70.8778 95.968 71.0113 96.3135 71.261 96.5748C71.5107 96.836 71.8591 96.9667 72.3061 96.9667C72.5094 96.9667 72.6865 96.9435 72.8374 96.897C72.9884 96.8506 73.1161 96.7867 73.2206 96.7054C73.331 96.6241 73.418 96.5312 73.4819 96.4267C73.5516 96.3164 73.6068 96.2003 73.6474 96.0783L74.2919 96.2525C74.17 96.6532 73.9435 96.9812 73.6126 97.2367C73.2874 97.4864 72.8461 97.6112 72.2887 97.6112C71.981 97.6112 71.6965 97.5589 71.4352 97.4544C71.1797 97.3441 70.9591 97.1902 70.7733 96.9928C70.5875 96.7954 70.4423 96.5603 70.3378 96.2874C70.2333 96.0145 70.181 95.7125 70.181 95.3816V95.1725C70.181 94.8706 70.2333 94.589 70.3378 94.3277C70.4481 94.0664 70.5991 93.8429 70.7907 93.6571C70.9823 93.4655 71.2058 93.3174 71.4613 93.2129C71.7226 93.1026 72.0042 93.0474 72.3061 93.0474C72.6603 93.0474 72.9652 93.1142 73.2206 93.2478C73.4819 93.3755 73.6938 93.5352 73.8564 93.7268C74.0248 93.9184 74.1467 94.1274 74.2222 94.3539C74.3035 94.5803 74.3442 94.7893 74.3442 94.9809V95.5383H70.8604ZM72.3061 93.6919C72.1145 93.6919 71.9345 93.7239 71.7662 93.7877C71.6036 93.8458 71.4584 93.93 71.3307 94.0403C71.2088 94.1506 71.1071 94.2813 71.0259 94.4322C70.9504 94.5774 70.901 94.7371 70.8778 94.9113H73.6648C73.6532 94.7255 73.6068 94.5571 73.5255 94.4061C73.45 94.2551 73.3484 94.1274 73.2206 94.0229C73.0987 93.9184 72.9564 93.8371 72.7939 93.779C72.6371 93.721 72.4745 93.6919 72.3061 93.6919ZM75.3571 93.1694H76.9248V93.7442H77.0293C77.1396 93.5061 77.2964 93.3319 77.4996 93.2216C77.7028 93.1055 77.9351 93.0474 78.1964 93.0474C78.6319 93.0474 78.9831 93.1897 79.2502 93.4742C79.5173 93.7587 79.6596 94.1739 79.677 94.7197L78.9628 94.8242C78.9628 94.4235 78.867 94.1361 78.6754 93.9619C78.4838 93.7819 78.2486 93.6919 77.9699 93.6919C77.7899 93.6919 77.6332 93.7268 77.4996 93.7965C77.3719 93.8661 77.2645 93.9619 77.1774 94.0839C77.0903 94.2058 77.0264 94.3481 76.9858 94.5106C76.9451 94.6732 76.9248 94.8474 76.9248 95.0332V96.8622H78.0222V97.4893H75.2526V96.8622H76.2455V93.7965H75.3571V93.1694ZM81.7351 94.2842C81.7351 94.4932 81.8222 94.6529 81.9964 94.7632C82.1763 94.8735 82.5015 94.9461 82.9718 94.9809C83.477 95.0216 83.8602 95.1435 84.1215 95.3467C84.3885 95.5441 84.5221 95.8345 84.5221 96.2177V96.2699C84.5221 96.479 84.4785 96.6677 84.3914 96.836C84.3102 96.9986 84.194 97.138 84.0431 97.2541C83.8979 97.3702 83.7179 97.4573 83.5031 97.5154C83.2941 97.5793 83.0647 97.6112 82.815 97.6112C82.4783 97.6112 82.188 97.5676 81.9441 97.4805C81.706 97.3876 81.5057 97.2686 81.3431 97.1235C81.1864 96.9725 81.0673 96.8041 80.9861 96.6183C80.9048 96.4267 80.8583 96.2351 80.8467 96.0435L81.4912 95.8867C81.5202 96.2177 81.648 96.4848 81.8744 96.688C82.1009 96.8854 82.4028 96.9841 82.7802 96.9841C83.0995 96.9841 83.355 96.9231 83.5466 96.8012C83.744 96.6735 83.8428 96.4964 83.8428 96.2699C83.8428 96.0261 83.7469 95.8519 83.5553 95.7474C83.3637 95.6429 83.0531 95.5761 82.6234 95.5471C82.1241 95.5122 81.7409 95.3961 81.4738 95.1987C81.2067 95.0013 81.0731 94.7138 81.0731 94.3364V94.2842C81.0731 94.081 81.1167 93.9039 81.2038 93.7529C81.2909 93.5961 81.407 93.4655 81.5522 93.361C81.7031 93.2565 81.8715 93.1781 82.0573 93.1258C82.2431 93.0736 82.4376 93.0474 82.6409 93.0474C82.9254 93.0474 83.175 93.0881 83.3899 93.1694C83.6047 93.2449 83.7847 93.3465 83.9298 93.4742C84.075 93.5961 84.1853 93.7384 84.2608 93.901C84.3421 94.0635 84.3944 94.2261 84.4176 94.3887L83.7731 94.5455C83.744 94.2668 83.6308 94.049 83.4334 93.8923C83.2418 93.7355 82.9892 93.6571 82.6757 93.6571C82.5538 93.6571 82.4347 93.6716 82.3186 93.7006C82.2083 93.7239 82.1096 93.7616 82.0225 93.8139C81.9354 93.8661 81.8657 93.9329 81.8135 94.0142C81.7612 94.0897 81.7351 94.1797 81.7351 94.2842ZM89.2104 96.7577H89.1059C88.9666 97.048 88.7721 97.2628 88.5224 97.4022C88.2785 97.5415 88.0201 97.6112 87.7472 97.6112C87.4627 97.6112 87.1985 97.5647 86.9547 97.4718C86.7108 97.3731 86.496 97.2309 86.3102 97.0451C86.1302 96.8535 85.9879 96.6212 85.8834 96.3483C85.7789 96.0754 85.7267 95.759 85.7267 95.399V95.2596C85.7267 94.9055 85.7789 94.5919 85.8834 94.319C85.9879 94.0461 86.1302 93.8168 86.3102 93.631C86.496 93.4394 86.7108 93.2942 86.9547 93.1955C87.1985 93.0968 87.4569 93.0474 87.7298 93.0474C88.0259 93.0474 88.293 93.1142 88.5311 93.2478C88.775 93.3755 88.9666 93.5758 89.1059 93.8487H89.2104V93.1694H89.8898V96.6009C89.8898 96.7751 89.9682 96.8622 90.1249 96.8622H90.3427V97.4893H89.8811C89.6836 97.4893 89.5211 97.4254 89.3933 97.2976C89.2714 97.1699 89.2104 97.0073 89.2104 96.8099V96.7577ZM87.8169 96.9667C88.0201 96.9667 88.2059 96.929 88.3743 96.8535C88.5485 96.778 88.6966 96.6706 88.8185 96.5312C88.9404 96.3919 89.0362 96.2264 89.1059 96.0348C89.1756 95.8374 89.2104 95.6196 89.2104 95.3816V95.2771C89.2104 95.0448 89.1756 94.8329 89.1059 94.6413C89.0362 94.4439 88.9375 94.2755 88.8098 94.1361C88.6879 93.9968 88.5398 93.8894 88.3656 93.8139C88.1972 93.7326 88.0143 93.6919 87.8169 93.6919C87.6137 93.6919 87.4279 93.7297 87.2595 93.8052C87.0911 93.8806 86.9431 93.9881 86.8153 94.1274C86.6934 94.261 86.5976 94.4264 86.5279 94.6238C86.4582 94.8155 86.4234 95.0274 86.4234 95.2596V95.399C86.4234 95.8925 86.5511 96.2786 86.8066 96.5573C87.0679 96.8302 87.4047 96.9667 87.8169 96.9667ZM91.164 93.1694H92.5227V91.3926H93.202V93.1694H94.8742V93.7965H93.202V96.6009C93.202 96.7751 93.2804 96.8622 93.4372 96.8622H94.6652V97.4893H93.1933C92.9959 97.4893 92.8333 97.4254 92.7056 97.2976C92.5836 97.1699 92.5227 97.0073 92.5227 96.8099V93.7965H91.164V93.1694ZM97.8903 91.8804C97.8903 91.712 97.9484 91.5697 98.0645 91.4536C98.1865 91.3317 98.3316 91.2707 98.5 91.2707C98.6684 91.2707 98.8106 91.3317 98.9268 91.4536C99.0487 91.5697 99.1097 91.712 99.1097 91.8804C99.1097 92.0488 99.0487 92.1939 98.9268 92.3158C98.8106 92.432 98.6684 92.49 98.5 92.49C98.3316 92.49 98.1865 92.432 98.0645 92.3158C97.9484 92.1939 97.8903 92.0488 97.8903 91.8804ZM96.6536 96.8622H98.169V93.7965H96.8104V93.1694H98.8484V96.8622H100.259V97.4893H96.6536V96.8622ZM105.862 95.3816C105.862 95.7416 105.801 96.0609 105.679 96.3396C105.563 96.6125 105.406 96.8448 105.209 97.0364C105.012 97.2222 104.779 97.3644 104.512 97.4631C104.251 97.5618 103.978 97.6112 103.693 97.6112C103.403 97.6112 103.127 97.5618 102.866 97.4631C102.605 97.3644 102.375 97.2222 102.178 97.0364C101.981 96.8448 101.821 96.6125 101.699 96.3396C101.583 96.0609 101.525 95.7416 101.525 95.3816V95.2771C101.525 94.9229 101.583 94.6093 101.699 94.3364C101.821 94.0577 101.981 93.8226 102.178 93.631C102.381 93.4394 102.614 93.2942 102.875 93.1955C103.136 93.0968 103.409 93.0474 103.693 93.0474C103.978 93.0474 104.251 93.0968 104.512 93.1955C104.773 93.2942 105.003 93.4394 105.2 93.631C105.403 93.8226 105.563 94.0577 105.679 94.3364C105.801 94.6093 105.862 94.9229 105.862 95.2771V95.3816ZM103.693 96.9667C103.903 96.9667 104.094 96.9319 104.268 96.8622C104.448 96.7867 104.605 96.6793 104.739 96.5399C104.872 96.4006 104.977 96.2351 105.052 96.0435C105.128 95.8461 105.165 95.6254 105.165 95.3816V95.2771C105.165 95.0448 105.128 94.8329 105.052 94.6413C104.977 94.4439 104.872 94.2755 104.739 94.1361C104.605 93.9968 104.448 93.8894 104.268 93.8139C104.088 93.7326 103.897 93.6919 103.693 93.6919C103.49 93.6919 103.299 93.7326 103.119 93.8139C102.939 93.8894 102.782 93.9968 102.648 94.1361C102.515 94.2755 102.41 94.4439 102.335 94.6413C102.259 94.8329 102.222 95.0448 102.222 95.2771V95.3816C102.222 95.6254 102.259 95.8461 102.335 96.0435C102.41 96.2351 102.515 96.4006 102.648 96.5399C102.782 96.6793 102.936 96.7867 103.11 96.8622C103.29 96.9319 103.484 96.9667 103.693 96.9667ZM107.702 97.4893H107.023V93.1694H107.702V93.901H107.807C108.074 93.3319 108.539 93.0474 109.201 93.0474C109.7 93.0474 110.098 93.2042 110.394 93.5177C110.69 93.8255 110.838 94.29 110.838 94.9113V97.4893H110.159V95.0506C110.159 94.5977 110.057 94.2581 109.854 94.0316C109.65 93.8052 109.375 93.6919 109.026 93.6919C108.614 93.6919 108.289 93.8342 108.051 94.1187C107.819 94.3974 107.702 94.7719 107.702 95.2422V97.4893Z" fill="#737373"/>
<path d="M29.7915 109.429H32.5089V112.355H31.8295V111.624H31.725C31.6263 111.879 31.4521 112.085 31.2024 112.242C30.9528 112.399 30.6625 112.477 30.3315 112.477C29.6754 112.477 29.1586 112.265 28.7812 111.842C28.4096 111.418 28.2238 110.799 28.2238 109.986V108.628C28.2238 107.838 28.4125 107.226 28.7899 106.79C29.1673 106.355 29.6928 106.137 30.3663 106.137C30.7147 106.137 31.0225 106.195 31.2895 106.311C31.5566 106.421 31.7802 106.578 31.9602 106.781C32.1402 106.979 32.2766 107.214 32.3695 107.487C32.4624 107.754 32.5089 108.041 32.5089 108.349V108.454H31.7773V108.349C31.7773 108.152 31.7482 107.96 31.6902 107.774C31.6379 107.588 31.5537 107.426 31.4376 107.287C31.3273 107.141 31.1821 107.028 31.0021 106.947C30.8279 106.86 30.616 106.816 30.3663 106.816C29.896 106.816 29.5418 106.988 29.3038 107.33C29.0715 107.673 28.9554 108.123 28.9554 108.68V109.934C28.9554 110.532 29.0715 110.994 29.3038 111.319C29.5418 111.638 29.9018 111.798 30.3838 111.798C30.8192 111.798 31.1589 111.659 31.4028 111.38C31.6524 111.101 31.7773 110.712 31.7773 110.213V110.108H29.7915V109.429ZM34.2012 110.405C34.2186 110.834 34.3521 111.18 34.6018 111.441C34.8515 111.702 35.1998 111.833 35.6469 111.833C35.8501 111.833 36.0272 111.81 36.1782 111.763C36.3292 111.717 36.4569 111.653 36.5614 111.572C36.6717 111.49 36.7588 111.397 36.8227 111.293C36.8924 111.183 36.9475 111.066 36.9882 110.945L37.6327 111.119C37.5107 111.519 37.2843 111.847 36.9533 112.103C36.6282 112.353 36.1869 112.477 35.6295 112.477C35.3218 112.477 35.0373 112.425 34.776 112.321C34.5205 112.21 34.2999 112.056 34.1141 111.859C33.9283 111.662 33.7831 111.426 33.6786 111.154C33.5741 110.881 33.5218 110.579 33.5218 110.248V110.039C33.5218 109.737 33.5741 109.455 33.6786 109.194C33.7889 108.933 33.9399 108.709 34.1315 108.523C34.3231 108.332 34.5466 108.184 34.8021 108.079C35.0634 107.969 35.345 107.914 35.6469 107.914C36.0011 107.914 36.3059 107.98 36.5614 108.114C36.8227 108.242 37.0346 108.401 37.1972 108.593C37.3656 108.785 37.4875 108.994 37.563 109.22C37.6443 109.447 37.6849 109.656 37.6849 109.847V110.405H34.2012ZM35.6469 108.558C35.4553 108.558 35.2753 108.59 35.1069 108.654C34.9444 108.712 34.7992 108.796 34.6715 108.907C34.5495 109.017 34.4479 109.147 34.3666 109.298C34.2912 109.444 34.2418 109.603 34.2186 109.777H37.0056C36.994 109.592 36.9475 109.423 36.8662 109.272C36.7908 109.121 36.6892 108.994 36.5614 108.889C36.4395 108.785 36.2972 108.703 36.1347 108.645C35.9779 108.587 35.8153 108.558 35.6469 108.558ZM38.7937 108.036H40.1524V106.259H40.8317V108.036H42.5039V108.663H40.8317V111.467C40.8317 111.641 40.9101 111.728 41.0669 111.728H42.2949V112.355H40.823C40.6256 112.355 40.463 112.292 40.3353 112.164C40.2133 112.036 40.1524 111.874 40.1524 111.676V108.663H38.7937V108.036ZM52.7602 108.018C52.7602 107.821 52.7196 107.647 52.6383 107.496C52.5628 107.345 52.4583 107.22 52.3248 107.121C52.1912 107.022 52.0374 106.947 51.8632 106.895C51.689 106.842 51.5061 106.816 51.3145 106.816C51.1461 106.816 50.9864 106.839 50.8354 106.886C50.6845 106.927 50.548 106.988 50.4261 107.069C50.31 107.15 50.2171 107.252 50.1474 107.374C50.0777 107.49 50.0429 107.626 50.0429 107.783V107.835C50.0429 108.004 50.0777 108.149 50.1474 108.271C50.2171 108.387 50.3187 108.488 50.4522 108.576C50.5916 108.657 50.7629 108.727 50.9661 108.785C51.1693 108.837 51.4074 108.883 51.6803 108.924C52.319 109.023 52.7893 109.211 53.0912 109.49C53.3931 109.763 53.5441 110.132 53.5441 110.596V110.701C53.5441 110.962 53.4976 111.203 53.4047 111.424C53.3176 111.638 53.1841 111.824 53.0041 111.981C52.8299 112.138 52.6122 112.26 52.3509 112.347C52.0896 112.434 51.7877 112.477 51.4451 112.477C51.0561 112.477 50.7106 112.422 50.4087 112.312C50.1126 112.196 49.8629 112.039 49.6597 111.842C49.4623 111.638 49.3113 111.403 49.2068 111.136C49.1023 110.863 49.05 110.567 49.05 110.248V109.986H49.7816V110.196C49.7816 110.73 49.9268 111.13 50.2171 111.397C50.5132 111.665 50.9225 111.798 51.4451 111.798C51.898 111.798 52.2377 111.699 52.4641 111.502C52.6964 111.299 52.8125 111.032 52.8125 110.701V110.648C52.8125 110.329 52.6935 110.085 52.4554 109.917C52.2232 109.748 51.8428 109.627 51.3145 109.551C51.0067 109.51 50.728 109.449 50.4784 109.368C50.2345 109.281 50.0255 109.171 49.8513 109.037C49.6771 108.898 49.5435 108.732 49.4506 108.541C49.3577 108.349 49.3113 108.123 49.3113 107.861V107.757C49.3113 107.519 49.3606 107.301 49.4594 107.104C49.5581 106.906 49.6945 106.735 49.8687 106.59C50.0487 106.445 50.2606 106.334 50.5045 106.259C50.7542 106.178 51.0271 106.137 51.3232 106.137C51.6657 106.137 51.9706 106.186 52.2377 106.285C52.5106 106.384 52.7399 106.517 52.9257 106.686C53.1115 106.848 53.2509 107.043 53.3438 107.269C53.4425 107.49 53.4918 107.722 53.4918 107.966V108.332H52.7602V108.018ZM54.5048 108.036H55.8635V106.259H56.5428V108.036H58.215V108.663H56.5428V111.467C56.5428 111.641 56.6212 111.728 56.7779 111.728H58.006V112.355H56.5341C56.3367 112.355 56.1741 112.292 56.0464 112.164C55.9244 112.036 55.8635 111.874 55.8635 111.676V108.663H54.5048V108.036ZM63.0253 111.624H62.9208C62.7814 111.914 62.5869 112.129 62.3372 112.268C62.0934 112.408 61.835 112.477 61.5621 112.477C61.2776 112.477 61.0134 112.431 60.7695 112.338C60.5257 112.239 60.3108 112.097 60.125 111.911C59.945 111.72 59.8028 111.487 59.6983 111.215C59.5937 110.942 59.5415 110.625 59.5415 110.265V110.126C59.5415 109.772 59.5937 109.458 59.6983 109.185C59.8028 108.912 59.945 108.683 60.125 108.497C60.3108 108.306 60.5257 108.16 60.7695 108.062C61.0134 107.963 61.2718 107.914 61.5447 107.914C61.8408 107.914 62.1079 107.98 62.3459 108.114C62.5898 108.242 62.7814 108.442 62.9208 108.715H63.0253V108.036H63.7046V111.467C63.7046 111.641 63.783 111.728 63.9398 111.728H64.1575V112.355H63.6959C63.4985 112.355 63.3359 112.292 63.2082 112.164C63.0862 112.036 63.0253 111.874 63.0253 111.676V111.624ZM61.6318 111.833C61.835 111.833 62.0208 111.795 62.1892 111.72C62.3634 111.644 62.5114 111.537 62.6333 111.397C62.7553 111.258 62.8511 111.093 62.9208 110.901C62.9904 110.704 63.0253 110.486 63.0253 110.248V110.143C63.0253 109.911 62.9904 109.699 62.9208 109.507C62.8511 109.31 62.7524 109.142 62.6246 109.002C62.5027 108.863 62.3546 108.756 62.1805 108.68C62.0121 108.599 61.8292 108.558 61.6318 108.558C61.4285 108.558 61.2427 108.596 61.0744 108.671C60.906 108.747 60.7579 108.854 60.6302 108.994C60.5082 109.127 60.4124 109.293 60.3428 109.49C60.2731 109.682 60.2382 109.894 60.2382 110.126V110.265C60.2382 110.759 60.366 111.145 60.6215 111.424C60.8827 111.696 61.2195 111.833 61.6318 111.833ZM64.883 108.036H66.4507V108.61H66.5553C66.6656 108.372 66.8223 108.198 67.0256 108.088C67.2288 107.972 67.461 107.914 67.7223 107.914C68.1578 107.914 68.5091 108.056 68.7762 108.34C69.0432 108.625 69.1855 109.04 69.2029 109.586L68.4887 109.69C68.4887 109.29 68.3929 109.002 68.2013 108.828C68.0097 108.648 67.7746 108.558 67.4959 108.558C67.3159 108.558 67.1591 108.593 67.0256 108.663C66.8978 108.732 66.7904 108.828 66.7033 108.95C66.6162 109.072 66.5523 109.214 66.5117 109.377C66.4711 109.539 66.4507 109.714 66.4507 109.899V111.728H67.5481V112.355H64.7785V111.728H65.7714V108.663H64.883V108.036ZM70.2159 108.036H71.5745V106.259H72.2539V108.036H73.9261V108.663H72.2539V111.467C72.2539 111.641 72.3323 111.728 72.489 111.728H73.7171V112.355H72.2452C72.0478 112.355 71.8852 112.292 71.7574 112.164C71.6355 112.036 71.5745 111.874 71.5745 111.676V108.663H70.2159V108.036ZM76.0974 110.405C76.1148 110.834 76.2484 111.18 76.498 111.441C76.7477 111.702 77.0961 111.833 77.5432 111.833C77.7464 111.833 77.9235 111.81 78.0744 111.763C78.2254 111.717 78.3531 111.653 78.4577 111.572C78.568 111.49 78.6551 111.397 78.7189 111.293C78.7886 111.183 78.8438 111.066 78.8844 110.945L79.5289 111.119C79.407 111.519 79.1805 111.847 78.8496 112.103C78.5244 112.353 78.0832 112.477 77.5258 112.477C77.218 112.477 76.9335 112.425 76.6722 112.321C76.4167 112.21 76.1961 112.056 76.0103 111.859C75.8245 111.662 75.6793 111.426 75.5748 111.154C75.4703 110.881 75.4181 110.579 75.4181 110.248V110.039C75.4181 109.737 75.4703 109.455 75.5748 109.194C75.6852 108.933 75.8361 108.709 76.0277 108.523C76.2193 108.332 76.4429 108.184 76.6984 108.079C76.9596 107.969 77.2412 107.914 77.5432 107.914C77.8974 107.914 78.2022 107.98 78.4577 108.114C78.7189 108.242 78.9309 108.401 79.0935 108.593C79.2618 108.785 79.3838 108.994 79.4592 109.22C79.5405 109.447 79.5812 109.656 79.5812 109.847V110.405H76.0974ZM77.5432 108.558C77.3516 108.558 77.1716 108.59 77.0032 108.654C76.8406 108.712 76.6955 108.796 76.5677 108.907C76.4458 109.017 76.3442 109.147 76.2629 109.298C76.1874 109.444 76.138 109.603 76.1148 109.777H78.9018C78.8902 109.592 78.8438 109.423 78.7625 109.272C78.687 109.121 78.5854 108.994 78.4577 108.889C78.3357 108.785 78.1935 108.703 78.0309 108.645C77.8741 108.587 77.7116 108.558 77.5432 108.558ZM84.1824 111.694H84.0779C84.0082 111.827 83.9182 111.943 83.8079 112.042C83.7034 112.141 83.5873 112.222 83.4595 112.286C83.3376 112.35 83.207 112.396 83.0676 112.425C82.9283 112.46 82.7947 112.477 82.667 112.477C82.3767 112.477 82.1067 112.428 81.857 112.329C81.6073 112.231 81.3867 112.088 81.1951 111.903C81.0093 111.717 80.8612 111.487 80.7509 111.215C80.6464 110.936 80.5941 110.619 80.5941 110.265V110.126C80.5941 109.777 80.6493 109.467 80.7596 109.194C80.8699 108.915 81.018 108.683 81.2038 108.497C81.3896 108.306 81.6073 108.16 81.857 108.062C82.1067 107.963 82.3709 107.914 82.6496 107.914C82.9457 107.914 83.2215 107.98 83.477 108.114C83.7382 108.242 83.9386 108.442 84.0779 108.715H84.1824V106.259H84.8618V112.355H84.1824V111.694ZM82.7367 111.833C82.9399 111.833 83.1286 111.795 83.3028 111.72C83.477 111.644 83.6279 111.537 83.7557 111.397C83.8892 111.258 83.9937 111.093 84.0692 110.901C84.1447 110.704 84.1824 110.486 84.1824 110.248V110.143C84.1824 109.911 84.1447 109.699 84.0692 109.507C83.9937 109.31 83.8892 109.142 83.7557 109.002C83.6279 108.863 83.4741 108.756 83.2941 108.68C83.1199 108.599 82.9341 108.558 82.7367 108.558C82.5334 108.558 82.3418 108.596 82.1618 108.671C81.9876 108.747 81.8338 108.854 81.7002 108.994C81.5725 109.133 81.4709 109.298 81.3954 109.49C81.3257 109.682 81.2909 109.894 81.2909 110.126V110.265C81.2909 110.509 81.3257 110.727 81.3954 110.918C81.4709 111.11 81.5725 111.275 81.7002 111.415C81.8338 111.548 81.9876 111.653 82.1618 111.728C82.336 111.798 82.5276 111.833 82.7367 111.833Z" fill="#737373"/>
<path d="M31.8121 122.885C31.8121 122.687 31.7715 122.513 31.6902 122.362C31.6147 122.211 31.5102 122.086 31.3766 121.988C31.2431 121.889 31.0892 121.813 30.915 121.761C30.7408 121.709 30.558 121.683 30.3663 121.683C30.198 121.683 30.0383 121.706 29.8873 121.752C29.7364 121.793 29.5999 121.854 29.478 121.935C29.3619 122.017 29.269 122.118 29.1993 122.24C29.1296 122.356 29.0948 122.493 29.0948 122.649V122.702C29.0948 122.87 29.1296 123.015 29.1993 123.137C29.269 123.253 29.3706 123.355 29.5041 123.442C29.6435 123.523 29.8147 123.593 30.018 123.651C30.2212 123.703 30.4592 123.75 30.7321 123.79C31.3708 123.889 31.8411 124.078 32.1431 124.357C32.445 124.629 32.596 124.998 32.596 125.463V125.567C32.596 125.828 32.5495 126.069 32.4566 126.29C32.3695 126.505 32.236 126.691 32.056 126.847C31.8818 127.004 31.664 127.126 31.4028 127.213C31.1415 127.3 30.8396 127.344 30.497 127.344C30.108 127.344 29.7625 127.289 29.4606 127.178C29.1644 127.062 28.9148 126.905 28.7115 126.708C28.5141 126.505 28.3632 126.27 28.2587 126.003C28.1541 125.73 28.1019 125.434 28.1019 125.114V124.853H28.8335V125.062C28.8335 125.596 28.9786 125.997 29.269 126.264C29.5651 126.531 29.9744 126.665 30.497 126.665C30.9499 126.665 31.2895 126.566 31.516 126.368C31.7482 126.165 31.8644 125.898 31.8644 125.567V125.515C31.8644 125.196 31.7453 124.952 31.5073 124.783C31.275 124.615 30.8947 124.493 30.3663 124.417C30.0586 124.377 29.7799 124.316 29.5302 124.235C29.2864 124.147 29.0773 124.037 28.9032 123.904C28.729 123.764 28.5954 123.599 28.5025 123.407C28.4096 123.216 28.3632 122.989 28.3632 122.728V122.623C28.3632 122.385 28.4125 122.168 28.5112 121.97C28.6099 121.773 28.7464 121.601 28.9206 121.456C29.1006 121.311 29.3125 121.201 29.5564 121.125C29.806 121.044 30.0789 121.003 30.3751 121.003C30.7176 121.003 31.0225 121.053 31.2895 121.151C31.5624 121.25 31.7918 121.384 31.9776 121.552C32.1634 121.715 32.3027 121.909 32.3956 122.136C32.4944 122.356 32.5437 122.588 32.5437 122.832V123.198H31.8121V122.885ZM37.4411 127.222H36.1869L35.6643 123.216H35.5598L35.0373 127.222H33.7831L33.1038 122.902H33.8005L34.3753 126.908H34.4799L34.985 122.902H36.2392L36.7443 126.908H36.8488L37.4236 122.902H38.1204L37.4411 127.222ZM40.283 121.613C40.283 121.445 40.3411 121.302 40.4572 121.186C40.5791 121.064 40.7243 121.003 40.8927 121.003C41.061 121.003 41.2033 121.064 41.3194 121.186C41.4414 121.302 41.5023 121.445 41.5023 121.613C41.5023 121.781 41.4414 121.927 41.3194 122.049C41.2033 122.165 41.061 122.223 40.8927 122.223C40.7243 122.223 40.5791 122.165 40.4572 122.049C40.3411 121.927 40.283 121.781 40.283 121.613ZM39.0463 126.595H40.5617V123.529H39.203V122.902H41.241V126.595H42.652V127.222H39.0463V126.595ZM44.0307 122.902H45.3894V121.125H46.0687V122.902H47.7409V123.529H46.0687V126.334C46.0687 126.508 46.1471 126.595 46.3039 126.595H47.5319V127.222H46.06C45.8626 127.222 45.7 127.158 45.5723 127.03C45.4504 126.903 45.3894 126.74 45.3894 126.543V123.529H44.0307V122.902ZM53.457 125.689C53.4105 125.927 53.3293 126.148 53.2131 126.351C53.1028 126.554 52.9606 126.731 52.7864 126.882C52.6122 127.027 52.409 127.141 52.1767 127.222C51.9445 127.303 51.6861 127.344 51.4016 127.344C51.0996 127.344 50.8122 127.295 50.5393 127.196C50.2722 127.097 50.0371 126.955 49.8339 126.769C49.6306 126.577 49.4681 126.345 49.3461 126.072C49.23 125.799 49.1719 125.486 49.1719 125.132V125.027C49.1719 124.679 49.23 124.365 49.3461 124.087C49.4681 123.808 49.6306 123.573 49.8339 123.381C50.0371 123.189 50.2722 123.041 50.5393 122.937C50.8122 122.832 51.0996 122.78 51.4016 122.78C51.6745 122.78 51.927 122.821 52.1593 122.902C52.3915 122.983 52.5948 123.099 52.7689 123.25C52.9489 123.396 53.0941 123.57 53.2044 123.773C53.3205 123.976 53.3989 124.197 53.4396 124.435L52.7602 124.592C52.7428 124.441 52.6993 124.296 52.6296 124.156C52.5657 124.011 52.4757 123.886 52.3596 123.782C52.2493 123.671 52.1128 123.584 51.9503 123.52C51.7877 123.457 51.599 123.425 51.3841 123.425C51.1751 123.425 50.9777 123.465 50.7919 123.547C50.6119 123.622 50.4522 123.732 50.3129 123.877C50.1735 124.017 50.0632 124.185 49.9819 124.383C49.9064 124.58 49.8687 124.795 49.8687 125.027V125.132C49.8687 125.376 49.9064 125.596 49.9819 125.794C50.0632 125.985 50.1735 126.148 50.3129 126.281C50.4522 126.415 50.6148 126.519 50.8006 126.595C50.9864 126.665 51.1867 126.699 51.4016 126.699C51.6164 126.699 51.8022 126.667 51.959 126.604C52.1215 126.534 52.258 126.447 52.3683 126.342C52.4844 126.232 52.5744 126.107 52.6383 125.968C52.708 125.828 52.7544 125.683 52.7777 125.532L53.457 125.689ZM55.3322 127.222H54.6528V121.125H55.3322V123.686H55.4367C55.5702 123.407 55.756 123.187 55.9941 123.024C56.238 122.861 56.5341 122.78 56.8825 122.78C57.3528 122.78 57.7331 122.937 58.0234 123.25C58.3195 123.558 58.4676 124.023 58.4676 124.644V127.222H57.7882V124.783C57.7882 124.33 57.6866 123.991 57.4834 123.764C57.2802 123.538 57.0044 123.425 56.656 123.425C56.2438 123.425 55.9186 123.567 55.6806 123.851C55.4483 124.13 55.3322 124.505 55.3322 124.975V127.222ZM68.3407 125.706H65.7279L65.2837 127.222H64.4998L66.3462 121.125H67.7223L69.5687 127.222H68.7849L68.3407 125.706ZM66.982 121.439L65.9282 125.027H68.1404L67.0865 121.439H66.982ZM73.6474 126.56H73.5429C73.4035 126.821 73.2119 127.019 72.9681 127.152C72.73 127.28 72.4687 127.344 72.1842 127.344C71.8939 127.344 71.621 127.295 71.3655 127.196C71.11 127.097 70.8836 126.955 70.6862 126.769C70.4946 126.583 70.3407 126.354 70.2246 126.081C70.1143 125.802 70.0591 125.486 70.0591 125.132V124.992C70.0591 124.644 70.1172 124.333 70.2333 124.06C70.3494 123.782 70.5033 123.549 70.6949 123.364C70.8865 123.172 71.11 123.027 71.3655 122.928C71.621 122.829 71.8881 122.78 72.1668 122.78C72.4803 122.78 72.7532 122.85 72.9855 122.989C73.2235 123.123 73.4093 123.32 73.5429 123.581H73.6474V122.902H74.3267V128.284C74.3267 128.482 74.2629 128.644 74.1351 128.772C74.0132 128.9 73.8535 128.964 73.6561 128.964H70.843V128.337H73.4122C73.569 128.337 73.6474 128.25 73.6474 128.075V126.56ZM72.2016 126.699C72.4048 126.699 72.5936 126.662 72.7677 126.586C72.9419 126.511 73.0929 126.403 73.2206 126.264C73.3542 126.125 73.4587 125.959 73.5342 125.767C73.6097 125.57 73.6474 125.352 73.6474 125.114V125.01C73.6474 124.777 73.6097 124.566 73.5342 124.374C73.4587 124.177 73.3542 124.008 73.2206 123.869C73.0929 123.729 72.939 123.622 72.759 123.547C72.5848 123.465 72.399 123.425 72.2016 123.425C71.9984 123.425 71.8068 123.462 71.6268 123.538C71.4526 123.613 71.2987 123.721 71.1652 123.86C71.0375 123.999 70.9359 124.165 70.8604 124.357C70.7907 124.548 70.7559 124.76 70.7559 124.992V125.132C70.7559 125.376 70.7907 125.593 70.8604 125.785C70.9359 125.976 71.0375 126.142 71.1652 126.281C71.2987 126.415 71.4526 126.519 71.6268 126.595C71.801 126.665 71.9926 126.699 72.2016 126.699ZM76.0974 125.271C76.1148 125.701 76.2484 126.046 76.498 126.307C76.7477 126.569 77.0961 126.699 77.5432 126.699C77.7464 126.699 77.9235 126.676 78.0744 126.63C78.2254 126.583 78.3531 126.519 78.4577 126.438C78.568 126.357 78.6551 126.264 78.7189 126.159C78.7886 126.049 78.8438 125.933 78.8844 125.811L79.5289 125.985C79.407 126.386 79.1805 126.714 78.8496 126.969C78.5244 127.219 78.0832 127.344 77.5258 127.344C77.218 127.344 76.9335 127.292 76.6722 127.187C76.4167 127.077 76.1961 126.923 76.0103 126.725C75.8245 126.528 75.6793 126.293 75.5748 126.02C75.4703 125.747 75.4181 125.445 75.4181 125.114V124.905C75.4181 124.603 75.4703 124.322 75.5748 124.06C75.6852 123.799 75.8361 123.576 76.0277 123.39C76.2193 123.198 76.4429 123.05 76.6984 122.946C76.9596 122.835 77.2412 122.78 77.5432 122.78C77.8974 122.78 78.2022 122.847 78.4577 122.98C78.7189 123.108 78.9309 123.268 79.0935 123.459C79.2618 123.651 79.3838 123.86 79.4592 124.087C79.5405 124.313 79.5812 124.522 79.5812 124.714V125.271H76.0974ZM77.5432 123.425C77.3516 123.425 77.1716 123.457 77.0032 123.52C76.8406 123.578 76.6955 123.663 76.5677 123.773C76.4458 123.883 76.3442 124.014 76.2629 124.165C76.1874 124.31 76.138 124.47 76.1148 124.644H78.9018C78.8902 124.458 78.8438 124.29 78.7625 124.139C78.687 123.988 78.5854 123.86 78.4577 123.756C78.3357 123.651 78.1935 123.57 78.0309 123.512C77.8741 123.454 77.7116 123.425 77.5432 123.425ZM81.5173 127.222H80.838V122.902H81.5173V123.634H81.6218C81.8889 123.065 82.3534 122.78 83.0154 122.78C83.5147 122.78 83.9124 122.937 84.2086 123.25C84.5047 123.558 84.6527 124.023 84.6527 124.644V127.222H83.9734V124.783C83.9734 124.33 83.8718 123.991 83.6686 123.764C83.4653 123.538 83.1895 123.425 82.8412 123.425C82.4289 123.425 82.1038 123.567 81.8657 123.851C81.6335 124.13 81.5173 124.505 81.5173 124.975V127.222ZM85.927 122.902H87.2856V121.125H87.965V122.902H89.6372V123.529H87.965V126.334C87.965 126.508 88.0434 126.595 88.2001 126.595H89.4282V127.222H87.9563C87.7589 127.222 87.5963 127.158 87.4685 127.03C87.3466 126.903 87.2856 126.74 87.2856 126.543V123.529H85.927V122.902Z" fill="#737373"/>
<path d="M29.0164 135.992V140.033C29.0164 140.526 29.1296 140.901 29.356 141.156C29.5883 141.406 29.928 141.531 30.3751 141.531C30.8221 141.531 31.1589 141.406 31.3853 141.156C31.6176 140.901 31.7337 140.526 31.7337 140.033V135.992H32.4653V140.033C32.4653 140.741 32.2795 141.281 31.9079 141.653C31.5363 142.024 31.0254 142.21 30.3751 142.21C29.7247 142.21 29.2138 142.024 28.8422 141.653C28.4706 141.281 28.2848 140.741 28.2848 140.033V135.992H29.0164ZM34.2273 143.83H33.5479V137.768H34.2273V138.448H34.3318C34.4828 138.186 34.6918 137.989 34.9589 137.855C35.226 137.716 35.5163 137.646 35.8298 137.646C36.0969 137.646 36.3495 137.696 36.5875 137.794C36.8256 137.893 37.0346 138.035 37.2146 138.221C37.4004 138.407 37.5456 138.636 37.6501 138.909C37.7604 139.182 37.8156 139.493 37.8156 139.841V140.015C37.8156 140.369 37.7633 140.683 37.6588 140.956C37.5543 141.229 37.4091 141.458 37.2233 141.644C37.0433 141.83 36.8314 141.972 36.5875 142.071C36.3437 142.164 36.0853 142.21 35.8124 142.21C35.673 142.21 35.5308 142.193 35.3856 142.158C35.2405 142.129 35.1011 142.082 34.9676 142.018C34.8398 141.949 34.7208 141.867 34.6105 141.775C34.5002 141.676 34.4073 141.56 34.3318 141.426H34.2273V143.83ZM35.673 141.566C35.8821 141.566 36.0737 141.531 36.2479 141.461C36.4221 141.386 36.573 141.281 36.7008 141.148C36.8343 141.014 36.9359 140.851 37.0056 140.66C37.0811 140.468 37.1188 140.253 37.1188 140.015V139.841C37.1188 139.609 37.0811 139.4 37.0056 139.214C36.9359 139.022 36.8343 138.86 36.7008 138.726C36.573 138.587 36.4192 138.48 36.2392 138.404C36.065 138.329 35.8763 138.291 35.673 138.291C35.4698 138.291 35.2811 138.331 35.1069 138.413C34.9327 138.488 34.7789 138.596 34.6453 138.735C34.5176 138.874 34.416 139.043 34.3405 139.24C34.265 139.432 34.2273 139.644 34.2273 139.876V139.98C34.2273 140.219 34.265 140.436 34.3405 140.634C34.416 140.825 34.5176 140.991 34.6453 141.13C34.7789 141.269 34.9327 141.377 35.1069 141.452C35.2811 141.528 35.4698 141.566 35.673 141.566ZM42.2862 141.426H42.1817C42.112 141.56 42.022 141.676 41.9117 141.775C41.8072 141.873 41.691 141.955 41.5633 142.018C41.4414 142.082 41.3107 142.129 41.1714 142.158C41.032 142.193 40.8985 142.21 40.7707 142.21C40.4804 142.21 40.2104 142.161 39.9608 142.062C39.7111 141.963 39.4904 141.821 39.2988 141.635C39.113 141.449 38.965 141.22 38.8547 140.947C38.7501 140.668 38.6979 140.352 38.6979 139.998V139.859C38.6979 139.51 38.753 139.2 38.8634 138.927C38.9737 138.648 39.1217 138.416 39.3075 138.23C39.4933 138.038 39.7111 137.893 39.9608 137.794C40.2104 137.696 40.4746 137.646 40.7533 137.646C41.0494 137.646 41.3252 137.713 41.5807 137.847C41.842 137.974 42.0423 138.175 42.1817 138.448H42.2862V135.992H42.9655V142.088H42.2862V141.426ZM40.8404 141.566C41.0436 141.566 41.2323 141.528 41.4065 141.452C41.5807 141.377 41.7317 141.269 41.8594 141.13C41.993 140.991 42.0975 140.825 42.173 140.634C42.2484 140.436 42.2862 140.219 42.2862 139.98V139.876C42.2862 139.644 42.2484 139.432 42.173 139.24C42.0975 139.043 41.993 138.874 41.8594 138.735C41.7317 138.596 41.5778 138.488 41.3978 138.413C41.2236 138.331 41.0378 138.291 40.8404 138.291C40.6372 138.291 40.4456 138.329 40.2656 138.404C40.0914 138.48 39.9375 138.587 39.804 138.726C39.6762 138.866 39.5746 139.031 39.4992 139.223C39.4295 139.414 39.3946 139.626 39.3946 139.859V139.998C39.3946 140.242 39.4295 140.459 39.4992 140.651C39.5746 140.843 39.6762 141.008 39.804 141.148C39.9375 141.281 40.0914 141.386 40.2656 141.461C40.4398 141.531 40.6314 141.566 40.8404 141.566ZM47.3142 141.357H47.2097C47.0703 141.647 46.8758 141.862 46.6261 142.001C46.3823 142.14 46.1239 142.21 45.851 142.21C45.5665 142.21 45.3023 142.164 45.0584 142.071C44.8146 141.972 44.5997 141.83 44.4139 141.644C44.2339 141.452 44.0917 141.22 43.9872 140.947C43.8827 140.674 43.8304 140.358 43.8304 139.998V139.859C43.8304 139.504 43.8827 139.191 43.9872 138.918C44.0917 138.645 44.2339 138.416 44.4139 138.23C44.5997 138.038 44.8146 137.893 45.0584 137.794C45.3023 137.696 45.5607 137.646 45.8336 137.646C46.1297 137.646 46.3968 137.713 46.6348 137.847C46.8787 137.974 47.0703 138.175 47.2097 138.448H47.3142V137.768H47.9935V141.2C47.9935 141.374 48.0719 141.461 48.2287 141.461H48.4464V142.088H47.9848C47.7874 142.088 47.6248 142.024 47.4971 141.897C47.3751 141.769 47.3142 141.606 47.3142 141.409V141.357ZM45.9207 141.566C46.1239 141.566 46.3097 141.528 46.4781 141.452C46.6523 141.377 46.8003 141.269 46.9223 141.13C47.0442 140.991 47.14 140.825 47.2097 140.634C47.2793 140.436 47.3142 140.219 47.3142 139.98V139.876C47.3142 139.644 47.2793 139.432 47.2097 139.24C47.14 139.043 47.0413 138.874 46.9135 138.735C46.7916 138.596 46.6436 138.488 46.4694 138.413C46.301 138.331 46.1181 138.291 45.9207 138.291C45.7174 138.291 45.5316 138.329 45.3633 138.404C45.1949 138.48 45.0468 138.587 44.9191 138.726C44.7971 138.86 44.7013 139.025 44.6317 139.223C44.562 139.414 44.5272 139.626 44.5272 139.859V139.998C44.5272 140.491 44.6549 140.878 44.9104 141.156C45.1717 141.429 45.5084 141.566 45.9207 141.566ZM49.2677 137.768H50.6264V135.992H51.3058V137.768H52.978V138.395H51.3058V141.2C51.3058 141.374 51.3841 141.461 51.5409 141.461H52.7689V142.088H51.297C51.0996 142.088 50.9371 142.024 50.8093 141.897C50.6874 141.769 50.6264 141.606 50.6264 141.409V138.395H49.2677V137.768ZM55.1493 140.137C55.1667 140.567 55.3002 140.912 55.5499 141.174C55.7996 141.435 56.148 141.566 56.595 141.566C56.7983 141.566 56.9754 141.542 57.1263 141.496C57.2773 141.449 57.405 141.386 57.5095 141.304C57.6199 141.223 57.707 141.13 57.7708 141.026C57.8405 140.915 57.8957 140.799 57.9363 140.677L58.5808 140.851C58.4589 141.252 58.2324 141.58 57.9015 141.836C57.5763 142.085 57.135 142.21 56.5776 142.21C56.2699 142.21 55.9854 142.158 55.7241 142.053C55.4686 141.943 55.248 141.789 55.0622 141.592C54.8764 141.394 54.7312 141.159 54.6267 140.886C54.5222 140.613 54.4699 140.311 54.4699 139.98V139.771C54.4699 139.469 54.5222 139.188 54.6267 138.927C54.737 138.665 54.888 138.442 55.0796 138.256C55.2712 138.064 55.4948 137.916 55.7502 137.812C56.0115 137.701 56.2931 137.646 56.595 137.646C56.9492 137.646 57.2541 137.713 57.5095 137.847C57.7708 137.974 57.9828 138.134 58.1453 138.326C58.3137 138.517 58.4356 138.726 58.5111 138.953C58.5924 139.179 58.6331 139.388 58.6331 139.58V140.137H55.1493ZM56.595 138.291C56.4034 138.291 56.2234 138.323 56.0551 138.387C55.8925 138.445 55.7473 138.529 55.6196 138.639C55.4977 138.75 55.396 138.88 55.3148 139.031C55.2393 139.176 55.1899 139.336 55.1667 139.51H57.9537C57.9421 139.324 57.8957 139.156 57.8144 139.005C57.7389 138.854 57.6373 138.726 57.5095 138.622C57.3876 138.517 57.2454 138.436 57.0828 138.378C56.926 138.32 56.7634 138.291 56.595 138.291Z" fill="#737373"/>
<path d="M28.2325 153.227C28.2325 152.437 28.4212 151.825 28.7986 151.389C29.1761 150.954 29.7015 150.736 30.3751 150.736C31.0486 150.736 31.5741 150.954 31.9515 151.389C32.3289 151.825 32.5176 152.437 32.5176 153.227V154.586C32.5176 155.329 32.3579 155.912 32.0386 156.336C31.725 156.754 31.2837 156.995 30.7147 157.059V157.425C30.7147 157.599 30.7931 157.686 30.9499 157.686H31.6815V158.313H30.706C30.5086 158.313 30.346 158.249 30.2183 158.122C30.0963 157.994 30.0354 157.831 30.0354 157.634V157.059C29.4606 156.989 29.0164 156.746 28.7028 156.328C28.3893 155.909 28.2325 155.329 28.2325 154.586V153.227ZM30.3751 156.397C30.8454 156.397 31.1966 156.238 31.4289 155.918C31.667 155.593 31.786 155.131 31.786 154.533V153.279C31.786 152.722 31.667 152.272 31.4289 151.929C31.1966 151.587 30.8454 151.415 30.3751 151.415C29.9047 151.415 29.5506 151.587 29.3125 151.929C29.0802 152.272 28.9641 152.722 28.9641 153.279V154.533C28.9641 155.131 29.0802 155.593 29.3125 155.918C29.5506 156.238 29.9047 156.397 30.3751 156.397ZM36.7879 152.635H37.4672V156.955H36.7879V156.171H36.6833C36.544 156.449 36.3611 156.67 36.1347 156.833C35.9082 156.995 35.6208 157.077 35.2724 157.077C35.0344 157.077 34.8137 157.036 34.6105 156.955C34.4131 156.879 34.2418 156.763 34.0966 156.606C33.9573 156.449 33.847 156.255 33.7657 156.023C33.6902 155.79 33.6525 155.52 33.6525 155.213V152.635H34.3318V155.126C34.3318 155.578 34.4247 155.909 34.6105 156.118C34.7963 156.328 35.0808 156.432 35.464 156.432C35.8763 156.432 36.1985 156.293 36.4308 156.014C36.6688 155.729 36.7879 155.352 36.7879 154.882V152.635ZM40.283 151.346C40.283 151.177 40.3411 151.035 40.4572 150.919C40.5791 150.797 40.7243 150.736 40.8927 150.736C41.061 150.736 41.2033 150.797 41.3194 150.919C41.4414 151.035 41.5023 151.177 41.5023 151.346C41.5023 151.514 41.4414 151.659 41.3194 151.781C41.2033 151.897 41.061 151.955 40.8927 151.955C40.7243 151.955 40.5791 151.897 40.4572 151.781C40.3411 151.659 40.283 151.514 40.283 151.346ZM39.0463 156.328H40.5617V153.262H39.203V152.635H41.241V156.328H42.652V156.955H39.0463V156.328ZM44.0307 152.635H45.3894V150.858H46.0687V152.635H47.7409V153.262H46.0687V156.066C46.0687 156.24 46.1471 156.328 46.3039 156.328H47.5319V156.955H46.06C45.8626 156.955 45.7 156.891 45.5723 156.763C45.4504 156.635 45.3894 156.473 45.3894 156.275V153.262H44.0307V152.635Z" fill="#737373"/>
<path d="M120.303 90.4694L120.912 90.6611L118.378 98.4125L117.76 98.2209L120.303 90.4694ZM123.345 97.4893H122.666V93.1694H123.345V93.901H123.45C123.717 93.3319 124.181 93.0474 124.843 93.0474C125.342 93.0474 125.74 93.2042 126.036 93.5177C126.332 93.8255 126.48 94.29 126.48 94.9113V97.4893H125.801V95.0506C125.801 94.5977 125.699 94.2581 125.496 94.0316C125.293 93.8052 125.017 93.6919 124.669 93.6919C124.257 93.6919 123.931 93.8342 123.693 94.1187C123.461 94.3974 123.345 94.7719 123.345 95.2422V97.4893ZM128.399 95.5383C128.417 95.968 128.55 96.3135 128.8 96.5748C129.049 96.836 129.398 96.9667 129.845 96.9667C130.048 96.9667 130.225 96.9435 130.376 96.897C130.527 96.8506 130.655 96.7867 130.759 96.7054C130.87 96.6241 130.957 96.5312 131.021 96.4267C131.09 96.3164 131.146 96.2003 131.186 96.0783L131.831 96.2525C131.709 96.6532 131.482 96.9812 131.151 97.2367C130.826 97.4864 130.385 97.6112 129.827 97.6112C129.52 97.6112 129.235 97.5589 128.974 97.4544C128.718 97.3441 128.498 97.1902 128.312 96.9928C128.126 96.7954 127.981 96.5603 127.877 96.2874C127.772 96.0145 127.72 95.7125 127.72 95.3816V95.1725C127.72 94.8706 127.772 94.589 127.877 94.3277C127.987 94.0664 128.138 93.8429 128.329 93.6571C128.521 93.4655 128.745 93.3174 129 93.2129C129.261 93.1026 129.543 93.0474 129.845 93.0474C130.199 93.0474 130.504 93.1142 130.759 93.2478C131.021 93.3755 131.233 93.5352 131.395 93.7268C131.564 93.9184 131.685 94.1274 131.761 94.3539C131.842 94.5803 131.883 94.7893 131.883 94.9809V95.5383H128.399ZM129.845 93.6919C129.653 93.6919 129.473 93.7239 129.305 93.7877C129.142 93.8458 128.997 93.93 128.869 94.0403C128.747 94.1506 128.646 94.2813 128.565 94.4322C128.489 94.5774 128.44 94.7371 128.417 94.9113H131.204C131.192 94.7255 131.146 94.5571 131.064 94.4061C130.989 94.2551 130.887 94.1274 130.759 94.0229C130.637 93.9184 130.495 93.8371 130.333 93.779C130.176 93.721 130.013 93.6919 129.845 93.6919ZM136.876 97.4893H135.622L135.099 93.4829H134.995L134.472 97.4893H133.218L132.539 93.1694H133.236L133.81 97.1757H133.915L134.42 93.1694H135.674L136.179 97.1757H136.284L136.859 93.1694H137.555L136.876 97.4893Z" fill="#00A6A6"/>
<path d="M120.303 105.336L120.912 105.527L118.378 113.279L117.76 113.087L120.303 105.336ZM124.007 106.747C124.007 106.578 124.065 106.436 124.181 106.32C124.303 106.198 124.448 106.137 124.617 106.137C124.785 106.137 124.927 106.198 125.043 106.32C125.165 106.436 125.226 106.578 125.226 106.747C125.226 106.915 125.165 107.06 125.043 107.182C124.927 107.298 124.785 107.356 124.617 107.356C124.448 107.356 124.303 107.298 124.181 107.182C124.065 107.06 124.007 106.915 124.007 106.747ZM122.77 111.728H124.286V108.663H122.927V108.036H124.965V111.728H126.376V112.355H122.77V111.728ZM128.582 112.355H127.903V108.036H128.582V108.767H128.687C128.954 108.198 129.418 107.914 130.08 107.914C130.579 107.914 130.977 108.07 131.273 108.384C131.569 108.692 131.717 109.156 131.717 109.777V112.355H131.038V109.917C131.038 109.464 130.936 109.124 130.733 108.898C130.53 108.671 130.254 108.558 129.906 108.558C129.494 108.558 129.168 108.7 128.93 108.985C128.698 109.264 128.582 109.638 128.582 110.108V112.355ZM133.096 108.036H134.429V106.938C134.429 106.741 134.49 106.578 134.612 106.45C134.739 106.323 134.902 106.259 135.099 106.259H136.806V106.886H135.343C135.186 106.886 135.108 106.973 135.108 107.147V108.036H136.911V108.663H135.108V112.355H134.429V108.663H133.096V108.036ZM142.453 110.248C142.453 110.608 142.392 110.927 142.27 111.206C142.154 111.479 141.997 111.711 141.8 111.903C141.602 112.088 141.37 112.231 141.103 112.329C140.842 112.428 140.569 112.477 140.284 112.477C139.994 112.477 139.718 112.428 139.457 112.329C139.195 112.231 138.966 112.088 138.769 111.903C138.571 111.711 138.412 111.479 138.29 111.206C138.174 110.927 138.115 110.608 138.115 110.248V110.143C138.115 109.789 138.174 109.476 138.29 109.203C138.412 108.924 138.571 108.689 138.769 108.497C138.972 108.306 139.204 108.16 139.465 108.062C139.727 107.963 140 107.914 140.284 107.914C140.569 107.914 140.842 107.963 141.103 108.062C141.364 108.16 141.593 108.306 141.791 108.497C141.994 108.689 142.154 108.924 142.27 109.203C142.392 109.476 142.453 109.789 142.453 110.143V110.248ZM140.284 111.833C140.493 111.833 140.685 111.798 140.859 111.728C141.039 111.653 141.196 111.545 141.329 111.406C141.463 111.267 141.567 111.101 141.643 110.91C141.718 110.712 141.756 110.492 141.756 110.248V110.143C141.756 109.911 141.718 109.699 141.643 109.507C141.567 109.31 141.463 109.142 141.329 109.002C141.196 108.863 141.039 108.756 140.859 108.68C140.679 108.599 140.487 108.558 140.284 108.558C140.081 108.558 139.889 108.599 139.709 108.68C139.529 108.756 139.373 108.863 139.239 109.002C139.105 109.142 139.001 109.31 138.925 109.507C138.85 109.699 138.812 109.911 138.812 110.143V110.248C138.812 110.492 138.85 110.712 138.925 110.91C139.001 111.101 139.105 111.267 139.239 111.406C139.373 111.545 139.526 111.653 139.701 111.728C139.881 111.798 140.075 111.833 140.284 111.833ZM144.911 111.868C144.911 111.699 144.97 111.557 145.086 111.441C145.208 111.319 145.353 111.258 145.521 111.258C145.69 111.258 145.832 111.319 145.948 111.441C146.07 111.557 146.131 111.699 146.131 111.868V112.721C146.131 112.919 146.067 113.081 145.939 113.209C145.817 113.337 145.658 113.401 145.46 113.401H145.016V112.93H145.425C145.582 112.93 145.66 112.843 145.66 112.669V112.451C145.614 112.469 145.565 112.477 145.512 112.477C145.35 112.477 145.208 112.419 145.086 112.303C144.97 112.181 144.911 112.036 144.911 111.868ZM156.962 105.336L157.572 105.527L155.037 113.279L154.419 113.087L156.962 105.336ZM160.004 112.355H159.325V106.259H160.004V108.819H160.109C160.242 108.541 160.428 108.32 160.666 108.158C160.91 107.995 161.206 107.914 161.554 107.914C162.025 107.914 162.405 108.07 162.695 108.384C162.992 108.692 163.14 109.156 163.14 109.777V112.355H162.46V109.917C162.46 109.464 162.359 109.124 162.155 108.898C161.952 108.671 161.676 108.558 161.328 108.558C160.916 108.558 160.591 108.7 160.353 108.985C160.12 109.264 160.004 109.638 160.004 110.108V112.355ZM165.058 110.405C165.076 110.834 165.209 111.18 165.459 111.441C165.709 111.702 166.057 111.833 166.504 111.833C166.707 111.833 166.884 111.81 167.035 111.763C167.186 111.717 167.314 111.653 167.419 111.572C167.529 111.49 167.616 111.397 167.68 111.293C167.75 111.183 167.805 111.066 167.845 110.945L168.49 111.119C168.368 111.519 168.141 111.847 167.811 112.103C167.485 112.353 167.044 112.477 166.487 112.477C166.179 112.477 165.894 112.425 165.633 112.321C165.378 112.21 165.157 112.056 164.971 111.859C164.785 111.662 164.64 111.426 164.536 111.154C164.431 110.881 164.379 110.579 164.379 110.248V110.039C164.379 109.737 164.431 109.455 164.536 109.194C164.646 108.933 164.797 108.709 164.989 108.523C165.18 108.332 165.404 108.184 165.659 108.079C165.921 107.969 166.202 107.914 166.504 107.914C166.858 107.914 167.163 107.98 167.419 108.114C167.68 108.242 167.892 108.401 168.054 108.593C168.223 108.785 168.345 108.994 168.42 109.22C168.501 109.447 168.542 109.656 168.542 109.847V110.405H165.058ZM166.504 108.558C166.313 108.558 166.133 108.59 165.964 108.654C165.802 108.712 165.656 108.796 165.529 108.907C165.407 109.017 165.305 109.147 165.224 109.298C165.148 109.444 165.099 109.603 165.076 109.777H167.863C167.851 109.592 167.805 109.423 167.723 109.272C167.648 109.121 167.546 108.994 167.419 108.889C167.297 108.785 167.154 108.703 166.992 108.645C166.835 108.587 166.672 108.558 166.504 108.558ZM169.799 111.728H171.367V106.886H169.851V106.259H172.046V111.728H173.614V112.355H169.799V111.728ZM175.559 114.097H174.879V108.036H175.559V108.715H175.663C175.814 108.454 176.023 108.256 176.29 108.123C176.557 107.983 176.848 107.914 177.161 107.914C177.428 107.914 177.681 107.963 177.919 108.062C178.157 108.16 178.366 108.303 178.546 108.488C178.732 108.674 178.877 108.904 178.981 109.177C179.092 109.449 179.147 109.76 179.147 110.108V110.283C179.147 110.637 179.095 110.95 178.99 111.223C178.886 111.496 178.74 111.725 178.555 111.911C178.375 112.097 178.163 112.239 177.919 112.338C177.675 112.431 177.417 112.477 177.144 112.477C177.004 112.477 176.862 112.46 176.717 112.425C176.572 112.396 176.432 112.35 176.299 112.286C176.171 112.216 176.052 112.135 175.942 112.042C175.831 111.943 175.739 111.827 175.663 111.694H175.559V114.097ZM177.004 111.833C177.213 111.833 177.405 111.798 177.579 111.728C177.753 111.653 177.904 111.548 178.032 111.415C178.166 111.281 178.267 111.119 178.337 110.927C178.412 110.736 178.45 110.521 178.45 110.283V110.108C178.45 109.876 178.412 109.667 178.337 109.481C178.267 109.29 178.166 109.127 178.032 108.994C177.904 108.854 177.75 108.747 177.57 108.671C177.396 108.596 177.208 108.558 177.004 108.558C176.801 108.558 176.612 108.599 176.438 108.68C176.264 108.756 176.11 108.863 175.977 109.002C175.849 109.142 175.747 109.31 175.672 109.507C175.596 109.699 175.559 109.911 175.559 110.143V110.248C175.559 110.486 175.596 110.704 175.672 110.901C175.747 111.093 175.849 111.258 175.977 111.397C176.11 111.537 176.264 111.644 176.438 111.72C176.612 111.795 176.801 111.833 177.004 111.833Z" fill="#00A6A6"/>
<path d="M120.303 120.202L120.912 120.394L118.378 128.145L117.76 127.954L120.303 120.202ZM122.622 122.902H123.955V121.805C123.955 121.607 124.016 121.445 124.138 121.317C124.265 121.189 124.428 121.125 124.625 121.125H126.332V121.752H124.869C124.712 121.752 124.634 121.839 124.634 122.014V122.902H126.437V123.529H124.634V127.222H123.955V123.529H122.622V122.902ZM131.979 125.114C131.979 125.474 131.918 125.794 131.796 126.072C131.68 126.345 131.523 126.577 131.325 126.769C131.128 126.955 130.896 127.097 130.629 127.196C130.367 127.295 130.095 127.344 129.81 127.344C129.52 127.344 129.244 127.295 128.983 127.196C128.721 127.097 128.492 126.955 128.295 126.769C128.097 126.577 127.938 126.345 127.816 126.072C127.699 125.794 127.641 125.474 127.641 125.114V125.01C127.641 124.656 127.699 124.342 127.816 124.069C127.938 123.79 128.097 123.555 128.295 123.364C128.498 123.172 128.73 123.027 128.991 122.928C129.253 122.829 129.526 122.78 129.81 122.78C130.095 122.78 130.367 122.829 130.629 122.928C130.89 123.027 131.119 123.172 131.317 123.364C131.52 123.555 131.68 123.79 131.796 124.069C131.918 124.342 131.979 124.656 131.979 125.01V125.114ZM129.81 126.699C130.019 126.699 130.211 126.665 130.385 126.595C130.565 126.519 130.722 126.412 130.855 126.273C130.989 126.133 131.093 125.968 131.169 125.776C131.244 125.579 131.282 125.358 131.282 125.114V125.01C131.282 124.777 131.244 124.566 131.169 124.374C131.093 124.177 130.989 124.008 130.855 123.869C130.722 123.729 130.565 123.622 130.385 123.547C130.205 123.465 130.013 123.425 129.81 123.425C129.607 123.425 129.415 123.465 129.235 123.547C129.055 123.622 128.898 123.729 128.765 123.869C128.631 124.008 128.527 124.177 128.451 124.374C128.376 124.566 128.338 124.777 128.338 125.01V125.114C128.338 125.358 128.376 125.579 128.451 125.776C128.527 125.968 128.631 126.133 128.765 126.273C128.898 126.412 129.052 126.519 129.227 126.595C129.407 126.665 129.601 126.699 129.81 126.699ZM132.896 122.902H134.464V123.477H134.568C134.678 123.239 134.835 123.065 135.038 122.954C135.242 122.838 135.474 122.78 135.735 122.78C136.171 122.78 136.522 122.922 136.789 123.207C137.056 123.491 137.198 123.907 137.216 124.452L136.502 124.557C136.502 124.156 136.406 123.869 136.214 123.695C136.023 123.515 135.787 123.425 135.509 123.425C135.329 123.425 135.172 123.459 135.038 123.529C134.911 123.599 134.803 123.695 134.716 123.817C134.629 123.938 134.565 124.081 134.525 124.243C134.484 124.406 134.464 124.58 134.464 124.766V126.595H135.561V127.222H132.791V126.595H133.784V123.529H132.896V122.902ZM141.66 126.56H141.556C141.416 126.821 141.225 127.019 140.981 127.152C140.743 127.28 140.482 127.344 140.197 127.344C139.907 127.344 139.634 127.295 139.378 127.196C139.123 127.097 138.896 126.955 138.699 126.769C138.507 126.583 138.354 126.354 138.237 126.081C138.127 125.802 138.072 125.486 138.072 125.132V124.992C138.072 124.644 138.13 124.333 138.246 124.06C138.362 123.782 138.516 123.549 138.708 123.364C138.899 123.172 139.123 123.027 139.378 122.928C139.634 122.829 139.901 122.78 140.18 122.78C140.493 122.78 140.766 122.85 140.998 122.989C141.236 123.123 141.422 123.32 141.556 123.581H141.66V122.902H142.34V128.284C142.34 128.482 142.276 128.644 142.148 128.772C142.026 128.9 141.866 128.964 141.669 128.964H138.856V128.337H141.425C141.582 128.337 141.66 128.25 141.66 128.075V126.56ZM140.214 126.699C140.418 126.699 140.606 126.662 140.781 126.586C140.955 126.511 141.106 126.403 141.233 126.264C141.367 126.125 141.472 125.959 141.547 125.767C141.622 125.57 141.66 125.352 141.66 125.114V125.01C141.66 124.777 141.622 124.566 141.547 124.374C141.472 124.177 141.367 124.008 141.233 123.869C141.106 123.729 140.952 123.622 140.772 123.547C140.598 123.465 140.412 123.425 140.214 123.425C140.011 123.425 139.82 123.462 139.64 123.538C139.465 123.613 139.312 123.721 139.178 123.86C139.05 123.999 138.949 124.165 138.873 124.357C138.804 124.548 138.769 124.76 138.769 124.992V125.132C138.769 125.376 138.804 125.593 138.873 125.785C138.949 125.976 139.05 126.142 139.178 126.281C139.312 126.415 139.465 126.519 139.64 126.595C139.814 126.665 140.005 126.699 140.214 126.699ZM144.11 125.271C144.128 125.701 144.261 126.046 144.511 126.307C144.761 126.569 145.109 126.699 145.556 126.699C145.759 126.699 145.936 126.676 146.087 126.63C146.238 126.583 146.366 126.519 146.47 126.438C146.581 126.357 146.668 126.264 146.732 126.159C146.801 126.049 146.857 125.933 146.897 125.811L147.542 125.985C147.42 126.386 147.193 126.714 146.862 126.969C146.537 127.219 146.096 127.344 145.539 127.344C145.231 127.344 144.946 127.292 144.685 127.187C144.43 127.077 144.209 126.923 144.023 126.725C143.837 126.528 143.692 126.293 143.588 126.02C143.483 125.747 143.431 125.445 143.431 125.114V124.905C143.431 124.603 143.483 124.322 143.588 124.06C143.698 123.799 143.849 123.576 144.041 123.39C144.232 123.198 144.456 123.05 144.711 122.946C144.972 122.835 145.254 122.78 145.556 122.78C145.91 122.78 146.215 122.847 146.47 122.98C146.732 123.108 146.944 123.268 147.106 123.459C147.275 123.651 147.397 123.86 147.472 124.087C147.553 124.313 147.594 124.522 147.594 124.714V125.271H144.11ZM145.556 123.425C145.364 123.425 145.184 123.457 145.016 123.52C144.853 123.578 144.708 123.663 144.581 123.773C144.459 123.883 144.357 124.014 144.276 124.165C144.2 124.31 144.151 124.47 144.128 124.644H146.915C146.903 124.458 146.857 124.29 146.775 124.139C146.7 123.988 146.598 123.86 146.47 123.756C146.349 123.651 146.206 123.57 146.044 123.512C145.887 123.454 145.724 123.425 145.556 123.425ZM158.164 125.114C158.164 125.474 158.103 125.794 157.981 126.072C157.865 126.345 157.708 126.577 157.511 126.769C157.313 126.955 157.081 127.097 156.814 127.196C156.553 127.295 156.28 127.344 155.995 127.344C155.705 127.344 155.429 127.295 155.168 127.196C154.907 127.097 154.677 126.955 154.48 126.769C154.282 126.577 154.123 126.345 154.001 126.072C153.885 125.794 153.827 125.474 153.827 125.114V125.01C153.827 124.656 153.885 124.342 154.001 124.069C154.123 123.79 154.282 123.555 154.48 123.364C154.683 123.172 154.915 123.027 155.177 122.928C155.438 122.829 155.711 122.78 155.995 122.78C156.28 122.78 156.553 122.829 156.814 122.928C157.075 123.027 157.305 123.172 157.502 123.364C157.705 123.555 157.865 123.79 157.981 124.069C158.103 124.342 158.164 124.656 158.164 125.01V125.114ZM155.995 126.699C156.204 126.699 156.396 126.665 156.57 126.595C156.75 126.519 156.907 126.412 157.04 126.273C157.174 126.133 157.278 125.968 157.354 125.776C157.429 125.579 157.467 125.358 157.467 125.114V125.01C157.467 124.777 157.429 124.566 157.354 124.374C157.278 124.177 157.174 124.008 157.04 123.869C156.907 123.729 156.75 123.622 156.57 123.547C156.39 123.465 156.198 123.425 155.995 123.425C155.792 123.425 155.6 123.465 155.42 123.547C155.24 123.622 155.084 123.729 154.95 123.869C154.817 124.008 154.712 124.177 154.637 124.374C154.561 124.566 154.523 124.777 154.523 125.01V125.114C154.523 125.358 154.561 125.579 154.637 125.776C154.712 125.968 154.817 126.133 154.95 126.273C155.084 126.412 155.237 126.519 155.412 126.595C155.592 126.665 155.786 126.699 155.995 126.699ZM159.081 122.902H160.649V123.477H160.753C160.864 123.239 161.02 123.065 161.224 122.954C161.427 122.838 161.659 122.78 161.92 122.78C162.356 122.78 162.707 122.922 162.974 123.207C163.241 123.491 163.383 123.907 163.401 124.452L162.687 124.557C162.687 124.156 162.591 123.869 162.399 123.695C162.208 123.515 161.973 123.425 161.694 123.425C161.514 123.425 161.357 123.459 161.224 123.529C161.096 123.599 160.988 123.695 160.901 123.817C160.814 123.938 160.75 124.081 160.71 124.243C160.669 124.406 160.649 124.58 160.649 124.766V126.595H161.746V127.222H158.976V126.595H159.969V123.529H159.081V122.902ZM172.673 120.202L173.283 120.394L170.748 128.145L170.13 127.954L172.673 120.202ZM179.19 127.222H178.511V124.121C178.511 123.918 178.465 123.753 178.372 123.625C178.279 123.491 178.131 123.425 177.928 123.425C177.736 123.425 177.579 123.497 177.457 123.642C177.341 123.782 177.283 123.999 177.283 124.296V127.222H176.604V124.087C176.604 123.895 176.551 123.738 176.447 123.616C176.342 123.488 176.203 123.425 176.029 123.425C175.82 123.425 175.657 123.5 175.541 123.651C175.431 123.802 175.376 123.999 175.376 124.243V127.222H174.696V122.902H175.376V123.372H175.48C175.556 123.169 175.666 123.021 175.811 122.928C175.956 122.829 176.128 122.78 176.325 122.78C176.534 122.78 176.705 122.835 176.839 122.946C176.978 123.056 177.074 123.198 177.126 123.372H177.231C177.428 122.978 177.742 122.78 178.171 122.78C178.497 122.78 178.746 122.885 178.92 123.094C179.1 123.297 179.19 123.564 179.19 123.895V127.222ZM183.356 122.902H184.035V127.222H183.356V126.438H183.252C183.112 126.717 182.929 126.937 182.703 127.1C182.476 127.263 182.189 127.344 181.841 127.344C181.603 127.344 181.382 127.303 181.179 127.222C180.981 127.146 180.81 127.03 180.665 126.874C180.526 126.717 180.415 126.522 180.334 126.29C180.258 126.058 180.221 125.788 180.221 125.48V122.902H180.9V125.393C180.9 125.846 180.993 126.177 181.179 126.386C181.365 126.595 181.649 126.699 182.032 126.699C182.445 126.699 182.767 126.56 182.999 126.281C183.237 125.997 183.356 125.619 183.356 125.149V122.902ZM186.407 124.017C186.407 124.226 186.494 124.386 186.668 124.496C186.848 124.606 187.174 124.679 187.644 124.714C188.149 124.754 188.532 124.876 188.793 125.079C189.061 125.277 189.194 125.567 189.194 125.95V126.003C189.194 126.212 189.151 126.4 189.063 126.569C188.982 126.731 188.866 126.871 188.715 126.987C188.57 127.103 188.39 127.19 188.175 127.248C187.966 127.312 187.737 127.344 187.487 127.344C187.15 127.344 186.86 127.3 186.616 127.213C186.378 127.12 186.178 127.001 186.015 126.856C185.858 126.705 185.739 126.537 185.658 126.351C185.577 126.159 185.53 125.968 185.519 125.776L186.163 125.619C186.192 125.95 186.32 126.217 186.546 126.421C186.773 126.618 187.075 126.717 187.452 126.717C187.772 126.717 188.027 126.656 188.219 126.534C188.416 126.406 188.515 126.229 188.515 126.003C188.515 125.759 188.419 125.585 188.227 125.48C188.036 125.376 187.725 125.309 187.295 125.28C186.796 125.245 186.413 125.129 186.146 124.931C185.879 124.734 185.745 124.447 185.745 124.069V124.017C185.745 123.814 185.789 123.637 185.876 123.486C185.963 123.329 186.079 123.198 186.224 123.094C186.375 122.989 186.544 122.911 186.729 122.858C186.915 122.806 187.11 122.78 187.313 122.78C187.597 122.78 187.847 122.821 188.062 122.902C188.277 122.978 188.457 123.079 188.602 123.207C188.747 123.329 188.857 123.471 188.933 123.634C189.014 123.796 189.066 123.959 189.09 124.121L188.445 124.278C188.416 123.999 188.303 123.782 188.105 123.625C187.914 123.468 187.661 123.39 187.348 123.39C187.226 123.39 187.107 123.404 186.991 123.433C186.88 123.457 186.782 123.494 186.695 123.547C186.607 123.599 186.538 123.666 186.485 123.747C186.433 123.822 186.407 123.912 186.407 124.017ZM191.243 125.271C191.261 125.701 191.394 126.046 191.644 126.307C191.894 126.569 192.242 126.699 192.689 126.699C192.892 126.699 193.07 126.676 193.221 126.63C193.372 126.583 193.499 126.519 193.604 126.438C193.714 126.357 193.801 126.264 193.865 126.159C193.935 126.049 193.99 125.933 194.031 125.811L194.675 125.985C194.553 126.386 194.327 126.714 193.996 126.969C193.671 127.219 193.229 127.344 192.672 127.344C192.364 127.344 192.08 127.292 191.818 127.187C191.563 127.077 191.342 126.923 191.156 126.725C190.971 126.528 190.825 126.293 190.721 126.02C190.616 125.747 190.564 125.445 190.564 125.114V124.905C190.564 124.603 190.616 124.322 190.721 124.06C190.831 123.799 190.982 123.576 191.174 123.39C191.365 123.198 191.589 123.05 191.844 122.946C192.106 122.835 192.387 122.78 192.689 122.78C193.043 122.78 193.348 122.847 193.604 122.98C193.865 123.108 194.077 123.268 194.24 123.459C194.408 123.651 194.53 123.86 194.605 124.087C194.687 124.313 194.727 124.522 194.727 124.714V125.271H191.243ZM192.689 123.425C192.498 123.425 192.318 123.457 192.149 123.52C191.987 123.578 191.842 123.663 191.714 123.773C191.592 123.883 191.49 124.014 191.409 124.165C191.333 124.31 191.284 124.47 191.261 124.644H194.048C194.036 124.458 193.99 124.29 193.909 124.139C193.833 123.988 193.731 123.86 193.604 123.756C193.482 123.651 193.34 123.57 193.177 123.512C193.02 123.454 192.858 123.425 192.689 123.425Z" fill="#00A6A6"/>
<path d="M120.303 135.068L120.912 135.26L118.378 143.011L117.76 142.82L120.303 135.068ZM125.749 137.768H126.428V142.088H125.749V141.304H125.644C125.505 141.583 125.322 141.804 125.096 141.966C124.869 142.129 124.582 142.21 124.233 142.21C123.995 142.21 123.775 142.169 123.571 142.088C123.374 142.013 123.203 141.897 123.058 141.74C122.918 141.583 122.808 141.388 122.727 141.156C122.651 140.924 122.613 140.654 122.613 140.346V137.768H123.293V140.259C123.293 140.712 123.386 141.043 123.571 141.252C123.757 141.461 124.042 141.566 124.425 141.566C124.837 141.566 125.159 141.426 125.392 141.148C125.63 140.863 125.749 140.486 125.749 140.015V137.768ZM128.425 143.83H127.746V137.768H128.425V138.448H128.53C128.681 138.186 128.89 137.989 129.157 137.855C129.424 137.716 129.714 137.646 130.028 137.646C130.295 137.646 130.547 137.696 130.786 137.794C131.024 137.893 131.233 138.035 131.413 138.221C131.598 138.407 131.744 138.636 131.848 138.909C131.958 139.182 132.014 139.493 132.014 139.841V140.015C132.014 140.369 131.961 140.683 131.857 140.956C131.752 141.229 131.607 141.458 131.421 141.644C131.241 141.83 131.029 141.972 130.786 142.071C130.542 142.164 130.283 142.21 130.01 142.21C129.871 142.21 129.729 142.193 129.584 142.158C129.438 142.129 129.299 142.082 129.166 142.018C129.038 141.949 128.919 141.867 128.808 141.775C128.698 141.676 128.605 141.56 128.53 141.426H128.425V143.83ZM129.871 141.566C130.08 141.566 130.272 141.531 130.446 141.461C130.62 141.386 130.771 141.281 130.899 141.148C131.032 141.014 131.134 140.851 131.204 140.66C131.279 140.468 131.317 140.253 131.317 140.015V139.841C131.317 139.609 131.279 139.4 131.204 139.214C131.134 139.022 131.032 138.86 130.899 138.726C130.771 138.587 130.617 138.48 130.437 138.404C130.263 138.329 130.074 138.291 129.871 138.291C129.668 138.291 129.479 138.331 129.305 138.413C129.131 138.488 128.977 138.596 128.843 138.735C128.716 138.874 128.614 139.043 128.538 139.24C128.463 139.432 128.425 139.644 128.425 139.876V139.98C128.425 140.219 128.463 140.436 128.538 140.634C128.614 140.825 128.716 140.991 128.843 141.13C128.977 141.269 129.131 141.377 129.305 141.452C129.479 141.528 129.668 141.566 129.871 141.566ZM136.484 141.426H136.38C136.31 141.56 136.22 141.676 136.11 141.775C136.005 141.873 135.889 141.955 135.761 142.018C135.639 142.082 135.509 142.129 135.369 142.158C135.23 142.193 135.096 142.21 134.969 142.21C134.678 142.21 134.408 142.161 134.159 142.062C133.909 141.963 133.688 141.821 133.497 141.635C133.311 141.449 133.163 141.22 133.053 140.947C132.948 140.668 132.896 140.352 132.896 139.998V139.859C132.896 139.51 132.951 139.2 133.061 138.927C133.172 138.648 133.32 138.416 133.506 138.23C133.691 138.038 133.909 137.893 134.159 137.794C134.408 137.696 134.673 137.646 134.951 137.646C135.247 137.646 135.523 137.713 135.779 137.847C136.04 137.974 136.24 138.175 136.38 138.448H136.484V135.992H137.163V142.088H136.484V141.426ZM135.038 141.566C135.242 141.566 135.43 141.528 135.604 141.452C135.779 141.377 135.93 141.269 136.057 141.13C136.191 140.991 136.295 140.825 136.371 140.634C136.446 140.436 136.484 140.219 136.484 139.98V139.876C136.484 139.644 136.446 139.432 136.371 139.24C136.295 139.043 136.191 138.874 136.057 138.735C135.93 138.596 135.776 138.488 135.596 138.413C135.422 138.331 135.236 138.291 135.038 138.291C134.835 138.291 134.644 138.329 134.464 138.404C134.289 138.48 134.135 138.587 134.002 138.726C133.874 138.866 133.773 139.031 133.697 139.223C133.627 139.414 133.593 139.626 133.593 139.859V139.998C133.593 140.242 133.627 140.459 133.697 140.651C133.773 140.843 133.874 141.008 134.002 141.148C134.135 141.281 134.289 141.386 134.464 141.461C134.638 141.531 134.829 141.566 135.038 141.566ZM141.512 141.357H141.408C141.268 141.647 141.074 141.862 140.824 142.001C140.58 142.14 140.322 142.21 140.049 142.21C139.764 142.21 139.5 142.164 139.256 142.071C139.013 141.972 138.798 141.83 138.612 141.644C138.432 141.452 138.29 141.22 138.185 140.947C138.081 140.674 138.028 140.358 138.028 139.998V139.859C138.028 139.504 138.081 139.191 138.185 138.918C138.29 138.645 138.432 138.416 138.612 138.23C138.798 138.038 139.013 137.893 139.256 137.794C139.5 137.696 139.759 137.646 140.032 137.646C140.328 137.646 140.595 137.713 140.833 137.847C141.077 137.974 141.268 138.175 141.408 138.448H141.512V137.768H142.191V141.2C142.191 141.374 142.27 141.461 142.427 141.461H142.644V142.088H142.183C141.985 142.088 141.823 142.024 141.695 141.897C141.573 141.769 141.512 141.606 141.512 141.409V141.357ZM140.119 141.566C140.322 141.566 140.508 141.528 140.676 141.452C140.85 141.377 140.998 141.269 141.12 141.13C141.242 140.991 141.338 140.825 141.408 140.634C141.477 140.436 141.512 140.219 141.512 139.98V139.876C141.512 139.644 141.477 139.432 141.408 139.24C141.338 139.043 141.239 138.874 141.112 138.735C140.99 138.596 140.842 138.488 140.667 138.413C140.499 138.331 140.316 138.291 140.119 138.291C139.915 138.291 139.73 138.329 139.561 138.404C139.393 138.48 139.245 138.587 139.117 138.726C138.995 138.86 138.899 139.025 138.83 139.223C138.76 139.414 138.725 139.626 138.725 139.859V139.998C138.725 140.491 138.853 140.878 139.108 141.156C139.37 141.429 139.706 141.566 140.119 141.566ZM143.466 137.768H144.824V135.992H145.504V137.768H147.176V138.395H145.504V141.2C145.504 141.374 145.582 141.461 145.739 141.461H146.967V142.088H145.495C145.298 142.088 145.135 142.024 145.007 141.897C144.885 141.769 144.824 141.606 144.824 141.409V138.395H143.466V137.768ZM149.347 140.137C149.365 140.567 149.498 140.912 149.748 141.174C149.998 141.435 150.346 141.566 150.793 141.566C150.996 141.566 151.173 141.542 151.324 141.496C151.475 141.449 151.603 141.386 151.708 141.304C151.818 141.223 151.905 141.13 151.969 141.026C152.038 140.915 152.094 140.799 152.134 140.677L152.779 140.851C152.657 141.252 152.43 141.58 152.099 141.836C151.774 142.085 151.333 142.21 150.776 142.21C150.468 142.21 150.183 142.158 149.922 142.053C149.667 141.943 149.446 141.789 149.26 141.592C149.074 141.394 148.929 141.159 148.825 140.886C148.72 140.613 148.668 140.311 148.668 139.98V139.771C148.668 139.469 148.72 139.188 148.825 138.927C148.935 138.665 149.086 138.442 149.278 138.256C149.469 138.064 149.693 137.916 149.948 137.812C150.209 137.701 150.491 137.646 150.793 137.646C151.147 137.646 151.452 137.713 151.708 137.847C151.969 137.974 152.181 138.134 152.343 138.326C152.512 138.517 152.634 138.726 152.709 138.953C152.79 139.179 152.831 139.388 152.831 139.58V140.137H149.347ZM150.793 138.291C150.601 138.291 150.421 138.323 150.253 138.387C150.09 138.445 149.945 138.529 149.818 138.639C149.696 138.75 149.594 138.88 149.513 139.031C149.437 139.176 149.388 139.336 149.365 139.51H152.152C152.14 139.324 152.094 139.156 152.012 139.005C151.937 138.854 151.835 138.726 151.708 138.622C151.586 138.517 151.443 138.436 151.281 138.378C151.124 138.32 150.961 138.291 150.793 138.291Z" fill="#00A6A6"/>
<path d="M120.303 149.935L120.912 150.126L118.378 157.878L117.76 157.686L120.303 149.935ZM123.162 155.004C123.18 155.433 123.313 155.779 123.563 156.04C123.812 156.301 124.161 156.432 124.608 156.432C124.811 156.432 124.988 156.409 125.139 156.362C125.29 156.316 125.418 156.252 125.522 156.171C125.633 156.089 125.72 155.997 125.784 155.892C125.853 155.782 125.908 155.666 125.949 155.544L126.594 155.718C126.472 156.118 126.245 156.447 125.914 156.702C125.589 156.952 125.148 157.077 124.59 157.077C124.283 157.077 123.998 157.024 123.737 156.92C123.481 156.809 123.261 156.656 123.075 156.458C122.889 156.261 122.744 156.026 122.64 155.753C122.535 155.48 122.483 155.178 122.483 154.847V154.638C122.483 154.336 122.535 154.054 122.64 153.793C122.75 153.532 122.901 153.308 123.092 153.122C123.284 152.931 123.508 152.783 123.763 152.678C124.024 152.568 124.306 152.513 124.608 152.513C124.962 152.513 125.267 152.58 125.522 152.713C125.784 152.841 125.996 153.001 126.158 153.192C126.327 153.384 126.448 153.593 126.524 153.819C126.605 154.046 126.646 154.255 126.646 154.446V155.004H123.162ZM124.608 153.157C124.416 153.157 124.236 153.189 124.068 153.253C123.905 153.311 123.76 153.395 123.632 153.506C123.51 153.616 123.409 153.747 123.328 153.898C123.252 154.043 123.203 154.202 123.18 154.377H125.967C125.955 154.191 125.908 154.022 125.827 153.871C125.752 153.72 125.65 153.593 125.522 153.488C125.4 153.384 125.258 153.302 125.096 153.244C124.939 153.186 124.776 153.157 124.608 153.157ZM130.977 152.635H131.752L130.481 154.69V154.795L131.857 156.955H131.064L129.888 155.056H129.732L128.556 156.955H127.763L129.139 154.795V154.69L127.868 152.635H128.643L129.732 154.429H129.888L130.977 152.635ZM134.481 151.346C134.481 151.177 134.539 151.035 134.655 150.919C134.777 150.797 134.922 150.736 135.091 150.736C135.259 150.736 135.401 150.797 135.517 150.919C135.639 151.035 135.7 151.177 135.7 151.346C135.7 151.514 135.639 151.659 135.517 151.781C135.401 151.897 135.259 151.955 135.091 151.955C134.922 151.955 134.777 151.897 134.655 151.781C134.539 151.659 134.481 151.514 134.481 151.346ZM133.244 156.328H134.76V153.262H133.401V152.635H135.439V156.328H136.85V156.955H133.244V156.328ZM138.229 152.635H139.587V150.858H140.267V152.635H141.939V153.262H140.267V156.066C140.267 156.24 140.345 156.328 140.502 156.328H141.73V156.955H140.258C140.061 156.955 139.898 156.891 139.77 156.763C139.648 156.635 139.587 156.473 139.587 156.275V153.262H138.229V152.635ZM152.927 154.847C152.927 155.207 152.866 155.526 152.744 155.805C152.628 156.078 152.471 156.31 152.274 156.502C152.076 156.688 151.844 156.83 151.577 156.928C151.316 157.027 151.043 157.077 150.758 157.077C150.468 157.077 150.192 157.027 149.931 156.928C149.669 156.83 149.44 156.688 149.243 156.502C149.045 156.31 148.886 156.078 148.764 155.805C148.648 155.526 148.59 155.207 148.59 154.847V154.742C148.59 154.388 148.648 154.075 148.764 153.802C148.886 153.523 149.045 153.288 149.243 153.096C149.446 152.905 149.678 152.76 149.939 152.661C150.201 152.562 150.474 152.513 150.758 152.513C151.043 152.513 151.316 152.562 151.577 152.661C151.838 152.76 152.067 152.905 152.265 153.096C152.468 153.288 152.628 153.523 152.744 153.802C152.866 154.075 152.927 154.388 152.927 154.742V154.847ZM150.758 156.432C150.967 156.432 151.159 156.397 151.333 156.328C151.513 156.252 151.67 156.145 151.803 156.005C151.937 155.866 152.041 155.7 152.117 155.509C152.192 155.311 152.23 155.091 152.23 154.847V154.742C152.23 154.51 152.192 154.298 152.117 154.107C152.041 153.909 151.937 153.741 151.803 153.601C151.67 153.462 151.513 153.355 151.333 153.279C151.153 153.198 150.961 153.157 150.758 153.157C150.555 153.157 150.363 153.198 150.183 153.279C150.003 153.355 149.847 153.462 149.713 153.601C149.579 153.741 149.475 153.909 149.4 154.107C149.324 154.298 149.286 154.51 149.286 154.742V154.847C149.286 155.091 149.324 155.311 149.4 155.509C149.475 155.7 149.579 155.866 149.713 156.005C149.847 156.145 150 156.252 150.175 156.328C150.355 156.397 150.549 156.432 150.758 156.432ZM153.844 152.635H155.412V153.21H155.516C155.627 152.971 155.783 152.797 155.986 152.687C156.19 152.571 156.422 152.513 156.683 152.513C157.119 152.513 157.47 152.655 157.737 152.94C158.004 153.224 158.146 153.639 158.164 154.185L157.45 154.289C157.45 153.889 157.354 153.601 157.162 153.427C156.971 153.247 156.736 153.157 156.457 153.157C156.277 153.157 156.12 153.192 155.986 153.262C155.859 153.331 155.751 153.427 155.664 153.549C155.577 153.671 155.513 153.813 155.473 153.976C155.432 154.139 155.412 154.313 155.412 154.499V156.328H156.509V156.955H153.739V156.328H154.732V153.262H153.844V152.635ZM164.649 154.568V153.244L168.29 151.99V152.722L164.91 153.854V153.959L168.29 155.091V155.822L164.649 154.568ZM171.741 156.397C171.991 156.397 172.203 156.357 172.377 156.275C172.557 156.188 172.702 156.075 172.812 155.936C172.929 155.79 173.013 155.628 173.065 155.448C173.123 155.262 173.152 155.068 173.152 154.864V154.76H173.884V154.864C173.884 155.172 173.837 155.462 173.744 155.735C173.651 156.002 173.515 156.238 173.335 156.441C173.155 156.638 172.931 156.795 172.664 156.911C172.397 157.021 172.09 157.077 171.741 157.077C171.068 157.077 170.542 156.865 170.165 156.441C169.787 156.017 169.599 155.399 169.599 154.586V153.227C169.599 152.437 169.787 151.825 170.165 151.389C170.542 150.954 171.068 150.736 171.741 150.736C172.09 150.736 172.397 150.794 172.664 150.91C172.931 151.021 173.155 151.177 173.335 151.381C173.515 151.578 173.651 151.813 173.744 152.086C173.837 152.353 173.884 152.641 173.884 152.948V153.053H173.152V152.948C173.146 152.751 173.114 152.559 173.056 152.373C173.004 152.188 172.92 152.025 172.804 151.886C172.693 151.741 172.551 151.627 172.377 151.546C172.203 151.459 171.991 151.415 171.741 151.415C171.271 151.415 170.917 151.587 170.679 151.929C170.446 152.272 170.33 152.722 170.33 153.279V154.533C170.33 155.131 170.446 155.593 170.679 155.918C170.917 156.238 171.271 156.397 171.741 156.397ZM174.801 150.858H179.086V151.537H177.309V156.955H176.578V151.537H174.801V150.858ZM184.088 156.955H183.356V154.917C183.356 154.766 183.321 154.649 183.252 154.568C183.182 154.487 183.06 154.446 182.886 154.446H180.987V156.955H180.256V150.858H182.433C182.746 150.858 183.019 150.904 183.252 150.997C183.484 151.084 183.675 151.203 183.826 151.354C183.983 151.505 184.099 151.682 184.175 151.886C184.256 152.083 184.297 152.292 184.297 152.513V152.774C184.297 153.001 184.233 153.227 184.105 153.453C183.983 153.68 183.792 153.854 183.53 153.976V154.08C183.705 154.11 183.841 154.179 183.94 154.289C184.038 154.4 184.088 154.557 184.088 154.76V156.955ZM180.987 153.767H182.346C182.758 153.767 183.063 153.68 183.26 153.506C183.464 153.326 183.565 153.064 183.565 152.722V152.565C183.565 152.257 183.464 152.011 183.26 151.825C183.063 151.633 182.758 151.537 182.346 151.537H180.987V153.767ZM185.51 150.858H186.242V156.275H189.429V156.955H185.51V150.858ZM190.834 153.593H192.341V152.086H192.968V153.593H194.475V154.22H192.968V155.727H192.341V154.22H190.834V153.593ZM195.862 150.858H197.865C198.62 150.858 199.172 151.038 199.52 151.398C199.868 151.758 200.043 152.333 200.043 153.122V154.69C200.043 155.48 199.868 156.055 199.52 156.415C199.172 156.775 198.62 156.955 197.865 156.955H195.862V156.267H196.385V151.537H195.862V150.858ZM197.761 156.275C198.028 156.275 198.257 156.249 198.449 156.197C198.646 156.145 198.809 156.058 198.937 155.936C199.064 155.808 199.157 155.639 199.215 155.43C199.279 155.221 199.311 154.957 199.311 154.638V153.175C199.311 152.855 199.279 152.591 199.215 152.382C199.157 152.173 199.064 152.008 198.937 151.886C198.809 151.758 198.646 151.668 198.449 151.616C198.257 151.563 198.028 151.537 197.761 151.537H197.116V156.275H197.761ZM201.308 155.822V155.091L204.687 153.959V153.854L201.308 152.722V151.99L204.949 153.244V154.568L201.308 155.822Z" fill="#00A6A6"/>
<path d="M20.2959 27.25H318.898C321.365 27.25 323.363 29.2497 323.363 31.7158V47.6064H15.8301V31.7158C15.8301 29.2497 17.8298 27.25 20.2959 27.25Z" fill="#E4E4E4" stroke="#D4D4D4" stroke-width="0.5"/>
<circle cx="28.5961" cy="37.5248" r="3.5365" fill="#1EB6CB"/>
<circle cx="38.6146" cy="37.5248" r="3.5365" fill="#30EDE6"/>
<circle cx="48.6351" cy="37.5248" r="3.5365" fill="#1ECB83"/>
<g clip-path="url(#clip0_2765_3040)">
<path d="M265.526 55.813L277.886 86.8169H271.702L259.342 55.813H265.526ZM251.883 55.813L264.242 86.8169H257.924L255.427 80.3813L255.341 80.1606H241.65L241.564 80.3813L239.065 86.8149H232.749L245.11 55.813H251.883ZM248.173 63.356L243.85 74.4976L243.667 74.9692H252.961L253.062 74.8677L253.063 74.8657L253.224 74.7065L253.142 74.4956L248.818 63.356L248.496 62.5249L248.173 63.356Z" stroke="url(#paint0_linear_2765_3040)" stroke-width="0.69238"/>
<mask id="path-17-inside-1_2765_3040" fill="white">
<path d="M274.849 126.808C275.358 125.273 275.535 123.646 275.366 122.037C275.197 120.429 274.687 118.875 273.869 117.479C272.657 115.369 270.806 113.699 268.584 112.709C266.361 111.719 263.882 111.46 261.502 111.97C260.151 110.466 258.427 109.345 256.505 108.718C254.583 108.092 252.53 107.982 250.552 108.4C248.574 108.818 246.741 109.749 245.236 111.1C243.732 112.45 242.61 114.173 241.982 116.095C240.397 116.42 238.9 117.079 237.59 118.029C236.28 118.98 235.189 120.198 234.388 121.604C233.163 123.71 232.639 126.151 232.892 128.575C233.146 130.998 234.164 133.278 235.799 135.085C235.287 136.62 235.109 138.246 235.276 139.854C235.444 141.463 235.953 143.018 236.769 144.414C237.983 146.524 239.835 148.195 242.059 149.185C244.283 150.175 246.765 150.434 249.145 149.923C250.219 151.132 251.538 152.099 253.015 152.757C254.492 153.416 256.093 153.752 257.71 153.743C260.148 153.745 262.524 152.973 264.495 151.536C266.466 150.1 267.929 148.075 268.674 145.753C270.259 145.428 271.756 144.768 273.066 143.818C274.375 142.868 275.467 141.65 276.269 140.244C277.479 138.141 277.994 135.709 277.739 133.296C277.484 130.882 276.472 128.611 274.849 126.808ZM257.71 150.759C255.713 150.762 253.778 150.062 252.246 148.782L252.515 148.629L261.592 143.389C261.818 143.257 262.006 143.068 262.137 142.841C262.267 142.614 262.337 142.357 262.338 142.095V129.297L266.176 131.517C266.195 131.527 266.211 131.541 266.224 131.558C266.236 131.575 266.244 131.595 266.248 131.616V142.221C266.243 144.484 265.342 146.653 263.742 148.253C262.142 149.853 259.973 150.754 257.71 150.759ZM239.358 142.922C238.356 141.193 237.996 139.165 238.342 137.197L238.612 137.359L247.698 142.599C247.923 142.73 248.179 142.8 248.439 142.8C248.7 142.8 248.956 142.73 249.181 142.599L260.28 136.199V140.63C260.279 140.653 260.273 140.676 260.262 140.696C260.251 140.716 260.236 140.734 260.217 140.747L251.023 146.05C249.061 147.18 246.731 147.485 244.543 146.899C242.356 146.313 240.491 144.882 239.358 142.922ZM236.967 123.15C237.976 121.409 239.567 120.082 241.461 119.402V130.187C241.457 130.448 241.524 130.704 241.654 130.93C241.783 131.156 241.971 131.343 242.198 131.472L253.243 137.844L249.406 140.064C249.385 140.075 249.362 140.081 249.338 140.081C249.315 140.081 249.291 140.075 249.271 140.064L240.095 134.771C238.136 133.635 236.708 131.77 236.121 129.584C235.535 127.397 235.839 125.068 236.967 123.105V123.15ZM268.495 130.475L257.413 124.04L261.242 121.828C261.263 121.817 261.286 121.812 261.309 121.812C261.333 121.812 261.356 121.817 261.377 121.828L270.553 127.131C271.956 127.941 273.099 129.133 273.85 130.568C274.601 132.003 274.929 133.622 274.794 135.236C274.659 136.851 274.068 138.393 273.089 139.684C272.111 140.975 270.785 141.961 269.268 142.526V131.742C269.26 131.481 269.184 131.228 269.049 131.006C268.913 130.784 268.722 130.601 268.495 130.475ZM272.314 124.732L272.045 124.57L262.976 119.285C262.75 119.153 262.493 119.083 262.23 119.083C261.968 119.083 261.711 119.153 261.484 119.285L250.394 125.684V121.254C250.392 121.231 250.396 121.208 250.405 121.188C250.415 121.167 250.43 121.15 250.448 121.137L259.624 115.843C261.031 115.033 262.639 114.64 264.26 114.71C265.882 114.78 267.45 115.311 268.781 116.239C270.112 117.168 271.151 118.456 271.777 119.954C272.403 121.451 272.589 123.096 272.314 124.696L272.314 124.732ZM248.3 132.586L244.463 130.375C244.443 130.364 244.427 130.348 244.415 130.33C244.402 130.311 244.394 130.29 244.39 130.268V119.69C244.393 118.067 244.857 116.478 245.728 115.11C246.6 113.741 247.843 112.649 249.313 111.961C250.783 111.272 252.418 111.017 254.027 111.224C255.637 111.431 257.154 112.091 258.402 113.129L258.132 113.282L249.055 118.521C248.829 118.654 248.642 118.843 248.511 119.07C248.38 119.296 248.311 119.553 248.309 119.815L248.3 132.586ZM250.385 128.093L255.328 125.244L260.28 128.093V133.791L255.346 136.64L250.394 133.791L250.385 128.093Z"/>
</mask>
<path d="M274.849 126.808C275.358 125.273 275.535 123.646 275.366 122.037C275.197 120.429 274.687 118.875 273.869 117.479C272.657 115.369 270.806 113.699 268.584 112.709C266.361 111.719 263.882 111.46 261.502 111.97C260.151 110.466 258.427 109.345 256.505 108.718C254.583 108.092 252.53 107.982 250.552 108.4C248.574 108.818 246.741 109.749 245.236 111.1C243.732 112.45 242.61 114.173 241.982 116.095C240.397 116.42 238.9 117.079 237.59 118.029C236.28 118.98 235.189 120.198 234.388 121.604C233.163 123.71 232.639 126.151 232.892 128.575C233.146 130.998 234.164 133.278 235.799 135.085C235.287 136.62 235.109 138.246 235.276 139.854C235.444 141.463 235.953 143.018 236.769 144.414C237.983 146.524 239.835 148.195 242.059 149.185C244.283 150.175 246.765 150.434 249.145 149.923C250.219 151.132 251.538 152.099 253.015 152.757C254.492 153.416 256.093 153.752 257.71 153.743C260.148 153.745 262.524 152.973 264.495 151.536C266.466 150.1 267.929 148.075 268.674 145.753C270.259 145.428 271.756 144.768 273.066 143.818C274.375 142.868 275.467 141.65 276.269 140.244C277.479 138.141 277.994 135.709 277.739 133.296C277.484 130.882 276.472 128.611 274.849 126.808ZM257.71 150.759C255.713 150.762 253.778 150.062 252.246 148.782L252.515 148.629L261.592 143.389C261.818 143.257 262.006 143.068 262.137 142.841C262.267 142.614 262.337 142.357 262.338 142.095V129.297L266.176 131.517C266.195 131.527 266.211 131.541 266.224 131.558C266.236 131.575 266.244 131.595 266.248 131.616V142.221C266.243 144.484 265.342 146.653 263.742 148.253C262.142 149.853 259.973 150.754 257.71 150.759ZM239.358 142.922C238.356 141.193 237.996 139.165 238.342 137.197L238.612 137.359L247.698 142.599C247.923 142.73 248.179 142.8 248.439 142.8C248.7 142.8 248.956 142.73 249.181 142.599L260.28 136.199V140.63C260.279 140.653 260.273 140.676 260.262 140.696C260.251 140.716 260.236 140.734 260.217 140.747L251.023 146.05C249.061 147.18 246.731 147.485 244.543 146.899C242.356 146.313 240.491 144.882 239.358 142.922ZM236.967 123.15C237.976 121.409 239.567 120.082 241.461 119.402V130.187C241.457 130.448 241.524 130.704 241.654 130.93C241.783 131.156 241.971 131.343 242.198 131.472L253.243 137.844L249.406 140.064C249.385 140.075 249.362 140.081 249.338 140.081C249.315 140.081 249.291 140.075 249.271 140.064L240.095 134.771C238.136 133.635 236.708 131.77 236.121 129.584C235.535 127.397 235.839 125.068 236.967 123.105V123.15ZM268.495 130.475L257.413 124.04L261.242 121.828C261.263 121.817 261.286 121.812 261.309 121.812C261.333 121.812 261.356 121.817 261.377 121.828L270.553 127.131C271.956 127.941 273.099 129.133 273.85 130.568C274.601 132.003 274.929 133.622 274.794 135.236C274.659 136.851 274.068 138.393 273.089 139.684C272.111 140.975 270.785 141.961 269.268 142.526V131.742C269.26 131.481 269.184 131.228 269.049 131.006C268.913 130.784 268.722 130.601 268.495 130.475ZM272.314 124.732L272.045 124.57L262.976 119.285C262.75 119.153 262.493 119.083 262.23 119.083C261.968 119.083 261.711 119.153 261.484 119.285L250.394 125.684V121.254C250.392 121.231 250.396 121.208 250.405 121.188C250.415 121.167 250.43 121.15 250.448 121.137L259.624 115.843C261.031 115.033 262.639 114.64 264.26 114.71C265.882 114.78 267.45 115.311 268.781 116.239C270.112 117.168 271.151 118.456 271.777 119.954C272.403 121.451 272.589 123.096 272.314 124.696L272.314 124.732ZM248.3 132.586L244.463 130.375C244.443 130.364 244.427 130.348 244.415 130.33C244.402 130.311 244.394 130.29 244.39 130.268V119.69C244.393 118.067 244.857 116.478 245.728 115.11C246.6 113.741 247.843 112.649 249.313 111.961C250.783 111.272 252.418 111.017 254.027 111.224C255.637 111.431 257.154 112.091 258.402 113.129L258.132 113.282L249.055 118.521C248.829 118.654 248.642 118.843 248.511 119.07C248.38 119.296 248.311 119.553 248.309 119.815L248.3 132.586ZM250.385 128.093L255.328 125.244L260.28 128.093V133.791L255.346 136.64L250.394 133.791L250.385 128.093Z" stroke="url(#paint1_linear_2765_3040)" stroke-width="1.36777" mask="url(#path-17-inside-1_2765_3040)"/>
<mask id="path-18-inside-2_2765_3040" fill="white">
<path d="M255.735 169.379C261.53 169.379 266.371 171.502 270.091 174.959L264.034 180.873C262.484 179.418 259.765 177.677 255.735 177.677C250.06 177.677 245.244 181.422 243.503 186.596C243.074 187.931 242.812 189.362 242.812 190.84C242.812 192.134 243.012 193.391 243.365 194.58L243.526 195.084C245.243 200.259 250.06 204.003 255.735 204.003C258.93 204.003 261.362 203.12 263.174 201.857H263.175C266.036 199.854 267.323 196.873 267.562 194.894H255.734V186.929H275.884C276.194 188.264 276.337 189.552 276.337 191.317C276.337 197.85 274 203.358 269.946 207.102L269.947 207.103C266.394 210.394 261.53 212.301 255.735 212.301C247.342 212.301 240.093 207.485 236.563 200.474V200.473C235.109 197.564 234.274 194.298 234.274 190.84C234.274 187.599 235.008 184.524 236.298 181.755L236.563 181.207C240.093 174.196 247.342 169.379 255.735 169.379Z"/>
</mask>
<path d="M255.735 169.379V168.733H255.735L255.735 169.379ZM270.091 174.959L270.542 175.422L271.027 174.948L270.531 174.486L270.091 174.959ZM264.034 180.873L263.592 181.344L264.043 181.767L264.485 181.335L264.034 180.873ZM255.735 177.677V177.031H255.735L255.735 177.677ZM243.503 186.596L242.891 186.39L242.888 186.399L243.503 186.596ZM242.812 190.84H242.165V190.84L242.812 190.84ZM243.365 194.58L242.746 194.764L242.75 194.776L243.365 194.58ZM243.526 195.084L242.911 195.281L242.913 195.288L243.526 195.084ZM255.735 204.003L255.735 204.649H255.735V204.003ZM263.174 201.857V201.211H262.971L262.804 201.327L263.174 201.857ZM263.175 201.857V202.503H263.378L263.545 202.386L263.175 201.857ZM267.562 194.894L268.203 194.971L268.29 194.248H267.562V194.894ZM255.734 194.894H255.088V195.54H255.734V194.894ZM255.734 186.929V186.283H255.088V186.929H255.734ZM275.884 186.929L276.513 186.783L276.397 186.283H275.884V186.929ZM276.337 191.317H276.983V191.317L276.337 191.317ZM269.946 207.102L269.508 206.627L269.014 207.084L269.489 207.559L269.946 207.102ZM269.947 207.103L270.386 207.577L270.879 207.121L270.404 206.646L269.947 207.103ZM255.735 212.301L255.735 212.947H255.735V212.301ZM236.563 200.474H235.917V200.628L235.986 200.765L236.563 200.474ZM236.563 200.473H237.21V200.321L237.141 200.184L236.563 200.473ZM234.274 190.84H233.628V190.84L234.274 190.84ZM236.298 181.755L235.716 181.474L235.712 181.482L236.298 181.755ZM236.563 181.207L235.986 180.916L235.982 180.925L236.563 181.207ZM255.735 169.379V170.025C261.36 170.025 266.046 172.082 269.651 175.433L270.091 174.959L270.531 174.486C266.696 170.922 261.699 168.733 255.735 168.733V169.379ZM270.091 174.959L269.64 174.497L263.583 180.41L264.034 180.873L264.485 181.335L270.542 175.422L270.091 174.959ZM264.034 180.873L264.476 180.401C262.838 178.864 259.968 177.031 255.735 177.031V177.677V178.323C259.562 178.323 262.13 179.972 263.592 181.344L264.034 180.873ZM255.735 177.677L255.735 177.031C249.766 177.031 244.715 180.969 242.891 186.39L243.503 186.596L244.115 186.802C245.773 181.875 250.354 178.323 255.735 178.323L255.735 177.677ZM243.503 186.596L242.888 186.399C242.441 187.788 242.165 189.286 242.165 190.84H242.812H243.458C243.458 189.438 243.706 188.075 244.118 186.794L243.503 186.596ZM242.812 190.84L242.165 190.84C242.166 192.201 242.376 193.52 242.746 194.764L243.365 194.58L243.984 194.395C243.647 193.262 243.458 192.067 243.458 190.84L242.812 190.84ZM243.365 194.58L242.75 194.776L242.911 195.281L243.526 195.084L244.142 194.888L243.981 194.383L243.365 194.58ZM243.526 195.084L242.913 195.288C244.713 200.712 249.767 204.649 255.735 204.649L255.735 204.003L255.735 203.357C250.354 203.357 245.774 199.806 244.14 194.881L243.526 195.084ZM255.735 204.003V204.649C259.056 204.649 261.618 203.729 263.543 202.387L263.174 201.857L262.804 201.327C261.105 202.511 258.804 203.357 255.735 203.357V204.003ZM263.174 201.857V202.503H263.175V201.857V201.211H263.174V201.857ZM263.175 201.857L263.545 202.386C266.573 200.267 267.945 197.112 268.203 194.971L267.562 194.894L266.92 194.817C266.701 196.634 265.499 199.441 262.804 201.328L263.175 201.857ZM267.562 194.894V194.248H255.734V194.894V195.54H267.562V194.894ZM255.734 194.894H256.38V186.929H255.734H255.088V194.894H255.734ZM255.734 186.929V187.575H275.884V186.929V186.283H255.734V186.929ZM275.884 186.929L275.254 187.075C275.551 188.355 275.691 189.593 275.691 191.317L276.337 191.317L276.983 191.317C276.983 189.512 276.836 188.174 276.513 186.783L275.884 186.929ZM276.337 191.317H275.691C275.691 197.693 273.413 203.021 269.508 206.627L269.946 207.102L270.385 207.577C274.586 203.696 276.983 198.008 276.983 191.317H276.337ZM269.946 207.102L269.489 207.559L269.49 207.56L269.947 207.103L270.404 206.646L270.403 206.645L269.946 207.102ZM269.947 207.103L269.508 206.629C266.086 209.799 261.383 211.655 255.735 211.655V212.301V212.947C261.676 212.947 266.702 210.989 270.386 207.577L269.947 207.103ZM255.735 212.301L255.735 211.655C247.596 211.655 240.564 206.985 237.141 200.184L236.563 200.474L235.986 200.765C239.621 207.984 247.088 212.947 255.735 212.947L255.735 212.301ZM236.563 200.474H237.21V200.473H236.563H235.917V200.474H236.563ZM236.563 200.473L237.141 200.184C235.73 197.36 234.921 194.192 234.92 190.84L234.274 190.84L233.628 190.84C233.628 194.403 234.489 197.768 235.986 200.762L236.563 200.473ZM234.274 190.84H234.92C234.92 187.697 235.631 184.715 236.883 182.028L236.298 181.755L235.712 181.482C234.384 184.333 233.628 187.5 233.628 190.84H234.274ZM236.298 181.755L236.879 182.037L237.145 181.488L236.563 181.207L235.982 180.925L235.716 181.474L236.298 181.755ZM236.563 181.207L237.141 181.497C240.564 174.696 247.596 170.026 255.735 170.025L255.735 169.379L255.735 168.733C247.088 168.733 239.621 173.697 235.986 180.916L236.563 181.207Z" fill="url(#paint2_linear_2765_3040)" mask="url(#path-18-inside-2_2765_3040)"/>
</g>
<rect x="212" y="48" width="85.8323" height="33.6912" fill="url(#paint3_linear_2765_3040)"/>
<path d="M28.6494 69.912H33.2589V71.496H30.3918V74.5848H32.6411V76.1688H30.3918V81H28.6494V69.912ZM44.2796 81.792C43.7621 81.792 43.3397 81.6442 43.0124 81.3485C42.685 81.0528 42.5213 80.6146 42.5213 80.0338V77.1192C42.5213 76.7496 42.4527 76.5014 42.3154 76.3747C42.1781 76.2374 41.9141 76.1688 41.5234 76.1688V74.7432C41.9141 74.7432 42.1781 74.6798 42.3154 74.5531C42.4527 74.4158 42.5213 74.1624 42.5213 73.7928V70.8782C42.5213 70.2974 42.685 69.8592 43.0124 69.5635C43.3397 69.2678 43.7621 69.12 44.2796 69.12H45.1666V70.5456H44.9132C44.628 70.5456 44.4168 70.6301 44.2796 70.799C44.1423 70.9574 44.0736 71.2478 44.0736 71.6702V74.0462C44.0736 74.7854 43.7516 75.2501 43.1074 75.4402V75.4718C43.7516 75.6619 44.0736 76.1266 44.0736 76.8658V79.2418C44.0736 79.6642 44.1423 79.9598 44.2796 80.1288C44.4168 80.2872 44.628 80.3664 44.9132 80.3664H45.1666V81.792H44.2796ZM53.7102 80.3664H53.9636C54.2487 80.3664 54.4599 80.2872 54.5972 80.1288C54.7345 79.9598 54.8031 79.6642 54.8031 79.2418V76.8658C54.8031 76.1266 55.1252 75.6619 55.7694 75.4718V75.4402C55.1252 75.2501 54.8031 74.7854 54.8031 74.0462V71.6702C54.8031 71.2478 54.7345 70.9574 54.5972 70.799C54.4599 70.6301 54.2487 70.5456 53.9636 70.5456H53.7102V69.12H54.5972C55.1147 69.12 55.5371 69.2678 55.8644 69.5635C56.1918 69.8592 56.3555 70.2974 56.3555 70.8782V73.7928C56.3555 74.1624 56.4241 74.4158 56.5614 74.5531C56.6987 74.6798 56.9627 74.7432 57.3534 74.7432V76.1688C56.9627 76.1688 56.6987 76.2374 56.5614 76.3747C56.4241 76.5014 56.3555 76.7496 56.3555 77.1192V80.0338C56.3555 80.6146 56.1918 81.0528 55.8644 81.3485C55.5371 81.6442 55.1147 81.792 54.5972 81.792H53.7102V80.3664ZM66.087 69.912H68.669C69.5666 69.912 70.2213 70.1232 70.6331 70.5456C71.045 70.9574 71.2509 71.5963 71.2509 72.4622V73.1434C71.2509 74.2944 70.8707 75.023 70.1104 75.3293V75.361C70.5328 75.4877 70.8285 75.7464 70.9974 76.1371C71.177 76.5278 71.2667 77.0506 71.2667 77.7053V79.6536C71.2667 79.9704 71.2773 80.2291 71.2984 80.4298C71.3195 80.6198 71.3723 80.8099 71.4568 81H69.6827C69.6194 80.8205 69.5771 80.6515 69.556 80.4931C69.5349 80.3347 69.5243 80.0496 69.5243 79.6378V77.6102C69.5243 77.1034 69.4398 76.7496 69.2709 76.549C69.1125 76.3483 68.8326 76.248 68.4314 76.248H67.8294V81H66.087V69.912ZM68.463 74.664C68.8115 74.664 69.0702 74.5742 69.2392 74.3947C69.4187 74.2152 69.5085 73.9142 69.5085 73.4918V72.6365C69.5085 72.2352 69.4346 71.9448 69.2867 71.7653C69.1494 71.5858 68.9277 71.496 68.6214 71.496H67.8294V74.664H68.463ZM82.6924 81.1584C81.8476 81.1584 81.2035 80.9208 80.7599 80.4456C80.3164 79.9598 80.0947 79.2682 80.0947 78.3706V72.5414C80.0947 71.6438 80.3164 70.9574 80.7599 70.4822C81.2035 69.9965 81.8476 69.7536 82.6924 69.7536C83.5372 69.7536 84.1814 69.9965 84.6249 70.4822C85.0684 70.9574 85.2902 71.6438 85.2902 72.5414V73.4918H83.6428V72.4306C83.6428 71.7019 83.3419 71.3376 82.7399 71.3376C82.138 71.3376 81.8371 71.7019 81.8371 72.4306V78.4973C81.8371 79.2154 82.138 79.5744 82.7399 79.5744C83.3419 79.5744 83.6428 79.2154 83.6428 78.4973V76.3272H82.7716V74.7432H85.2902V78.3706C85.2902 79.2682 85.0684 79.9598 84.6249 80.4456C84.1814 80.9208 83.5372 81.1584 82.6924 81.1584ZM94.1547 69.912H98.9067V71.496H95.8971V74.4264H98.2889V76.0104H95.8971V79.416H98.9067V81H94.1547V69.912ZM111.52 69.912H113.025L108.653 81H107.148L111.52 69.912ZM124.012 81.1584C123.178 81.1584 122.539 80.9208 122.096 80.4456C121.663 79.9704 121.446 79.2998 121.446 78.4339V72.4781C121.446 71.6122 121.663 70.9416 122.096 70.4664C122.539 69.9912 123.178 69.7536 124.012 69.7536C124.847 69.7536 125.48 69.9912 125.913 70.4664C126.357 70.9416 126.578 71.6122 126.578 72.4781V73.6502H124.931V72.3672C124.931 71.6808 124.641 71.3376 124.06 71.3376C123.479 71.3376 123.189 71.6808 123.189 72.3672V78.5606C123.189 79.2365 123.479 79.5744 124.06 79.5744C124.641 79.5744 124.931 79.2365 124.931 78.5606V76.8658H126.578V78.4339C126.578 79.2998 126.357 79.9704 125.913 80.4456C125.48 80.9208 124.847 81.1584 124.012 81.1584ZM137.916 81.1584C137.061 81.1584 136.406 80.9155 135.952 80.4298C135.498 79.944 135.271 79.2576 135.271 78.3706V72.5414C135.271 71.6544 135.498 70.968 135.952 70.4822C136.406 69.9965 137.061 69.7536 137.916 69.7536C138.771 69.7536 139.426 69.9965 139.88 70.4822C140.334 70.968 140.561 71.6544 140.561 72.5414V78.3706C140.561 79.2576 140.334 79.944 139.88 80.4298C139.426 80.9155 138.771 81.1584 137.916 81.1584ZM137.916 79.5744C138.518 79.5744 138.819 79.2101 138.819 78.4814V72.4306C138.819 71.7019 138.518 71.3376 137.916 71.3376C137.314 71.3376 137.013 71.7019 137.013 72.4306V78.4814C137.013 79.2101 137.314 79.5744 137.916 79.5744ZM149.485 69.912H152.147C153.013 69.912 153.662 70.1443 154.095 70.609C154.528 71.0736 154.744 71.7547 154.744 72.6523V78.2597C154.744 79.1573 154.528 79.8384 154.095 80.303C153.662 80.7677 153.013 81 152.147 81H149.485V69.912ZM152.115 79.416C152.4 79.416 152.617 79.3315 152.764 79.1626C152.923 78.9936 153.002 78.719 153.002 78.3389V72.5731C153.002 72.193 152.923 71.9184 152.764 71.7494C152.617 71.5805 152.4 71.496 152.115 71.496H151.228V79.416H152.115ZM163.666 69.912H168.418V71.496H165.409V74.4264H167.801V76.0104H165.409V79.416H168.418V81H163.666V69.912Z" fill="#018284"/>
<rect width="85.8323" height="33.6912" transform="matrix(1 0 0 -1 206 217.691)" fill="url(#paint4_linear_2765_3040)"/>
<defs>
<linearGradient id="paint0_linear_2765_3040" x1="249.5" y1="90.5" x2="268" y2="55" gradientUnits="userSpaceOnUse">
<stop stop-color="#00A6A6"/>
<stop offset="1" stop-color="#076568"/>
</linearGradient>
<linearGradient id="paint1_linear_2765_3040" x1="255.316" y1="108.151" x2="255.316" y2="153.743" gradientUnits="userSpaceOnUse">
<stop stop-color="#00A6A6"/>
<stop offset="1" stop-color="#076568"/>
</linearGradient>
<linearGradient id="paint2_linear_2765_3040" x1="255.306" y1="169.379" x2="255.306" y2="212.301" gradientUnits="userSpaceOnUse">
<stop stop-color="#30EDE6"/>
<stop offset="1" stop-color="#666666"/>
</linearGradient>
<linearGradient id="paint3_linear_2765_3040" x1="255.317" y1="48" x2="255.317" y2="82" gradientUnits="userSpaceOnUse">
<stop stop-color="white"/>
<stop offset="1" stop-color="white" stop-opacity="0"/>
</linearGradient>
<linearGradient id="paint4_linear_2765_3040" x1="43.3172" y1="0" x2="43.3172" y2="54.005" gradientUnits="userSpaceOnUse">
<stop stop-color="white"/>
<stop offset="1" stop-color="white" stop-opacity="0"/>
</linearGradient>
<clipPath id="clip0_2765_3040">
<rect width="49.7346" height="170.06" fill="white" transform="translate(230.562 47.8564)"/>
</clipPath>
</defs>
</svg>
