<svg width="340" height="258" viewBox="0 0 340 258" fill="none" xmlns="http://www.w3.org/2000/svg">
<rect x="3.23012" y="36.2301" width="156.54" height="48.5398" rx="5.29265" fill="#090F11" stroke="url(#paint0_linear_2861_248)" stroke-width="0.46023"/>
<path d="M49.0095 54.1105C47.8387 54.1105 46.9551 53.7938 46.3586 53.1605C45.7695 52.5273 45.475 51.6694 45.475 50.5869C45.475 49.8064 45.6038 49.1326 45.8616 48.5656C46.1193 47.9912 46.5096 47.5494 47.0324 47.2401C47.5626 46.9309 48.2327 46.7762 49.0427 46.7762C49.4624 46.7762 49.8416 46.8057 50.1804 46.8646C50.5264 46.9161 50.8504 46.9935 51.1524 47.0965V48.1348C50.5485 47.9139 49.8784 47.8035 49.1421 47.8035C48.2363 47.8035 47.5994 48.0428 47.2312 48.5214C46.8704 49.0001 46.69 49.6886 46.69 50.5869C46.69 51.4043 46.8814 52.0265 47.2643 52.4536C47.6472 52.8807 48.24 53.0943 49.0427 53.0943C49.6759 53.0943 50.1877 53.0206 50.578 52.8734V50.8852H48.7997V50.1009H51.6052V53.525C51.377 53.6723 51.0493 53.8085 50.6222 53.9337C50.2024 54.0515 49.6649 54.1105 49.0095 54.1105ZM52.7328 54V46.8867H55.9029C56.4478 46.8867 56.897 46.9898 57.2504 47.196C57.6039 47.4021 57.8653 47.6856 58.0347 48.0465C58.204 48.3999 58.2887 48.8049 58.2887 49.2615C58.2887 49.9684 58.0678 50.5354 57.626 50.9625C57.1915 51.3896 56.6024 51.6031 55.8587 51.6031H53.9368V54H52.7328ZM53.9368 50.6532H55.6378C56.1164 50.6532 56.4772 50.528 56.7202 50.2777C56.9632 50.0273 57.0847 49.6886 57.0847 49.2615C57.0847 48.8049 56.9669 48.4515 56.7313 48.2011C56.503 47.9507 56.1569 47.8256 55.693 47.8256H53.9368V50.6532ZM61.0534 54V47.8256H58.7781V46.8867H64.5217V47.8256H62.2574V54H61.0534Z" fill="white"/>
<path d="M45.504 65V59.848H49.008V60.528H46.376V62.088H48.712V62.76H46.376V65H45.504ZM51.1559 65.08C50.4732 65.08 49.9719 64.9093 49.6519 64.568C49.3372 64.2267 49.1799 63.7387 49.1799 63.104C49.1799 62.4693 49.3399 61.9813 49.6599 61.64C49.9799 61.2987 50.4786 61.128 51.1559 61.128C51.8386 61.128 52.3399 61.2987 52.6599 61.64C52.9799 61.9813 53.1399 62.4693 53.1399 63.104C53.1399 63.7387 52.9799 64.2267 52.6599 64.568C52.3452 64.9093 51.8439 65.08 51.1559 65.08ZM51.1559 64.344C51.5559 64.344 51.8386 64.248 52.0039 64.056C52.1746 63.8587 52.2599 63.5413 52.2599 63.104C52.2599 62.6667 52.1746 62.352 52.0039 62.16C51.8386 61.968 51.5559 61.872 51.1559 61.872C50.7612 61.872 50.4786 61.968 50.3079 62.16C50.1426 62.352 50.0599 62.6667 50.0599 63.104C50.0599 63.5413 50.1426 63.8587 50.3079 64.056C50.4786 64.248 50.7612 64.344 51.1559 64.344ZM53.9492 65V61.208H54.7492L54.7972 61.648C54.9786 61.5307 55.1946 61.424 55.4452 61.328C55.6959 61.232 55.9439 61.1653 56.1892 61.128V61.792C56.0399 61.8187 55.8772 61.8587 55.7012 61.912C55.5306 61.96 55.3679 62.016 55.2132 62.08C55.0586 62.1387 54.9279 62.2 54.8212 62.264V65H53.9492ZM60.1578 65.08C59.8165 65.08 59.5151 65.0213 59.2538 64.904C58.9925 64.7867 58.7898 64.592 58.6458 64.32C58.5018 64.048 58.4298 63.6827 58.4298 63.224C58.4298 62.7707 58.5071 62.3893 58.6618 62.08C58.8165 61.7653 59.0298 61.528 59.3018 61.368C59.5791 61.208 59.8911 61.128 60.2378 61.128C60.4671 61.128 60.6698 61.1547 60.8458 61.208C61.0271 61.2613 61.2005 61.344 61.3658 61.456V59.608H62.2378V65H61.4938L61.4378 64.624C61.2671 64.7787 61.0805 64.8933 60.8778 64.968C60.6751 65.0427 60.4351 65.08 60.1578 65.08ZM60.3898 64.424C60.7791 64.424 61.1045 64.2907 61.3658 64.024V62.128C61.1151 61.904 60.8005 61.792 60.4218 61.792C60.0538 61.792 59.7765 61.9147 59.5898 62.16C59.4031 62.4053 59.3098 62.7627 59.3098 63.232C59.3098 63.6853 59.3951 63.9973 59.5658 64.168C59.7418 64.3387 60.0165 64.424 60.3898 64.424ZM65.0488 65.08C64.3875 65.08 63.8755 64.9173 63.5128 64.592C63.1502 64.2667 62.9688 63.768 62.9688 63.096C62.9688 62.488 63.1235 62.008 63.4328 61.656C63.7422 61.304 64.2115 61.128 64.8408 61.128C65.4168 61.128 65.8488 61.28 66.1368 61.584C66.4302 61.8827 66.5768 62.2693 66.5768 62.744V63.448H63.8008C63.8435 63.816 63.9768 64.0693 64.2008 64.208C64.4248 64.3467 64.7662 64.416 65.2248 64.416C65.4168 64.416 65.6142 64.3973 65.8168 64.36C66.0195 64.3227 66.1955 64.2747 66.3448 64.216V64.856C66.1742 64.9307 65.9768 64.9867 65.7528 65.024C65.5342 65.0613 65.2995 65.08 65.0488 65.08ZM63.8008 62.88H65.8088V62.616C65.8088 62.3547 65.7368 62.152 65.5928 62.008C65.4488 61.8587 65.2062 61.784 64.8648 61.784C64.4595 61.784 64.1795 61.872 64.0248 62.048C63.8755 62.224 63.8008 62.5013 63.8008 62.88ZM69.3066 65.08C68.6453 65.08 68.1333 64.9173 67.7706 64.592C67.4079 64.2667 67.2266 63.768 67.2266 63.096C67.2266 62.488 67.3813 62.008 67.6906 61.656C67.9999 61.304 68.4693 61.128 69.0986 61.128C69.6746 61.128 70.1066 61.28 70.3946 61.584C70.6879 61.8827 70.8346 62.2693 70.8346 62.744V63.448H68.0586C68.1013 63.816 68.2346 64.0693 68.4586 64.208C68.6826 64.3467 69.0239 64.416 69.4826 64.416C69.6746 64.416 69.8719 64.3973 70.0746 64.36C70.2773 64.3227 70.4533 64.2747 70.6026 64.216V64.856C70.4319 64.9307 70.2346 64.9867 70.0106 65.024C69.7919 65.0613 69.5573 65.08 69.3066 65.08ZM68.0586 62.88H70.0666V62.616C70.0666 62.3547 69.9946 62.152 69.8506 62.008C69.7066 61.8587 69.4639 61.784 69.1226 61.784C68.7173 61.784 68.4373 61.872 68.2826 62.048C68.1333 62.224 68.0586 62.5013 68.0586 62.88ZM71.6444 66.728V61.208H72.3964L72.4444 61.584C72.615 61.4293 72.8017 61.3147 73.0044 61.24C73.207 61.1653 73.447 61.128 73.7244 61.128C74.2684 61.128 74.6924 61.2773 74.9964 61.576C75.3004 61.8693 75.4524 62.3573 75.4524 63.04C75.4524 63.7227 75.295 64.2347 74.9804 64.576C74.6657 64.912 74.2364 65.08 73.6924 65.08C73.2337 65.08 72.8417 64.9733 72.5164 64.76V66.728H71.6444ZM73.4684 64.424C74.2044 64.424 74.5724 63.96 74.5724 63.032C74.5724 62.584 74.4897 62.2667 74.3244 62.08C74.159 61.888 73.8817 61.792 73.4924 61.792C73.103 61.792 72.7777 61.9253 72.5164 62.192V64.088C72.639 64.1893 72.775 64.272 72.9244 64.336C73.079 64.3947 73.2604 64.424 73.4684 64.424ZM78.0662 65V61.208H78.8662L78.9142 61.648C79.0955 61.5307 79.3115 61.424 79.5622 61.328C79.8128 61.232 80.0608 61.1653 80.3062 61.128V61.792C80.1568 61.8187 79.9942 61.8587 79.8182 61.912C79.6475 61.96 79.4848 62.016 79.3302 62.08C79.1755 62.1387 79.0448 62.2 78.9382 62.264V65H78.0662ZM82.6658 65.08C82.0045 65.08 81.4925 64.9173 81.1298 64.592C80.7672 64.2667 80.5858 63.768 80.5858 63.096C80.5858 62.488 80.7405 62.008 81.0498 61.656C81.3592 61.304 81.8285 61.128 82.4578 61.128C83.0338 61.128 83.4658 61.28 83.7538 61.584C84.0472 61.8827 84.1938 62.2693 84.1938 62.744V63.448H81.4178C81.4605 63.816 81.5938 64.0693 81.8178 64.208C82.0418 64.3467 82.3832 64.416 82.8418 64.416C83.0338 64.416 83.2312 64.3973 83.4338 64.36C83.6365 64.3227 83.8125 64.2747 83.9618 64.216V64.856C83.7912 64.9307 83.5938 64.9867 83.3698 65.024C83.1512 65.0613 82.9165 65.08 82.6658 65.08ZM81.4178 62.88H83.4258V62.616C83.4258 62.3547 83.3538 62.152 83.2098 62.008C83.0658 61.8587 82.8232 61.784 82.4818 61.784C82.0765 61.784 81.7965 61.872 81.6418 62.048C81.4925 62.224 81.4178 62.5013 81.4178 62.88ZM86.1876 65.08C85.9476 65.08 85.7236 65.0373 85.5156 64.952C85.3129 64.8667 85.1503 64.7387 85.0276 64.568C84.9049 64.392 84.8436 64.176 84.8436 63.92C84.8436 63.5573 84.9663 63.2667 85.2116 63.048C85.4623 62.824 85.8463 62.712 86.3636 62.712H87.5796V62.544C87.5796 62.3627 87.5503 62.2187 87.4916 62.112C87.4383 62.0053 87.3369 61.928 87.1876 61.88C87.0436 61.832 86.8303 61.808 86.5476 61.808C86.0996 61.808 85.6809 61.8747 85.2916 62.008V61.36C85.4623 61.2907 85.6703 61.2347 85.9156 61.192C86.1609 61.1493 86.4249 61.128 86.7076 61.128C87.2623 61.128 87.6836 61.24 87.9716 61.464C88.2649 61.688 88.4116 62.0533 88.4116 62.56V65H87.6676L87.6116 64.616C87.4569 64.7653 87.2649 64.88 87.0356 64.96C86.8116 65.04 86.5289 65.08 86.1876 65.08ZM86.4196 64.456C86.6809 64.456 86.9076 64.4133 87.0996 64.328C87.2969 64.2373 87.4569 64.1173 87.5796 63.968V63.304H86.3796C86.1236 63.304 85.9369 63.3547 85.8196 63.456C85.7076 63.552 85.6516 63.7013 85.6516 63.904C85.6516 64.1013 85.7183 64.2427 85.8516 64.328C85.9849 64.4133 86.1743 64.456 86.4196 64.456ZM90.6035 65.08C90.3422 65.08 90.0915 65.0613 89.8515 65.024C89.6168 64.9867 89.4222 64.9413 89.2675 64.888V64.152C89.4488 64.2213 89.6488 64.2747 89.8675 64.312C90.0862 64.3493 90.2942 64.368 90.4915 64.368C90.7902 64.368 91.0035 64.3413 91.1315 64.288C91.2595 64.2347 91.3235 64.1307 91.3235 63.976C91.3235 63.864 91.2835 63.776 91.2035 63.712C91.1288 63.648 91.0142 63.5893 90.8595 63.536C90.7102 63.4827 90.5182 63.4187 90.2835 63.344C90.0595 63.2693 89.8648 63.1893 89.6995 63.104C89.5342 63.0133 89.4062 62.8987 89.3155 62.76C89.2248 62.6213 89.1795 62.44 89.1795 62.216C89.1795 61.8693 89.3048 61.6027 89.5555 61.416C89.8062 61.224 90.2088 61.128 90.7635 61.128C90.9822 61.128 91.1902 61.144 91.3875 61.176C91.5848 61.208 91.7528 61.248 91.8915 61.296V62.024C91.7422 61.9653 91.5768 61.92 91.3955 61.888C91.2195 61.856 91.0542 61.84 90.8995 61.84C90.6222 61.84 90.4115 61.864 90.2675 61.912C90.1288 61.96 90.0595 62.056 90.0595 62.2C90.0595 62.3493 90.1315 62.456 90.2755 62.52C90.4248 62.5787 90.6622 62.6613 90.9875 62.768C91.2862 62.8587 91.5235 62.9547 91.6995 63.056C91.8755 63.1573 92.0008 63.28 92.0755 63.424C92.1555 63.5627 92.1955 63.744 92.1955 63.968C92.1955 64.3413 92.0595 64.6213 91.7875 64.808C91.5155 64.9893 91.1208 65.08 90.6035 65.08ZM94.7101 65.08C94.0275 65.08 93.5261 64.9093 93.2061 64.568C92.8915 64.2267 92.7341 63.7387 92.7341 63.104C92.7341 62.4693 92.8941 61.9813 93.2141 61.64C93.5341 61.2987 94.0328 61.128 94.7101 61.128C95.3928 61.128 95.8941 61.2987 96.2141 61.64C96.5341 61.9813 96.6941 62.4693 96.6941 63.104C96.6941 63.7387 96.5341 64.2267 96.2141 64.568C95.8995 64.9093 95.3981 65.08 94.7101 65.08ZM94.7101 64.344C95.1101 64.344 95.3928 64.248 95.5581 64.056C95.7288 63.8587 95.8141 63.5413 95.8141 63.104C95.8141 62.6667 95.7288 62.352 95.5581 62.16C95.3928 61.968 95.1101 61.872 94.7101 61.872C94.3155 61.872 94.0328 61.968 93.8621 62.16C93.6968 62.352 93.6141 62.6667 93.6141 63.104C93.6141 63.5413 93.6968 63.8587 93.8621 64.056C94.0328 64.248 94.3155 64.344 94.7101 64.344ZM97.5035 65V61.208H98.3035L98.3435 61.608C98.5142 61.4747 98.7168 61.3627 98.9515 61.272C99.1915 61.176 99.4555 61.128 99.7435 61.128C100.234 61.128 100.591 61.2427 100.815 61.472C101.039 61.7013 101.151 62.0587 101.151 62.544V65H100.287V62.584C100.287 62.2907 100.226 62.0853 100.103 61.968C99.9862 61.8507 99.7622 61.792 99.4315 61.792C99.2342 61.792 99.0395 61.832 98.8475 61.912C98.6608 61.992 98.5035 62.096 98.3755 62.224V65H97.5035ZM102.409 60.416V59.696H103.361V60.416H102.409ZM102.481 65V61.872H101.905L101.985 61.208H103.353V65H102.481ZM104.332 65V61.208H105.132L105.172 61.608C105.342 61.4747 105.545 61.3627 105.78 61.272C106.02 61.176 106.284 61.128 106.572 61.128C107.062 61.128 107.42 61.2427 107.644 61.472C107.868 61.7013 107.98 62.0587 107.98 62.544V65H107.116V62.584C107.116 62.2907 107.054 62.0853 106.932 61.968C106.814 61.8507 106.59 61.792 106.26 61.792C106.062 61.792 105.868 61.832 105.676 61.912C105.489 61.992 105.332 62.096 105.204 62.224V65H104.332ZM110.453 66.408C110.171 66.408 109.888 66.3893 109.605 66.352C109.323 66.32 109.083 66.2693 108.885 66.2V65.528C109.099 65.5973 109.344 65.6507 109.621 65.688C109.899 65.7253 110.163 65.744 110.413 65.744C110.797 65.744 111.077 65.7227 111.253 65.68C111.429 65.6373 111.517 65.5413 111.517 65.392C111.517 65.28 111.475 65.2 111.389 65.152C111.304 65.1093 111.141 65.088 110.901 65.088H109.877C109.189 65.088 108.845 64.8453 108.845 64.36C108.845 64.2053 108.891 64.0613 108.981 63.928C109.072 63.7947 109.216 63.6933 109.413 63.624C109.195 63.5173 109.032 63.3707 108.925 63.184C108.824 62.9973 108.773 62.7733 108.773 62.512C108.773 62.0267 108.917 61.6747 109.205 61.456C109.499 61.2373 109.936 61.128 110.517 61.128C110.64 61.128 110.768 61.1387 110.901 61.16C111.035 61.176 111.139 61.192 111.213 61.208H112.605L112.581 61.776H111.941C112.043 61.8613 112.117 61.968 112.165 62.096C112.213 62.224 112.237 62.3627 112.237 62.512C112.237 62.9173 112.115 63.2373 111.869 63.472C111.624 63.7013 111.253 63.816 110.757 63.816C110.672 63.816 110.592 63.8133 110.517 63.808C110.448 63.7973 110.371 63.7867 110.285 63.776C110.125 63.792 109.981 63.8347 109.853 63.904C109.725 63.9733 109.661 64.0667 109.661 64.184C109.661 64.264 109.693 64.3227 109.757 64.36C109.821 64.392 109.928 64.408 110.077 64.408H111.141C111.52 64.408 111.811 64.4907 112.013 64.656C112.221 64.816 112.325 65.0507 112.325 65.36C112.325 65.7333 112.163 66 111.837 66.16C111.517 66.3253 111.056 66.408 110.453 66.408ZM110.517 63.264C110.864 63.264 111.104 63.2053 111.237 63.088C111.376 62.9707 111.445 62.7707 111.445 62.488C111.445 62.2053 111.376 62 111.237 61.872C111.104 61.744 110.864 61.68 110.517 61.68C110.192 61.68 109.955 61.7413 109.805 61.864C109.656 61.9867 109.581 62.1947 109.581 62.488C109.581 62.76 109.651 62.9573 109.789 63.08C109.933 63.2027 110.176 63.264 110.517 63.264ZM116.793 65.08C116.238 65.08 115.793 64.96 115.457 64.72C115.121 64.4747 114.953 64.1493 114.953 63.744C114.953 63.3813 115.059 63.0747 115.273 62.824C115.491 62.5733 115.787 62.3467 116.161 62.144C115.953 61.9573 115.785 61.7733 115.657 61.592C115.534 61.4107 115.473 61.1973 115.473 60.952C115.473 60.616 115.593 60.336 115.833 60.112C116.073 59.8827 116.403 59.768 116.825 59.768C117.241 59.768 117.566 59.8773 117.801 60.096C118.041 60.3093 118.161 60.5947 118.161 60.952C118.161 61.2293 118.094 61.4667 117.961 61.664C117.827 61.8613 117.614 62.056 117.321 62.248L118.505 63.456C118.59 63.2747 118.633 63.0613 118.633 62.816V62.68H119.297V62.832C119.297 63.0347 119.27 63.2347 119.217 63.432C119.163 63.624 119.091 63.792 119.001 63.936L119.649 64.592L119.121 65.072L118.545 64.496C118.347 64.6987 118.099 64.848 117.801 64.944C117.502 65.0347 117.166 65.08 116.793 65.08ZM116.777 61.872C117.006 61.7227 117.177 61.5893 117.289 61.472C117.401 61.3547 117.457 61.1947 117.457 60.992C117.457 60.8053 117.406 60.6587 117.305 60.552C117.209 60.44 117.049 60.384 116.825 60.384C116.595 60.384 116.43 60.4427 116.329 60.56C116.227 60.6773 116.177 60.8213 116.177 60.992C116.177 61.1573 116.225 61.3067 116.321 61.44C116.422 61.568 116.574 61.712 116.777 61.872ZM116.793 64.472C117.326 64.472 117.734 64.32 118.017 64.016L116.681 62.664C116.382 62.7867 116.158 62.9333 116.009 63.104C115.865 63.2693 115.793 63.4773 115.793 63.728C115.793 63.9733 115.886 64.16 116.073 64.288C116.259 64.4107 116.499 64.472 116.793 64.472ZM45.504 76.728V71.208H46.256L46.304 71.584C46.4747 71.4293 46.6613 71.3147 46.864 71.24C47.0667 71.1653 47.3067 71.128 47.584 71.128C48.128 71.128 48.552 71.2773 48.856 71.576C49.16 71.8693 49.312 72.3573 49.312 73.04C49.312 73.7227 49.1547 74.2347 48.84 74.576C48.5253 74.912 48.096 75.08 47.552 75.08C47.0933 75.08 46.7013 74.9733 46.376 74.76V76.728H45.504ZM47.328 74.424C48.064 74.424 48.432 73.96 48.432 73.032C48.432 72.584 48.3493 72.2667 48.184 72.08C48.0187 71.888 47.7413 71.792 47.352 71.792C46.9627 71.792 46.6373 71.9253 46.376 72.192V74.088C46.4987 74.1893 46.6347 74.272 46.784 74.336C46.9387 74.3947 47.12 74.424 47.328 74.424ZM51.0652 75.08C50.7558 75.08 50.5212 75.0053 50.3612 74.856C50.2012 74.7013 50.1212 74.448 50.1212 74.096V69.608H50.9932V74.016C50.9932 74.1653 51.0198 74.2667 51.0732 74.32C51.1265 74.3733 51.2065 74.4 51.3132 74.4C51.4412 74.4 51.5638 74.384 51.6812 74.352V74.984C51.5798 75.0213 51.4812 75.0453 51.3852 75.056C51.2945 75.072 51.1878 75.08 51.0652 75.08ZM53.5082 75.08C53.2682 75.08 53.0442 75.0373 52.8362 74.952C52.6336 74.8667 52.4709 74.7387 52.3482 74.568C52.2256 74.392 52.1642 74.176 52.1642 73.92C52.1642 73.5573 52.2869 73.2667 52.5322 73.048C52.7829 72.824 53.1669 72.712 53.6842 72.712H54.9002V72.544C54.9002 72.3627 54.8709 72.2187 54.8122 72.112C54.7589 72.0053 54.6576 71.928 54.5082 71.88C54.3642 71.832 54.1509 71.808 53.8682 71.808C53.4202 71.808 53.0016 71.8747 52.6122 72.008V71.36C52.7829 71.2907 52.9909 71.2347 53.2362 71.192C53.4816 71.1493 53.7456 71.128 54.0282 71.128C54.5829 71.128 55.0042 71.24 55.2922 71.464C55.5856 71.688 55.7322 72.0533 55.7322 72.56V75H54.9882L54.9322 74.616C54.7776 74.7653 54.5856 74.88 54.3562 74.96C54.1322 75.04 53.8496 75.08 53.5082 75.08ZM53.7402 74.456C54.0016 74.456 54.2282 74.4133 54.4202 74.328C54.6176 74.2373 54.7776 74.1173 54.9002 73.968V73.304H53.7002C53.4442 73.304 53.2576 73.3547 53.1402 73.456C53.0282 73.552 52.9722 73.7013 52.9722 73.904C52.9722 74.1013 53.0389 74.2427 53.1722 74.328C53.3056 74.4133 53.4949 74.456 53.7402 74.456ZM56.6601 75V71.208H57.4601L57.5001 71.608C57.6708 71.4747 57.8735 71.3627 58.1081 71.272C58.3481 71.176 58.6121 71.128 58.9001 71.128C59.3908 71.128 59.7481 71.2427 59.9721 71.472C60.1961 71.7013 60.3081 72.0587 60.3081 72.544V75H59.4441V72.584C59.4441 72.2907 59.3828 72.0853 59.2601 71.968C59.1428 71.8507 58.9188 71.792 58.5881 71.792C58.3908 71.792 58.1961 71.832 58.0041 71.912C57.8175 71.992 57.6601 72.096 57.5321 72.224V75H56.6601ZM61.246 75V71.208H62.046L62.086 71.608C62.2567 71.4747 62.4594 71.3627 62.694 71.272C62.934 71.176 63.198 71.128 63.486 71.128C63.9767 71.128 64.334 71.2427 64.558 71.472C64.782 71.7013 64.894 72.0587 64.894 72.544V75H64.03V72.584C64.03 72.2907 63.9687 72.0853 63.846 71.968C63.7287 71.8507 63.5047 71.792 63.174 71.792C62.9767 71.792 62.782 71.832 62.59 71.912C62.4034 71.992 62.246 72.096 62.118 72.224V75H61.246ZM66.1519 70.416V69.696H67.1039V70.416H66.1519ZM66.2239 75V71.872H65.6479L65.7279 71.208H67.0959V75H66.2239ZM68.0741 75V71.208H68.8741L68.9141 71.608C69.0848 71.4747 69.2874 71.3627 69.5221 71.272C69.7621 71.176 70.0261 71.128 70.3141 71.128C70.8048 71.128 71.1621 71.2427 71.3861 71.472C71.6101 71.7013 71.7221 72.0587 71.7221 72.544V75H70.8581V72.584C70.8581 72.2907 70.7968 72.0853 70.6741 71.968C70.5568 71.8507 70.3328 71.792 70.0021 71.792C69.8048 71.792 69.6101 71.832 69.4181 71.912C69.2314 71.992 69.0741 72.096 68.9461 72.224V75H68.0741ZM74.196 76.408C73.9133 76.408 73.6307 76.3893 73.348 76.352C73.0653 76.32 72.8253 76.2693 72.628 76.2V75.528C72.8413 75.5973 73.0867 75.6507 73.364 75.688C73.6413 75.7253 73.9053 75.744 74.156 75.744C74.54 75.744 74.82 75.7227 74.996 75.68C75.172 75.6373 75.26 75.5413 75.26 75.392C75.26 75.28 75.2173 75.2 75.132 75.152C75.0467 75.1093 74.884 75.088 74.644 75.088H73.62C72.932 75.088 72.588 74.8453 72.588 74.36C72.588 74.2053 72.6333 74.0613 72.724 73.928C72.8147 73.7947 72.9587 73.6933 73.156 73.624C72.9373 73.5173 72.7747 73.3707 72.668 73.184C72.5667 72.9973 72.516 72.7733 72.516 72.512C72.516 72.0267 72.66 71.6747 72.948 71.456C73.2413 71.2373 73.6787 71.128 74.26 71.128C74.3827 71.128 74.5107 71.1387 74.644 71.16C74.7773 71.176 74.8813 71.192 74.956 71.208H76.348L76.324 71.776H75.684C75.7853 71.8613 75.86 71.968 75.908 72.096C75.956 72.224 75.98 72.3627 75.98 72.512C75.98 72.9173 75.8573 73.2373 75.612 73.472C75.3667 73.7013 74.996 73.816 74.5 73.816C74.4147 73.816 74.3347 73.8133 74.26 73.808C74.1907 73.7973 74.1133 73.7867 74.028 73.776C73.868 73.792 73.724 73.8347 73.596 73.904C73.468 73.9733 73.404 74.0667 73.404 74.184C73.404 74.264 73.436 74.3227 73.5 74.36C73.564 74.392 73.6707 74.408 73.82 74.408H74.884C75.2627 74.408 75.5533 74.4907 75.756 74.656C75.964 74.816 76.068 75.0507 76.068 75.36C76.068 75.7333 75.9053 76 75.58 76.16C75.26 76.3253 74.7987 76.408 74.196 76.408ZM74.26 73.264C74.6067 73.264 74.8467 73.2053 74.98 73.088C75.1187 72.9707 75.188 72.7707 75.188 72.488C75.188 72.2053 75.1187 72 74.98 71.872C74.8467 71.744 74.6067 71.68 74.26 71.68C73.9347 71.68 73.6973 71.7413 73.548 71.864C73.3987 71.9867 73.324 72.1947 73.324 72.488C73.324 72.76 73.3933 72.9573 73.532 73.08C73.676 73.2027 73.9187 73.264 74.26 73.264ZM76.8906 75V74.32H77.6266V75H76.8906Z" fill="#D4D4D4"/>
<rect x="11.2301" y="47.2301" width="27.6138" height="27.1535" rx="3.91196" fill="#30EDE6" fill-opacity="0.2" stroke="url(#paint1_linear_2861_248)" stroke-width="0.46023"/>
<path d="M30.4395 54.3638H19.6341C19.4192 54.3638 19.2131 54.4492 19.0611 54.6011C18.9091 54.7531 18.8237 54.9592 18.8237 55.1742V65.9796C18.8237 66.1945 18.9091 66.4006 19.0611 66.5526C19.2131 66.7046 19.4192 66.79 19.6341 66.79H30.4395C30.6545 66.79 30.8606 66.7046 31.0126 66.5526C31.1645 66.4006 31.2499 66.1945 31.2499 65.9796V55.1742C31.2499 54.9592 31.1645 54.7531 31.0126 54.6011C30.8606 54.4492 30.6545 54.3638 30.4395 54.3638ZM22.3355 62.4678C22.4958 62.4678 22.6524 62.5153 22.7857 62.6044C22.919 62.6934 23.0229 62.82 23.0842 62.9681C23.1455 63.1162 23.1616 63.2791 23.1303 63.4363C23.099 63.5935 23.0219 63.7379 22.9085 63.8513C22.7952 63.9646 22.6508 64.0418 22.4936 64.073C22.3364 64.1043 22.1734 64.0883 22.0254 64.0269C21.8773 63.9656 21.7507 63.8617 21.6617 63.7285C21.5726 63.5952 21.5251 63.4385 21.5251 63.2782C21.5251 63.0633 21.6105 62.8572 21.7624 62.7052C21.9144 62.5532 22.1205 62.4678 22.3355 62.4678ZM19.364 65.9796V55.1742C19.364 55.1025 19.3925 55.0338 19.4431 54.9832C19.4938 54.9325 19.5625 54.904 19.6341 54.904H22.0653V61.9546C21.7374 62.0215 21.446 62.2078 21.2476 62.4774C21.0492 62.747 20.958 63.0807 20.9916 63.4137C21.0253 63.7467 21.1814 64.0554 21.4297 64.2799C21.678 64.5043 22.0008 64.6286 22.3355 64.6286C22.6702 64.6286 22.993 64.5043 23.2413 64.2799C23.4896 64.0554 23.6457 63.7467 23.6793 63.4137C23.713 63.0807 23.6217 62.747 23.4234 62.4774C23.225 62.2078 22.9336 62.0215 22.6056 61.9546V59.0682L26.3875 62.8501V66.2497H19.6341C19.5625 66.2497 19.4938 66.2212 19.4431 66.1706C19.3925 66.1199 19.364 66.0512 19.364 65.9796ZM30.7097 65.9796C30.7097 66.0512 30.6812 66.1199 30.6305 66.1706C30.5799 66.2212 30.5112 66.2497 30.4395 66.2497H26.9278V62.7379C26.9278 62.7025 26.9208 62.6673 26.9073 62.6345C26.8937 62.6017 26.8738 62.5719 26.8488 62.5468L22.6056 58.3037V54.904H25.307V56.795C25.3069 56.8305 25.3139 56.8656 25.3275 56.8984C25.341 56.9312 25.3609 56.961 25.386 56.9861L26.6124 58.2132C26.428 58.4925 26.3538 58.8303 26.4043 59.1611C26.4548 59.4919 26.6263 59.7922 26.8855 60.0038C27.1448 60.2154 27.4734 60.3232 27.8077 60.3064C28.1419 60.2895 28.458 60.1491 28.6946 59.9125C28.9312 59.6758 29.0716 59.3598 29.0885 59.0255C29.1054 58.6913 28.9976 58.3627 28.786 58.1034C28.5744 57.8441 28.274 57.6727 27.9432 57.6222C27.6124 57.5717 27.2746 57.6459 26.9953 57.8303L25.8472 56.6822V54.904H30.4395C30.5112 54.904 30.5799 54.9325 30.6305 54.9832C30.6812 55.0338 30.7097 55.1025 30.7097 55.1742V65.9796ZM27.7382 58.1457C27.8985 58.1457 28.0551 58.1932 28.1884 58.2822C28.3217 58.3713 28.4256 58.4978 28.4869 58.6459C28.5482 58.794 28.5643 58.957 28.533 59.1142C28.5017 59.2714 28.4246 59.4158 28.3112 59.5291C28.1979 59.6424 28.0535 59.7196 27.8963 59.7509C27.7391 59.7822 27.5761 59.7661 27.428 59.7048C27.28 59.6434 27.1534 59.5396 27.0644 59.4063C26.9753 59.273 26.9278 59.1163 26.9278 58.9561C26.9278 58.7411 27.0132 58.535 27.1651 58.383C27.3171 58.231 27.5232 58.1457 27.7382 58.1457Z" fill="url(#paint2_linear_2861_248)"/>
<rect x="3.23012" y="105.23" width="156.54" height="48.5398" rx="5.29265" fill="#090F11" stroke="url(#paint3_linear_2861_248)" stroke-width="0.46023"/>
<g opacity="0.75">
<path d="M49.0316 123.11C47.8608 123.11 46.9735 122.79 46.3696 122.149C45.7732 121.509 45.475 120.644 45.475 119.554C45.475 118.773 45.6001 118.103 45.8505 117.544C46.1082 116.977 46.4985 116.542 47.0213 116.24C47.5442 115.931 48.2106 115.776 49.0206 115.776C49.4329 115.776 49.8085 115.809 50.1472 115.876C50.4933 115.935 50.8136 116.016 51.1082 116.119V117.168C50.8136 117.05 50.497 116.962 50.1583 116.903C49.8269 116.837 49.4771 116.803 49.1089 116.803C48.2253 116.803 47.5994 117.039 47.2312 117.51C46.8704 117.982 46.69 118.663 46.69 119.554C46.69 120.386 46.8888 121.019 47.2864 121.454C47.6841 121.881 48.2989 122.094 49.131 122.094C49.4698 122.094 49.8085 122.068 50.1472 122.017C50.4933 121.958 50.8173 121.87 51.1192 121.752V122.812C50.8247 122.908 50.5044 122.982 50.1583 123.033C49.8195 123.085 49.444 123.11 49.0316 123.11ZM53.5508 123.11C53.1237 123.11 52.7997 123.007 52.5788 122.801C52.3579 122.588 52.2474 122.238 52.2474 121.752V115.555H53.4514V121.641C53.4514 121.848 53.4882 121.987 53.5618 122.061C53.6355 122.135 53.7459 122.172 53.8932 122.172C54.0699 122.172 54.2393 122.149 54.4013 122.105V122.978C54.2614 123.029 54.1252 123.063 53.9926 123.077C53.8674 123.099 53.7201 123.11 53.5508 123.11ZM56.9388 123.11C56.6075 123.11 56.2982 123.052 56.011 122.934C55.7312 122.816 55.5066 122.639 55.3372 122.404C55.1679 122.161 55.0832 121.862 55.0832 121.509C55.0832 121.008 55.2525 120.607 55.5913 120.305C55.9374 119.996 56.4675 119.841 57.1818 119.841H58.8607V119.609C58.8607 119.359 58.8202 119.16 58.7392 119.013C58.6656 118.865 58.5257 118.759 58.3195 118.692C58.1207 118.626 57.8261 118.593 57.4359 118.593C56.8173 118.593 56.2393 118.685 55.7017 118.869V117.974C55.9374 117.879 56.2245 117.801 56.5633 117.742C56.902 117.683 57.2665 117.654 57.6568 117.654C58.4226 117.654 59.0043 117.809 59.402 118.118C59.807 118.427 60.0095 118.932 60.0095 119.631V123H58.9822L58.9049 122.47C58.6914 122.676 58.4263 122.834 58.1096 122.945C57.8004 123.055 57.4101 123.11 56.9388 123.11ZM57.2591 122.249C57.62 122.249 57.9329 122.19 58.198 122.072C58.4705 121.947 58.6914 121.781 58.8607 121.575V120.658H57.2039C56.8505 120.658 56.5927 120.728 56.4307 120.868C56.2761 121.001 56.1988 121.207 56.1988 121.487C56.1988 121.759 56.2908 121.954 56.4749 122.072C56.659 122.19 56.9204 122.249 57.2591 122.249ZM63.1943 123.11C62.5684 123.11 62.0861 122.937 61.7473 122.591C61.416 122.245 61.2503 121.737 61.2503 121.067V117.764H62.4542V121.067C62.4542 121.457 62.55 121.744 62.7414 121.929C62.9329 122.113 63.2274 122.205 63.6251 122.205C63.9196 122.205 64.1921 122.149 64.4424 122.039C64.6928 121.929 64.91 121.781 65.0941 121.597V117.764H66.287V123H65.1935L65.1383 122.459C64.9027 122.643 64.6228 122.797 64.2988 122.923C63.9748 123.048 63.6067 123.11 63.1943 123.11ZM69.817 123.11C69.3457 123.11 68.9297 123.029 68.5689 122.867C68.2081 122.705 67.9282 122.437 67.7294 122.061C67.5306 121.686 67.4312 121.181 67.4312 120.548C67.4312 119.922 67.538 119.395 67.7515 118.968C67.9651 118.534 68.2596 118.206 68.6352 117.985C69.0181 117.764 69.4488 117.654 69.9275 117.654C70.2441 117.654 70.5239 117.691 70.7669 117.764C71.0173 117.838 71.2566 117.952 71.4849 118.107V115.555H72.6889V123H71.6616L71.5843 122.481C71.3487 122.694 71.0909 122.853 70.8111 122.956C70.5313 123.059 70.1999 123.11 69.817 123.11ZM70.1373 122.205C70.6749 122.205 71.1241 122.021 71.4849 121.652V119.035C71.1388 118.725 70.7043 118.571 70.1815 118.571C69.6734 118.571 69.2905 118.74 69.0328 119.079C68.7751 119.418 68.6462 119.911 68.6462 120.559C68.6462 121.185 68.764 121.616 68.9997 121.851C69.2427 122.087 69.6219 122.205 70.1373 122.205ZM76.5849 123.11C75.6718 123.11 74.9649 122.886 74.4642 122.437C73.9634 121.987 73.7131 121.299 73.7131 120.371C73.7131 119.532 73.9266 118.869 74.3537 118.383C74.7808 117.897 75.4288 117.654 76.2977 117.654C77.093 117.654 77.6895 117.864 78.0871 118.284C78.4921 118.696 78.6946 119.23 78.6946 119.885V120.857H74.8618C74.9207 121.365 75.1048 121.715 75.4141 121.906C75.7233 122.098 76.1946 122.194 76.8279 122.194C77.093 122.194 77.3655 122.168 77.6453 122.116C77.9251 122.065 78.1681 121.999 78.3743 121.918V122.801C78.1386 122.904 77.8662 122.982 77.5569 123.033C77.255 123.085 76.931 123.11 76.5849 123.11ZM74.8618 120.073H77.6342V119.708C77.6342 119.348 77.5348 119.068 77.336 118.869C77.1372 118.663 76.8021 118.56 76.3309 118.56C75.7712 118.56 75.3846 118.681 75.1711 118.924C74.9649 119.167 74.8618 119.55 74.8618 120.073Z" fill="white"/>
<path d="M45.504 134V128.848H49.008V129.528H46.376V131.088H48.712V131.76H46.376V134H45.504ZM51.1559 134.08C50.4732 134.08 49.9719 133.909 49.6519 133.568C49.3372 133.227 49.1799 132.739 49.1799 132.104C49.1799 131.469 49.3399 130.981 49.6599 130.64C49.9799 130.299 50.4786 130.128 51.1559 130.128C51.8386 130.128 52.3399 130.299 52.6599 130.64C52.9799 130.981 53.1399 131.469 53.1399 132.104C53.1399 132.739 52.9799 133.227 52.6599 133.568C52.3452 133.909 51.8439 134.08 51.1559 134.08ZM51.1559 133.344C51.5559 133.344 51.8386 133.248 52.0039 133.056C52.1746 132.859 52.2599 132.541 52.2599 132.104C52.2599 131.667 52.1746 131.352 52.0039 131.16C51.8386 130.968 51.5559 130.872 51.1559 130.872C50.7612 130.872 50.4786 130.968 50.3079 131.16C50.1426 131.352 50.0599 131.667 50.0599 132.104C50.0599 132.541 50.1426 132.859 50.3079 133.056C50.4786 133.248 50.7612 133.344 51.1559 133.344ZM53.9492 134V130.208H54.7492L54.7972 130.648C54.9786 130.531 55.1946 130.424 55.4452 130.328C55.6959 130.232 55.9439 130.165 56.1892 130.128V130.792C56.0399 130.819 55.8772 130.859 55.7012 130.912C55.5306 130.96 55.3679 131.016 55.2132 131.08C55.0586 131.139 54.9279 131.2 54.8212 131.264V134H53.9492ZM60.4538 134.08C59.7871 134.08 59.2831 133.912 58.9418 133.576C58.6005 133.235 58.4298 132.744 58.4298 132.104C58.4298 131.437 58.6165 130.941 58.9898 130.616C59.3685 130.291 59.8725 130.128 60.5018 130.128C60.7631 130.128 60.9818 130.147 61.1578 130.184C61.3391 130.221 61.5125 130.28 61.6778 130.36V131.008C61.4005 130.869 61.0645 130.8 60.6698 130.8C60.2325 130.8 59.8965 130.899 59.6618 131.096C59.4271 131.288 59.3098 131.624 59.3098 132.104C59.3098 132.557 59.4138 132.891 59.6218 133.104C59.8298 133.312 60.1738 133.416 60.6538 133.416C61.0325 133.416 61.3765 133.344 61.6858 133.2V133.864C61.5098 133.933 61.3205 133.987 61.1178 134.024C60.9205 134.061 60.6991 134.08 60.4538 134.08ZM64.1558 134.08C63.4731 134.08 62.9718 133.909 62.6518 133.568C62.3371 133.227 62.1798 132.739 62.1798 132.104C62.1798 131.469 62.3398 130.981 62.6598 130.64C62.9798 130.299 63.4784 130.128 64.1558 130.128C64.8384 130.128 65.3398 130.299 65.6598 130.64C65.9798 130.981 66.1398 131.469 66.1398 132.104C66.1398 132.739 65.9798 133.227 65.6598 133.568C65.3451 133.909 64.8438 134.08 64.1558 134.08ZM64.1558 133.344C64.5558 133.344 64.8384 133.248 65.0038 133.056C65.1744 132.859 65.2598 132.541 65.2598 132.104C65.2598 131.667 65.1744 131.352 65.0038 131.16C64.8384 130.968 64.5558 130.872 64.1558 130.872C63.7611 130.872 63.4784 130.968 63.3078 131.16C63.1424 131.352 63.0598 131.667 63.0598 132.104C63.0598 132.541 63.1424 132.859 63.3078 133.056C63.4784 133.248 63.7611 133.344 64.1558 133.344ZM68.5171 134.08C68.1758 134.08 67.8744 134.021 67.6131 133.904C67.3518 133.787 67.1491 133.592 67.0051 133.32C66.8611 133.048 66.7891 132.683 66.7891 132.224C66.7891 131.771 66.8664 131.389 67.0211 131.08C67.1758 130.765 67.3891 130.528 67.6611 130.368C67.9384 130.208 68.2504 130.128 68.5971 130.128C68.8264 130.128 69.0291 130.155 69.2051 130.208C69.3864 130.261 69.5598 130.344 69.7251 130.456V128.608H70.5971V134H69.8531L69.7971 133.624C69.6264 133.779 69.4398 133.893 69.2371 133.968C69.0344 134.043 68.7944 134.08 68.5171 134.08ZM68.7491 133.424C69.1384 133.424 69.4638 133.291 69.7251 133.024V131.128C69.4744 130.904 69.1598 130.792 68.7811 130.792C68.4131 130.792 68.1358 130.915 67.9491 131.16C67.7624 131.405 67.6691 131.763 67.6691 132.232C67.6691 132.685 67.7544 132.997 67.9251 133.168C68.1011 133.339 68.3758 133.424 68.7491 133.424ZM71.8862 129.416V128.696H72.8382V129.416H71.8862ZM71.9582 134V130.872H71.3822L71.4622 130.208H72.8302V134H71.9582ZM73.8084 134V130.208H74.6084L74.6484 130.608C74.8191 130.475 75.0217 130.363 75.2564 130.272C75.4964 130.176 75.7604 130.128 76.0484 130.128C76.5391 130.128 76.8964 130.243 77.1204 130.472C77.3444 130.701 77.4564 131.059 77.4564 131.544V134H76.5924V131.584C76.5924 131.291 76.5311 131.085 76.4084 130.968C76.2911 130.851 76.0671 130.792 75.7364 130.792C75.5391 130.792 75.3444 130.832 75.1524 130.912C74.9657 130.992 74.8084 131.096 74.6804 131.224V134H73.8084ZM79.9303 135.408C79.6476 135.408 79.365 135.389 79.0823 135.352C78.7996 135.32 78.5596 135.269 78.3623 135.2V134.528C78.5756 134.597 78.821 134.651 79.0983 134.688C79.3756 134.725 79.6396 134.744 79.8903 134.744C80.2743 134.744 80.5543 134.723 80.7303 134.68C80.9063 134.637 80.9943 134.541 80.9943 134.392C80.9943 134.28 80.9516 134.2 80.8663 134.152C80.781 134.109 80.6183 134.088 80.3783 134.088H79.3543C78.6663 134.088 78.3223 133.845 78.3223 133.36C78.3223 133.205 78.3676 133.061 78.4583 132.928C78.549 132.795 78.693 132.693 78.8903 132.624C78.6716 132.517 78.509 132.371 78.4023 132.184C78.301 131.997 78.2503 131.773 78.2503 131.512C78.2503 131.027 78.3943 130.675 78.6823 130.456C78.9756 130.237 79.413 130.128 79.9943 130.128C80.117 130.128 80.245 130.139 80.3783 130.16C80.5116 130.176 80.6156 130.192 80.6903 130.208H82.0823L82.0583 130.776H81.4183C81.5196 130.861 81.5943 130.968 81.6423 131.096C81.6903 131.224 81.7143 131.363 81.7143 131.512C81.7143 131.917 81.5916 132.237 81.3463 132.472C81.101 132.701 80.7303 132.816 80.2343 132.816C80.149 132.816 80.069 132.813 79.9943 132.808C79.925 132.797 79.8476 132.787 79.7623 132.776C79.6023 132.792 79.4583 132.835 79.3303 132.904C79.2023 132.973 79.1383 133.067 79.1383 133.184C79.1383 133.264 79.1703 133.323 79.2343 133.36C79.2983 133.392 79.405 133.408 79.5543 133.408H80.6183C80.997 133.408 81.2876 133.491 81.4903 133.656C81.6983 133.816 81.8023 134.051 81.8023 134.36C81.8023 134.733 81.6396 135 81.3143 135.16C80.9943 135.325 80.533 135.408 79.9303 135.408ZM79.9943 132.264C80.341 132.264 80.581 132.205 80.7143 132.088C80.853 131.971 80.9223 131.771 80.9223 131.488C80.9223 131.205 80.853 131 80.7143 130.872C80.581 130.744 80.341 130.68 79.9943 130.68C79.669 130.68 79.4316 130.741 79.2823 130.864C79.133 130.987 79.0583 131.195 79.0583 131.488C79.0583 131.76 79.1276 131.957 79.2663 132.08C79.4103 132.203 79.653 132.264 79.9943 132.264ZM86.2695 134.08C85.7149 134.08 85.2695 133.96 84.9335 133.72C84.5975 133.475 84.4295 133.149 84.4295 132.744C84.4295 132.381 84.5362 132.075 84.7495 131.824C84.9682 131.573 85.2642 131.347 85.6375 131.144C85.4295 130.957 85.2615 130.773 85.1335 130.592C85.0109 130.411 84.9495 130.197 84.9495 129.952C84.9495 129.616 85.0695 129.336 85.3095 129.112C85.5495 128.883 85.8802 128.768 86.3015 128.768C86.7175 128.768 87.0429 128.877 87.2775 129.096C87.5175 129.309 87.6375 129.595 87.6375 129.952C87.6375 130.229 87.5709 130.467 87.4375 130.664C87.3042 130.861 87.0909 131.056 86.7975 131.248L87.9815 132.456C88.0669 132.275 88.1095 132.061 88.1095 131.816V131.68H88.7735V131.832C88.7735 132.035 88.7469 132.235 88.6935 132.432C88.6402 132.624 88.5682 132.792 88.4775 132.936L89.1255 133.592L88.5975 134.072L88.0215 133.496C87.8242 133.699 87.5762 133.848 87.2775 133.944C86.9789 134.035 86.6429 134.08 86.2695 134.08ZM86.2535 130.872C86.4829 130.723 86.6535 130.589 86.7655 130.472C86.8775 130.355 86.9335 130.195 86.9335 129.992C86.9335 129.805 86.8829 129.659 86.7815 129.552C86.6855 129.44 86.5255 129.384 86.3015 129.384C86.0722 129.384 85.9069 129.443 85.8055 129.56C85.7042 129.677 85.6535 129.821 85.6535 129.992C85.6535 130.157 85.7015 130.307 85.7975 130.44C85.8989 130.568 86.0509 130.712 86.2535 130.872ZM86.2695 133.472C86.8029 133.472 87.2109 133.32 87.4935 133.016L86.1575 131.664C85.8589 131.787 85.6349 131.933 85.4855 132.104C85.3415 132.269 85.2695 132.477 85.2695 132.728C85.2695 132.973 85.3629 133.16 85.5495 133.288C85.7362 133.411 85.9762 133.472 86.2695 133.472ZM93.2668 134.08C92.9255 134.08 92.6242 134.021 92.3628 133.904C92.1015 133.787 91.8988 133.592 91.7548 133.32C91.6108 133.048 91.5388 132.683 91.5388 132.224C91.5388 131.771 91.6162 131.389 91.7708 131.08C91.9255 130.765 92.1388 130.528 92.4108 130.368C92.6882 130.208 93.0002 130.128 93.3468 130.128C93.5762 130.128 93.7788 130.155 93.9548 130.208C94.1362 130.261 94.3095 130.344 94.4748 130.456V128.608H95.3468V134H94.6028L94.5468 133.624C94.3762 133.779 94.1895 133.893 93.9868 133.968C93.7842 134.043 93.5442 134.08 93.2668 134.08ZM93.4988 133.424C93.8882 133.424 94.2135 133.291 94.4748 133.024V131.128C94.2242 130.904 93.9095 130.792 93.5308 130.792C93.1628 130.792 92.8855 130.915 92.6988 131.16C92.5122 131.405 92.4188 131.763 92.4188 132.232C92.4188 132.685 92.5042 132.997 92.6748 133.168C92.8508 133.339 93.1255 133.424 93.4988 133.424ZM98.1579 134.08C97.4965 134.08 96.9845 133.917 96.6219 133.592C96.2592 133.267 96.0779 132.768 96.0779 132.096C96.0779 131.488 96.2325 131.008 96.5419 130.656C96.8512 130.304 97.3205 130.128 97.9499 130.128C98.5259 130.128 98.9579 130.28 99.2459 130.584C99.5392 130.883 99.6859 131.269 99.6859 131.744V132.448H96.9099C96.9525 132.816 97.0859 133.069 97.3099 133.208C97.5339 133.347 97.8752 133.416 98.3339 133.416C98.5259 133.416 98.7232 133.397 98.9259 133.36C99.1285 133.323 99.3045 133.275 99.4539 133.216V133.856C99.2832 133.931 99.0859 133.987 98.8619 134.024C98.6432 134.061 98.4085 134.08 98.1579 134.08ZM96.9099 131.88H98.9179V131.616C98.9179 131.355 98.8459 131.152 98.7019 131.008C98.5579 130.859 98.3152 130.784 97.9739 130.784C97.5685 130.784 97.2885 130.872 97.1339 131.048C96.9845 131.224 96.9099 131.501 96.9099 131.88ZM101.394 134L99.8981 130.208H100.802L101.866 133.152L102.93 130.208H103.826L102.338 134H101.394ZM46.344 144L45.344 140.208H46.216L46.872 142.968L47.616 140.672V140.208H48.28L49.104 142.968L49.76 140.208H50.624L49.632 144H48.808L48 141.52L47.176 144H46.344ZM52.8903 144.08C52.2076 144.08 51.7063 143.909 51.3863 143.568C51.0716 143.227 50.9143 142.739 50.9143 142.104C50.9143 141.469 51.0743 140.981 51.3943 140.64C51.7143 140.299 52.2129 140.128 52.8903 140.128C53.5729 140.128 54.0743 140.299 54.3943 140.64C54.7143 140.981 54.8743 141.469 54.8743 142.104C54.8743 142.739 54.7143 143.227 54.3943 143.568C54.0796 143.909 53.5783 144.08 52.8903 144.08ZM52.8903 143.344C53.2903 143.344 53.5729 143.248 53.7383 143.056C53.9089 142.859 53.9943 142.541 53.9943 142.104C53.9943 141.667 53.9089 141.352 53.7383 141.16C53.5729 140.968 53.2903 140.872 52.8903 140.872C52.4956 140.872 52.2129 140.968 52.0423 141.16C51.8769 141.352 51.7943 141.667 51.7943 142.104C51.7943 142.541 51.8769 142.859 52.0423 143.056C52.2129 143.248 52.4956 143.344 52.8903 143.344ZM55.6836 144V140.208H56.4836L56.5316 140.648C56.7129 140.531 56.9289 140.424 57.1796 140.328C57.4303 140.232 57.6783 140.165 57.9236 140.128V140.792C57.7743 140.819 57.6116 140.859 57.4356 140.912C57.2649 140.96 57.1023 141.016 56.9476 141.08C56.7929 141.139 56.6623 141.2 56.5556 141.264V144H55.6836ZM58.5195 144V138.608H59.3915V141.728L60.9835 140.208H61.9835L60.4395 141.736L62.0715 144H61.1515L59.8955 142.2L59.3915 142.68V144H58.5195ZM62.728 144V140.888H62.176V140.208H62.728V139.8C62.728 139.427 62.848 139.12 63.088 138.88C63.3334 138.635 63.6667 138.501 64.088 138.48C64.2427 138.475 64.4 138.483 64.56 138.504C64.7254 138.525 64.8747 138.557 65.008 138.6H65.728V144H64.856V140.888H63.592V144H62.728ZM63.592 140.208H64.856V139.224C64.7867 139.197 64.7067 139.179 64.616 139.168C64.5307 139.157 64.4454 139.152 64.36 139.152C63.848 139.152 63.592 139.376 63.592 139.824V140.208ZM68.437 144.08C67.7543 144.08 67.253 143.909 66.933 143.568C66.6183 143.227 66.461 142.739 66.461 142.104C66.461 141.469 66.621 140.981 66.941 140.64C67.261 140.299 67.7597 140.128 68.437 140.128C69.1197 140.128 69.621 140.299 69.941 140.64C70.261 140.981 70.421 141.469 70.421 142.104C70.421 142.739 70.261 143.227 69.941 143.568C69.6263 143.909 69.125 144.08 68.437 144.08ZM68.437 143.344C68.837 143.344 69.1197 143.248 69.285 143.056C69.4557 142.859 69.541 142.541 69.541 142.104C69.541 141.667 69.4557 141.352 69.285 141.16C69.1197 140.968 68.837 140.872 68.437 140.872C68.0423 140.872 67.7597 140.968 67.589 141.16C67.4237 141.352 67.341 141.667 67.341 142.104C67.341 142.541 67.4237 142.859 67.589 143.056C67.7597 143.248 68.0423 143.344 68.437 143.344ZM71.711 144L70.711 140.208H71.583L72.239 142.968L72.983 140.672V140.208H73.647L74.471 142.968L75.127 140.208H75.991L74.999 144H74.175L73.367 141.52L72.543 144H71.711ZM77.7052 144.08C77.4439 144.08 77.1932 144.061 76.9532 144.024C76.7186 143.987 76.5239 143.941 76.3692 143.888V143.152C76.5506 143.221 76.7506 143.275 76.9692 143.312C77.1879 143.349 77.3959 143.368 77.5932 143.368C77.8919 143.368 78.1052 143.341 78.2332 143.288C78.3612 143.235 78.4252 143.131 78.4252 142.976C78.4252 142.864 78.3852 142.776 78.3052 142.712C78.2306 142.648 78.1159 142.589 77.9612 142.536C77.8119 142.483 77.6199 142.419 77.3852 142.344C77.1612 142.269 76.9666 142.189 76.8012 142.104C76.6359 142.013 76.5079 141.899 76.4172 141.76C76.3266 141.621 76.2812 141.44 76.2812 141.216C76.2812 140.869 76.4066 140.603 76.6572 140.416C76.9079 140.224 77.3106 140.128 77.8652 140.128C78.0839 140.128 78.2919 140.144 78.4892 140.176C78.6866 140.208 78.8546 140.248 78.9932 140.296V141.024C78.8439 140.965 78.6786 140.92 78.4972 140.888C78.3212 140.856 78.1559 140.84 78.0012 140.84C77.7239 140.84 77.5132 140.864 77.3692 140.912C77.2306 140.96 77.1612 141.056 77.1612 141.2C77.1612 141.349 77.2332 141.456 77.3772 141.52C77.5266 141.579 77.7639 141.661 78.0892 141.768C78.3879 141.859 78.6252 141.955 78.8012 142.056C78.9772 142.157 79.1026 142.28 79.1772 142.424C79.2572 142.563 79.2972 142.744 79.2972 142.968C79.2972 143.341 79.1612 143.621 78.8892 143.808C78.6172 143.989 78.2226 144.08 77.7052 144.08ZM79.9531 144V143.32H80.6891V144H79.9531Z" fill="#D4D4D4"/>
</g>
<g opacity="0.75">
<rect x="11.2301" y="116.23" width="27.6138" height="27.1535" rx="3.91196" fill="#30EDE6" fill-opacity="0.2" stroke="url(#paint4_linear_2861_248)" stroke-width="0.46023"/>
<path d="M32.6981 130.18L26.3551 126.143C26.2249 126.061 26.075 126.015 25.9209 126.01C25.7669 126.005 25.6143 126.041 25.4791 126.115C25.3445 126.187 25.2322 126.295 25.1542 126.426C25.0763 126.557 25.0356 126.708 25.0367 126.86V130.067L18.875 126.143C18.7448 126.061 18.5949 126.015 18.4408 126.01C18.2868 126.005 18.1342 126.041 17.999 126.115C17.8644 126.187 17.7521 126.295 17.6741 126.426C17.5962 126.557 17.5556 126.708 17.5567 126.86V134.939C17.5556 135.091 17.5962 135.242 17.6741 135.373C17.7521 135.504 17.8644 135.612 17.999 135.684C18.1342 135.758 18.2868 135.794 18.4408 135.789C18.5949 135.784 18.7448 135.738 18.875 135.656L25.0367 131.732V134.939C25.0356 135.091 25.0763 135.242 25.1542 135.373C25.2322 135.504 25.3445 135.612 25.4791 135.684C25.6143 135.758 25.7669 135.794 25.9209 135.789C26.075 135.784 26.2249 135.738 26.3551 135.656L32.6981 131.619C32.8188 131.542 32.9183 131.436 32.9872 131.311C33.0561 131.185 33.0922 131.045 33.0922 130.902C33.0922 130.759 33.0561 130.618 32.9872 130.493C32.9183 130.367 32.8188 130.261 32.6981 130.185V130.18ZM24.9087 131.129L18.5636 135.17C18.5209 135.198 18.4717 135.213 18.421 135.215C18.3704 135.216 18.3202 135.204 18.2759 135.18C18.2322 135.157 18.1956 135.122 18.1703 135.079C18.1449 135.037 18.1317 134.988 18.1321 134.939V126.86C18.1317 126.811 18.1449 126.762 18.1703 126.72C18.1956 126.677 18.2322 126.643 18.2759 126.619C18.318 126.596 18.3652 126.584 18.4133 126.583C18.4676 126.583 18.5208 126.599 18.5665 126.629L24.9087 130.668C24.948 130.693 24.9803 130.727 25.0027 130.767C25.0251 130.808 25.0369 130.853 25.0369 130.9C25.0369 130.946 25.0251 130.991 25.0027 131.032C24.9803 131.072 24.948 131.107 24.9087 131.131V131.129ZM32.3888 131.129L26.0437 135.17C26.001 135.198 25.9518 135.213 25.9011 135.215C25.8505 135.216 25.8003 135.204 25.756 135.18C25.7123 135.157 25.6757 135.122 25.6504 135.079C25.625 135.037 25.6118 134.988 25.6121 134.939V126.86C25.6118 126.811 25.625 126.762 25.6504 126.72C25.6757 126.677 25.7123 126.643 25.756 126.619C25.7981 126.596 25.8453 126.584 25.8934 126.583C25.9477 126.583 26.0009 126.599 26.0466 126.629L32.3888 130.668C32.428 130.693 32.4604 130.727 32.4828 130.767C32.5052 130.808 32.517 130.853 32.517 130.9C32.517 130.946 32.5052 130.991 32.4828 131.032C32.4604 131.072 32.428 131.107 32.3888 131.131V131.129Z" fill="url(#paint5_linear_2861_248)"/>
</g>
<path d="M266.443 128.178H282.24L292.159 128.178" stroke="url(#paint6_linear_2861_248)" stroke-width="0.920461"/>
<g filter="url(#filter0_f_2861_248)">
<path d="M271.8 128.089L265 128.457L272.656 129.078C273.221 129.123 273.767 129.299 274.252 129.59L275.665 130.438C275.76 130.494 275.823 130.592 275.835 130.702L275.905 131.333C275.945 131.695 276.475 131.683 276.499 131.32C276.503 131.254 276.53 131.191 276.574 131.142L277.354 130.265C277.991 129.547 278.88 129.104 279.837 129.026L286.861 128.457L279.95 128.083C278.923 128.028 277.96 127.568 277.273 126.803C276.631 126.09 276.276 125.165 276.276 124.205V122.014L276.006 124.169C275.883 125.159 275.433 126.078 274.728 126.783C273.946 127.564 272.904 128.03 271.8 128.089Z" fill="#30EDE6"/>
</g>
<path d="M336.085 123.49C336.045 123.319 335.964 123.161 335.848 123.029C335.733 122.897 335.586 122.796 335.422 122.734L319.243 116.668L323.322 96.2693C323.366 96.0427 323.336 95.8078 323.235 95.6C323.135 95.3922 322.969 95.2228 322.763 95.1174C322.558 95.012 322.324 94.9762 322.096 95.0156C321.869 95.0549 321.66 95.1672 321.502 95.3355L291.704 127.262C291.583 127.389 291.496 127.544 291.449 127.713C291.403 127.882 291.399 128.06 291.438 128.231C291.477 128.402 291.558 128.56 291.674 128.692C291.79 128.824 291.936 128.925 292.1 128.986L308.279 135.053L304.208 155.451C304.164 155.678 304.194 155.913 304.295 156.12C304.396 156.328 304.561 156.498 304.767 156.603C304.972 156.709 305.206 156.744 305.434 156.705C305.661 156.666 305.87 156.553 306.028 156.385L335.827 124.458C335.946 124.33 336.032 124.175 336.077 124.006C336.122 123.837 336.124 123.66 336.085 123.49ZM307.029 152.2L310.551 134.587C310.601 134.339 310.56 134.082 310.438 133.861C310.315 133.64 310.117 133.47 309.881 133.382L294.343 127.552L320.502 99.5205L316.979 117.134C316.93 117.381 316.97 117.639 317.093 117.859C317.215 118.08 317.413 118.25 317.65 118.339L333.187 124.168L307.029 152.2Z" fill="#30EDE6"/>
<rect x="3.23012" y="174.23" width="156.54" height="48.5398" rx="5.29265" fill="#090F11" stroke="url(#paint7_linear_2861_248)" stroke-width="0.46023"/>
<g opacity="0.5">
<path d="M49.0095 192.11C47.8387 192.11 46.9551 191.794 46.3586 191.161C45.7695 190.527 45.475 189.669 45.475 188.587C45.475 187.806 45.6038 187.133 45.8616 186.566C46.1193 185.991 46.5096 185.549 47.0324 185.24C47.5626 184.931 48.2327 184.776 49.0427 184.776C49.4624 184.776 49.8416 184.806 50.1804 184.865C50.5264 184.916 50.8504 184.993 51.1524 185.097V186.135C50.5485 185.914 49.8784 185.803 49.1421 185.803C48.2363 185.803 47.5994 186.043 47.2312 186.521C46.8704 187 46.69 187.689 46.69 188.587C46.69 189.404 46.8814 190.027 47.2643 190.454C47.6472 190.881 48.24 191.094 49.0427 191.094C49.6759 191.094 50.1877 191.021 50.578 190.873V188.885H48.7997V188.101H51.6052V191.525C51.377 191.672 51.0493 191.809 50.6222 191.934C50.2024 192.052 49.6649 192.11 49.0095 192.11ZM55.3837 192.11C54.4706 192.11 53.7637 191.886 53.263 191.437C52.7623 190.987 52.5119 190.299 52.5119 189.371C52.5119 188.532 52.7254 187.869 53.1525 187.383C53.5796 186.897 54.2276 186.654 55.0966 186.654C55.8918 186.654 56.4883 186.864 56.8859 187.284C57.2909 187.696 57.4934 188.23 57.4934 188.885V189.857H53.6606C53.7195 190.365 53.9036 190.715 54.2129 190.906C54.5222 191.098 54.9935 191.194 55.6267 191.194C55.8918 191.194 56.1643 191.168 56.4441 191.116C56.7239 191.065 56.9669 190.999 57.1731 190.918V191.801C56.9375 191.904 56.665 191.982 56.3557 192.033C56.0538 192.085 55.7298 192.11 55.3837 192.11ZM53.6606 189.073H56.4331V188.708C56.4331 188.348 56.3337 188.068 56.1348 187.869C55.936 187.663 55.601 187.56 55.1297 187.56C54.57 187.56 54.1835 187.681 53.9699 187.924C53.7637 188.167 53.6606 188.55 53.6606 189.073ZM58.6264 192V186.764H59.7309L59.7861 187.317C60.0439 187.111 60.3274 186.949 60.6367 186.831C60.9459 186.713 61.2773 186.654 61.6307 186.654C62.0063 186.654 62.2972 186.717 62.5033 186.842C62.7169 186.96 62.8789 187.125 62.9893 187.339C63.2324 187.14 63.5122 186.978 63.8288 186.853C64.1454 186.72 64.5247 186.654 64.9665 186.654C65.5703 186.654 66.0158 186.809 66.303 187.118C66.5902 187.427 66.7338 187.902 66.7338 188.543V192H65.5519V188.664C65.5519 188.259 65.4672 187.976 65.2979 187.814C65.1285 187.652 64.8524 187.571 64.4694 187.571C64.2191 187.571 63.9798 187.615 63.7515 187.703C63.5306 187.792 63.3391 187.924 63.1771 188.101C63.1992 188.182 63.2139 188.267 63.2213 188.355C63.2287 188.443 63.2324 188.539 63.2324 188.642V192H62.1168V188.675C62.1168 188.292 62.0505 188.013 61.9179 187.836C61.7854 187.659 61.535 187.571 61.1668 187.571C60.9091 187.571 60.6624 187.633 60.4268 187.759C60.1985 187.876 59.9923 188.02 59.8082 188.189V192H58.6264ZM68.489 185.671V184.677H69.8034V185.671H68.489ZM68.5884 192V187.681H67.7931L67.9036 186.764H69.7923V192H68.5884ZM71.1578 192V186.764H72.2623L72.3175 187.317C72.5532 187.133 72.833 186.978 73.157 186.853C73.4884 186.72 73.8529 186.654 74.2505 186.654C74.928 186.654 75.4213 186.812 75.7306 187.129C76.0399 187.446 76.1945 187.939 76.1945 188.609V192H75.0016V188.664C75.0016 188.259 74.9169 187.976 74.7476 187.814C74.5856 187.652 74.2763 187.571 73.8197 187.571C73.5473 187.571 73.2785 187.626 73.0134 187.736C72.7557 187.847 72.5384 187.99 72.3617 188.167V192H71.1578ZM77.9462 185.671V184.677H79.2606V185.671H77.9462ZM78.0456 192V187.681H77.2503L77.3608 186.764H79.2495V192H78.0456Z" fill="white"/>
<path d="M45.504 203V197.848H49.008V198.528H46.376V200.088H48.712V200.76H46.376V203H45.504ZM51.1559 203.08C50.4732 203.08 49.9719 202.909 49.6519 202.568C49.3372 202.227 49.1799 201.739 49.1799 201.104C49.1799 200.469 49.3399 199.981 49.6599 199.64C49.9799 199.299 50.4786 199.128 51.1559 199.128C51.8386 199.128 52.3399 199.299 52.6599 199.64C52.9799 199.981 53.1399 200.469 53.1399 201.104C53.1399 201.739 52.9799 202.227 52.6599 202.568C52.3452 202.909 51.8439 203.08 51.1559 203.08ZM51.1559 202.344C51.5559 202.344 51.8386 202.248 52.0039 202.056C52.1746 201.859 52.2599 201.541 52.2599 201.104C52.2599 200.667 52.1746 200.352 52.0039 200.16C51.8386 199.968 51.5559 199.872 51.1559 199.872C50.7612 199.872 50.4786 199.968 50.3079 200.16C50.1426 200.352 50.0599 200.667 50.0599 201.104C50.0599 201.541 50.1426 201.859 50.3079 202.056C50.4786 202.248 50.7612 202.344 51.1559 202.344ZM53.9492 203V199.208H54.7492L54.7972 199.648C54.9786 199.531 55.1946 199.424 55.4452 199.328C55.6959 199.232 55.9439 199.165 56.1892 199.128V199.792C56.0399 199.819 55.8772 199.859 55.7012 199.912C55.5306 199.96 55.3679 200.016 55.2132 200.08C55.0586 200.139 54.9279 200.2 54.8212 200.264V203H53.9492ZM60.6698 203.08C60.3925 203.08 60.1525 203.043 59.9498 202.968C59.7471 202.893 59.5605 202.779 59.3898 202.624L59.3418 203H58.5898V197.608H59.4618V199.456C59.7925 199.237 60.1898 199.128 60.6538 199.128C61.1925 199.128 61.6165 199.283 61.9258 199.592C62.2405 199.896 62.3978 200.389 62.3978 201.072C62.3978 201.76 62.2431 202.267 61.9338 202.592C61.6245 202.917 61.2031 203.08 60.6698 203.08ZM60.4378 202.424C60.8325 202.424 61.1098 202.312 61.2698 202.088C61.4351 201.864 61.5178 201.525 61.5178 201.072C61.5178 200.603 61.4298 200.272 61.2538 200.08C61.0778 199.888 60.8005 199.792 60.4218 199.792C60.0271 199.792 59.7071 199.901 59.4618 200.12V202.024C59.7125 202.291 60.0378 202.424 60.4378 202.424ZM63.3707 198.416V197.696H64.3227V198.416H63.3707ZM63.4427 203V199.872H62.8667L62.9467 199.208H64.3147V203H63.4427ZM66.8288 204.408C66.5462 204.408 66.2635 204.389 65.9808 204.352C65.6982 204.32 65.4582 204.269 65.2608 204.2V203.528C65.4742 203.597 65.7195 203.651 65.9968 203.688C66.2742 203.725 66.5382 203.744 66.7888 203.744C67.1728 203.744 67.4528 203.723 67.6288 203.68C67.8048 203.637 67.8928 203.541 67.8928 203.392C67.8928 203.28 67.8502 203.2 67.7648 203.152C67.6795 203.109 67.5168 203.088 67.2768 203.088H66.2528C65.5648 203.088 65.2208 202.845 65.2208 202.36C65.2208 202.205 65.2662 202.061 65.3568 201.928C65.4475 201.795 65.5915 201.693 65.7888 201.624C65.5702 201.517 65.4075 201.371 65.3008 201.184C65.1995 200.997 65.1488 200.773 65.1488 200.512C65.1488 200.027 65.2928 199.675 65.5808 199.456C65.8742 199.237 66.3115 199.128 66.8928 199.128C67.0155 199.128 67.1435 199.139 67.2768 199.16C67.4102 199.176 67.5142 199.192 67.5888 199.208H68.9808L68.9568 199.776H68.3168C68.4182 199.861 68.4928 199.968 68.5408 200.096C68.5888 200.224 68.6128 200.363 68.6128 200.512C68.6128 200.917 68.4902 201.237 68.2448 201.472C67.9995 201.701 67.6288 201.816 67.1328 201.816C67.0475 201.816 66.9675 201.813 66.8928 201.808C66.8235 201.797 66.7462 201.787 66.6608 201.776C66.5008 201.792 66.3568 201.835 66.2288 201.904C66.1008 201.973 66.0368 202.067 66.0368 202.184C66.0368 202.264 66.0688 202.323 66.1328 202.36C66.1968 202.392 66.3035 202.408 66.4528 202.408H67.5168C67.8955 202.408 68.1862 202.491 68.3888 202.656C68.5968 202.816 68.7008 203.051 68.7008 203.36C68.7008 203.733 68.5382 204 68.2128 204.16C67.8928 204.325 67.4315 204.408 66.8288 204.408ZM66.8928 201.264C67.2395 201.264 67.4795 201.205 67.6128 201.088C67.7515 200.971 67.8208 200.771 67.8208 200.488C67.8208 200.205 67.7515 200 67.6128 199.872C67.4795 199.744 67.2395 199.68 66.8928 199.68C66.5675 199.68 66.3302 199.741 66.1808 199.864C66.0315 199.987 65.9568 200.195 65.9568 200.488C65.9568 200.76 66.0262 200.957 66.1648 201.08C66.3088 201.203 66.5515 201.264 66.8928 201.264ZM73.3521 203.08C72.6854 203.08 72.1814 202.912 71.8401 202.576C71.4987 202.235 71.3281 201.744 71.3281 201.104C71.3281 200.437 71.5147 199.941 71.8881 199.616C72.2667 199.291 72.7707 199.128 73.4001 199.128C73.6614 199.128 73.8801 199.147 74.0561 199.184C74.2374 199.221 74.4107 199.28 74.5761 199.36V200.008C74.2987 199.869 73.9627 199.8 73.5681 199.8C73.1307 199.8 72.7947 199.899 72.5601 200.096C72.3254 200.288 72.2081 200.624 72.2081 201.104C72.2081 201.557 72.3121 201.891 72.5201 202.104C72.7281 202.312 73.0721 202.416 73.5521 202.416C73.9307 202.416 74.2747 202.344 74.5841 202.2V202.864C74.4081 202.933 74.2187 202.987 74.0161 203.024C73.8187 203.061 73.5974 203.08 73.3521 203.08ZM77.054 203.08C76.3714 203.08 75.87 202.909 75.55 202.568C75.2354 202.227 75.078 201.739 75.078 201.104C75.078 200.469 75.238 199.981 75.558 199.64C75.878 199.299 76.3767 199.128 77.054 199.128C77.7367 199.128 78.238 199.299 78.558 199.64C78.878 199.981 79.038 200.469 79.038 201.104C79.038 201.739 78.878 202.227 78.558 202.568C78.2434 202.909 77.742 203.08 77.054 203.08ZM77.054 202.344C77.454 202.344 77.7367 202.248 77.902 202.056C78.0727 201.859 78.158 201.541 78.158 201.104C78.158 200.667 78.0727 200.352 77.902 200.16C77.7367 199.968 77.454 199.872 77.054 199.872C76.6594 199.872 76.3767 199.968 76.206 200.16C76.0407 200.352 75.958 200.667 75.958 201.104C75.958 201.541 76.0407 201.859 76.206 202.056C76.3767 202.248 76.6594 202.344 77.054 202.344ZM79.8474 203V199.208H80.6474L80.6874 199.608C80.8581 199.475 81.0607 199.363 81.2954 199.272C81.5354 199.176 81.7994 199.128 82.0874 199.128C82.5781 199.128 82.9354 199.243 83.1594 199.472C83.3834 199.701 83.4954 200.059 83.4954 200.544V203H82.6314V200.584C82.6314 200.291 82.5701 200.085 82.4474 199.968C82.3301 199.851 82.1061 199.792 81.7754 199.792C81.5781 199.792 81.3834 199.832 81.1914 199.912C81.0047 199.992 80.8474 200.096 80.7194 200.224V203H79.8474ZM85.8813 203.08C85.4759 203.08 85.1719 202.973 84.9693 202.76C84.7719 202.541 84.6733 202.245 84.6733 201.872V199.888H84.1133V199.208H84.6733V198.336L85.5373 198.072V199.208H86.5453L86.4893 199.888H85.5373V201.824C85.5373 202.043 85.5879 202.197 85.6893 202.288C85.7906 202.373 85.9559 202.416 86.1853 202.416C86.3293 202.416 86.4813 202.389 86.6413 202.336V202.952C86.4333 203.037 86.1799 203.08 85.8813 203.08ZM89.1892 203.08C88.5279 203.08 88.0159 202.917 87.6532 202.592C87.2905 202.267 87.1092 201.768 87.1092 201.096C87.1092 200.488 87.2639 200.008 87.5732 199.656C87.8825 199.304 88.3519 199.128 88.9812 199.128C89.5572 199.128 89.9892 199.28 90.2772 199.584C90.5705 199.883 90.7172 200.269 90.7172 200.744V201.448H87.9412C87.9839 201.816 88.1172 202.069 88.3412 202.208C88.5652 202.347 88.9065 202.416 89.3652 202.416C89.5572 202.416 89.7545 202.397 89.9572 202.36C90.1599 202.323 90.3359 202.275 90.4852 202.216V202.856C90.3145 202.931 90.1172 202.987 89.8932 203.024C89.6745 203.061 89.4399 203.08 89.1892 203.08ZM87.9412 200.88H89.9492V200.616C89.9492 200.355 89.8772 200.152 89.7332 200.008C89.5892 199.859 89.3465 199.784 89.0052 199.784C88.5999 199.784 88.3199 199.872 88.1652 200.048C88.0159 200.224 87.9412 200.501 87.9412 200.88ZM90.9036 203L92.3516 201.072L90.9596 199.208H91.8956L92.8236 200.472L93.7516 199.208H94.6876L93.3036 201.072L94.7436 203H93.7996L92.8236 201.68L91.8476 203H90.9036ZM96.6937 203.08C96.2883 203.08 95.9843 202.973 95.7817 202.76C95.5843 202.541 95.4857 202.245 95.4857 201.872V199.888H94.9257V199.208H95.4857V198.336L96.3497 198.072V199.208H97.3577L97.3017 199.888H96.3497V201.824C96.3497 202.043 96.4003 202.197 96.5017 202.288C96.603 202.373 96.7683 202.416 96.9977 202.416C97.1417 202.416 97.2937 202.389 97.4537 202.336V202.952C97.2457 203.037 96.9923 203.08 96.6937 203.08ZM101.566 203.08C101.012 203.08 100.566 202.96 100.23 202.72C99.8942 202.475 99.7262 202.149 99.7262 201.744C99.7262 201.381 99.8329 201.075 100.046 200.824C100.265 200.573 100.561 200.347 100.934 200.144C100.726 199.957 100.558 199.773 100.43 199.592C100.308 199.411 100.246 199.197 100.246 198.952C100.246 198.616 100.366 198.336 100.606 198.112C100.846 197.883 101.177 197.768 101.598 197.768C102.014 197.768 102.34 197.877 102.574 198.096C102.814 198.309 102.934 198.595 102.934 198.952C102.934 199.229 102.868 199.467 102.734 199.664C102.601 199.861 102.388 200.056 102.094 200.248L103.278 201.456C103.364 201.275 103.406 201.061 103.406 200.816V200.68H104.07V200.832C104.07 201.035 104.044 201.235 103.99 201.432C103.937 201.624 103.865 201.792 103.774 201.936L104.422 202.592L103.894 203.072L103.318 202.496C103.121 202.699 102.873 202.848 102.574 202.944C102.276 203.035 101.94 203.08 101.566 203.08ZM101.55 199.872C101.78 199.723 101.95 199.589 102.062 199.472C102.174 199.355 102.23 199.195 102.23 198.992C102.23 198.805 102.18 198.659 102.078 198.552C101.982 198.44 101.822 198.384 101.598 198.384C101.369 198.384 101.204 198.443 101.102 198.56C101.001 198.677 100.95 198.821 100.95 198.992C100.95 199.157 100.998 199.307 101.094 199.44C101.196 199.568 101.348 199.712 101.55 199.872ZM101.566 202.472C102.1 202.472 102.508 202.32 102.79 202.016L101.454 200.664C101.156 200.787 100.932 200.933 100.782 201.104C100.638 201.269 100.566 201.477 100.566 201.728C100.566 201.973 100.66 202.16 100.846 202.288C101.033 202.411 101.273 202.472 101.566 202.472ZM46.448 213.08C46.1387 213.08 45.904 213.005 45.744 212.856C45.584 212.701 45.504 212.448 45.504 212.096V207.608H46.376V212.016C46.376 212.165 46.4027 212.267 46.456 212.32C46.5093 212.373 46.5893 212.4 46.696 212.4C46.824 212.4 46.9467 212.384 47.064 212.352V212.984C46.9627 213.021 46.864 213.045 46.768 213.056C46.6773 213.072 46.5707 213.08 46.448 213.08ZM48.8911 213.08C48.6511 213.08 48.4271 213.037 48.2191 212.952C48.0164 212.867 47.8538 212.739 47.7311 212.568C47.6084 212.392 47.5471 212.176 47.5471 211.92C47.5471 211.557 47.6698 211.267 47.9151 211.048C48.1658 210.824 48.5498 210.712 49.0671 210.712H50.2831V210.544C50.2831 210.363 50.2538 210.219 50.1951 210.112C50.1418 210.005 50.0404 209.928 49.8911 209.88C49.7471 209.832 49.5338 209.808 49.2511 209.808C48.8031 209.808 48.3844 209.875 47.9951 210.008V209.36C48.1658 209.291 48.3738 209.235 48.6191 209.192C48.8644 209.149 49.1284 209.128 49.4111 209.128C49.9658 209.128 50.3871 209.24 50.6751 209.464C50.9684 209.688 51.1151 210.053 51.1151 210.56V213H50.3711L50.3151 212.616C50.1604 212.765 49.9684 212.88 49.7391 212.96C49.5151 213.04 49.2324 213.08 48.8911 213.08ZM49.1231 212.456C49.3844 212.456 49.6111 212.413 49.8031 212.328C50.0004 212.237 50.1604 212.117 50.2831 211.968V211.304H49.0831C48.8271 211.304 48.6404 211.355 48.5231 211.456C48.4111 211.552 48.3551 211.701 48.3551 211.904C48.3551 212.101 48.4218 212.243 48.5551 212.328C48.6884 212.413 48.8778 212.456 49.1231 212.456ZM52.043 213V209.208H52.843L52.891 209.648C53.0723 209.531 53.2883 209.424 53.539 209.328C53.7897 209.232 54.0377 209.165 54.283 209.128V209.792C54.1337 209.819 53.971 209.859 53.795 209.912C53.6243 209.96 53.4617 210.016 53.307 210.08C53.1523 210.139 53.0217 210.2 52.915 210.264V213H52.043ZM56.4149 214.408C56.1322 214.408 55.8496 214.389 55.5669 214.352C55.2842 214.32 55.0442 214.269 54.8469 214.2V213.528C55.0602 213.597 55.3056 213.651 55.5829 213.688C55.8602 213.725 56.1242 213.744 56.3749 213.744C56.7589 213.744 57.0389 213.723 57.2149 213.68C57.3909 213.637 57.4789 213.541 57.4789 213.392C57.4789 213.28 57.4362 213.2 57.3509 213.152C57.2656 213.109 57.1029 213.088 56.8629 213.088H55.8389C55.1509 213.088 54.8069 212.845 54.8069 212.36C54.8069 212.205 54.8522 212.061 54.9429 211.928C55.0336 211.795 55.1776 211.693 55.3749 211.624C55.1562 211.517 54.9936 211.371 54.8869 211.184C54.7856 210.997 54.7349 210.773 54.7349 210.512C54.7349 210.027 54.8789 209.675 55.1669 209.456C55.4602 209.237 55.8976 209.128 56.4789 209.128C56.6016 209.128 56.7296 209.139 56.8629 209.16C56.9962 209.176 57.1002 209.192 57.1749 209.208H58.5669L58.5429 209.776H57.9029C58.0042 209.861 58.0789 209.968 58.1269 210.096C58.1749 210.224 58.1989 210.363 58.1989 210.512C58.1989 210.917 58.0762 211.237 57.8309 211.472C57.5856 211.701 57.2149 211.816 56.7189 211.816C56.6336 211.816 56.5536 211.813 56.4789 211.808C56.4096 211.797 56.3322 211.787 56.2469 211.776C56.0869 211.792 55.9429 211.835 55.8149 211.904C55.6869 211.973 55.6229 212.067 55.6229 212.184C55.6229 212.264 55.6549 212.323 55.7189 212.36C55.7829 212.392 55.8896 212.408 56.0389 212.408H57.1029C57.4816 212.408 57.7722 212.491 57.9749 212.656C58.1829 212.816 58.2869 213.051 58.2869 213.36C58.2869 213.733 58.1242 214 57.7989 214.16C57.4789 214.325 57.0176 214.408 56.4149 214.408ZM56.4789 211.264C56.8256 211.264 57.0656 211.205 57.1989 211.088C57.3376 210.971 57.4069 210.771 57.4069 210.488C57.4069 210.205 57.3376 210 57.1989 209.872C57.0656 209.744 56.8256 209.68 56.4789 209.68C56.1536 209.68 55.9162 209.741 55.7669 209.864C55.6176 209.987 55.5429 210.195 55.5429 210.488C55.5429 210.76 55.6122 210.957 55.7509 211.08C55.8949 211.203 56.1376 211.264 56.4789 211.264ZM61.1114 213.08C60.45 213.08 59.938 212.917 59.5754 212.592C59.2127 212.267 59.0314 211.768 59.0314 211.096C59.0314 210.488 59.186 210.008 59.4954 209.656C59.8047 209.304 60.274 209.128 60.9034 209.128C61.4794 209.128 61.9114 209.28 62.1994 209.584C62.4927 209.883 62.6394 210.269 62.6394 210.744V211.448H59.8634C59.906 211.816 60.0394 212.069 60.2634 212.208C60.4874 212.347 60.8287 212.416 61.2874 212.416C61.4794 212.416 61.6767 212.397 61.8794 212.36C62.082 212.323 62.258 212.275 62.4074 212.216V212.856C62.2367 212.931 62.0394 212.987 61.8154 213.024C61.5967 213.061 61.362 213.08 61.1114 213.08ZM59.8634 210.88H61.8714V210.616C61.8714 210.355 61.7994 210.152 61.6554 210.008C61.5114 209.859 61.2687 209.784 60.9274 209.784C60.522 209.784 60.242 209.872 60.0874 210.048C59.938 210.224 59.8634 210.501 59.8634 210.88ZM65.4858 213V209.888H64.9338V209.208H65.4858V208.816C65.4858 208.555 65.5471 208.325 65.6698 208.128C65.7978 207.925 65.9738 207.768 66.1978 207.656C66.4271 207.539 66.6938 207.48 66.9978 207.48C67.1844 207.48 67.3604 207.493 67.5258 207.52C67.6911 207.541 67.8271 207.573 67.9338 207.616V208.264C67.8644 208.232 67.7631 208.208 67.6298 208.192C67.4964 208.176 67.3711 208.168 67.2538 208.168C66.9444 208.168 66.7151 208.221 66.5658 208.328C66.4218 208.435 66.3498 208.603 66.3498 208.832V209.208H68.4858V213H67.6138V209.888H66.3498V213H65.4858ZM70.4009 213.08C70.0915 213.08 69.8569 213.005 69.6969 212.856C69.5369 212.701 69.4569 212.448 69.4569 212.096V207.608H70.3289V212.016C70.3289 212.165 70.3555 212.267 70.4089 212.32C70.4622 212.373 70.5422 212.4 70.6489 212.4C70.7769 212.4 70.8995 212.384 71.0169 212.352V212.984C70.9155 213.021 70.8169 213.045 70.7209 213.056C70.6302 213.072 70.5235 213.08 70.4009 213.08ZM73.58 213.08C72.9186 213.08 72.4066 212.917 72.044 212.592C71.6813 212.267 71.5 211.768 71.5 211.096C71.5 210.488 71.6546 210.008 71.964 209.656C72.2733 209.304 72.7426 209.128 73.372 209.128C73.948 209.128 74.38 209.28 74.668 209.584C74.9613 209.883 75.108 210.269 75.108 210.744V211.448H72.332C72.3746 211.816 72.508 212.069 72.732 212.208C72.956 212.347 73.2973 212.416 73.756 212.416C73.948 212.416 74.1453 212.397 74.348 212.36C74.5506 212.323 74.7266 212.275 74.876 212.216V212.856C74.7053 212.931 74.508 212.987 74.284 213.024C74.0653 213.061 73.8306 213.08 73.58 213.08ZM72.332 210.88H74.34V210.616C74.34 210.355 74.268 210.152 74.124 210.008C73.98 209.859 73.7373 209.784 73.396 209.784C72.9906 209.784 72.7106 209.872 72.556 210.048C72.4066 210.224 72.332 210.501 72.332 210.88ZM77.1427 213.08C76.8813 213.08 76.6307 213.061 76.3907 213.024C76.156 212.987 75.9613 212.941 75.8067 212.888V212.152C75.988 212.221 76.188 212.275 76.4067 212.312C76.6253 212.349 76.8333 212.368 77.0307 212.368C77.3293 212.368 77.5427 212.341 77.6707 212.288C77.7987 212.235 77.8627 212.131 77.8627 211.976C77.8627 211.864 77.8227 211.776 77.7427 211.712C77.668 211.648 77.5533 211.589 77.3987 211.536C77.2493 211.483 77.0573 211.419 76.8227 211.344C76.5987 211.269 76.404 211.189 76.2387 211.104C76.0733 211.013 75.9453 210.899 75.8547 210.76C75.764 210.621 75.7187 210.44 75.7187 210.216C75.7187 209.869 75.844 209.603 76.0947 209.416C76.3453 209.224 76.748 209.128 77.3027 209.128C77.5213 209.128 77.7293 209.144 77.9267 209.176C78.124 209.208 78.292 209.248 78.4307 209.296V210.024C78.2813 209.965 78.116 209.92 77.9347 209.888C77.7587 209.856 77.5933 209.84 77.4387 209.84C77.1613 209.84 76.9507 209.864 76.8067 209.912C76.668 209.96 76.5987 210.056 76.5987 210.2C76.5987 210.349 76.6707 210.456 76.8147 210.52C76.964 210.579 77.2013 210.661 77.5267 210.768C77.8253 210.859 78.0627 210.955 78.2387 211.056C78.4147 211.157 78.54 211.28 78.6147 211.424C78.6947 211.563 78.7347 211.744 78.7347 211.968C78.7347 212.341 78.5987 212.621 78.3267 212.808C78.0547 212.989 77.66 213.08 77.1427 213.08ZM79.3905 213V212.32H80.1265V213H79.3905Z" fill="#D4D4D4"/>
</g>
<g opacity="0.5">
<rect x="11.2301" y="185.23" width="27.6138" height="27.1535" rx="3.91196" fill="#30EDE6" fill-opacity="0.2" stroke="url(#paint8_linear_2861_248)" stroke-width="0.46023"/>
<path d="M32.8032 198.577H31.9338C31.8597 196.924 31.1699 195.359 30 194.189C28.8301 193.019 27.2649 192.329 25.6121 192.255V191.386C25.6121 191.309 25.5818 191.236 25.5279 191.182C25.4739 191.128 25.4008 191.098 25.3245 191.098C25.2482 191.098 25.175 191.128 25.1211 191.182C25.0671 191.236 25.0368 191.309 25.0368 191.386V192.255C23.3841 192.329 21.8188 193.019 20.649 194.189C19.4791 195.359 18.7893 196.924 18.7152 198.577H17.8457C17.7695 198.577 17.6963 198.607 17.6424 198.661C17.5884 198.715 17.5581 198.788 17.5581 198.864C17.5581 198.941 17.5884 199.014 17.6424 199.068C17.6963 199.122 17.7695 199.152 17.8457 199.152H18.7152C18.7893 200.805 19.4791 202.37 20.649 203.54C21.8188 204.71 23.3841 205.399 25.0368 205.474V206.343C25.0368 206.419 25.0671 206.492 25.1211 206.546C25.175 206.6 25.2482 206.631 25.3245 206.631C25.4008 206.631 25.4739 206.6 25.5279 206.546C25.5818 206.492 25.6121 206.419 25.6121 206.343V205.474C27.2649 205.399 28.8301 204.71 30 203.54C31.1699 202.37 31.8597 200.805 31.9338 199.152H32.8032C32.8795 199.152 32.9527 199.122 33.0066 199.068C33.0605 199.014 33.0909 198.941 33.0909 198.864C33.0909 198.788 33.0605 198.715 33.0066 198.661C32.9527 198.607 32.8795 198.577 32.8032 198.577ZM25.6121 204.898V204.042C25.6121 203.966 25.5818 203.892 25.5279 203.838C25.4739 203.785 25.4008 203.754 25.3245 203.754C25.2482 203.754 25.175 203.785 25.1211 203.838C25.0671 203.892 25.0368 203.966 25.0368 204.042V204.898C23.5367 204.824 22.1175 204.195 21.0555 203.133C19.9934 202.071 19.3645 200.652 19.2912 199.152H20.1469C20.2232 199.152 20.2963 199.122 20.3503 199.068C20.4042 199.014 20.4345 198.941 20.4345 198.864C20.4345 198.788 20.4042 198.715 20.3503 198.661C20.2963 198.607 20.2232 198.577 20.1469 198.577H19.2912C19.3645 197.076 19.9934 195.657 21.0555 194.595C22.1175 193.533 23.5367 192.904 25.0368 192.831V193.687C25.0368 193.763 25.0671 193.836 25.1211 193.89C25.175 193.944 25.2482 193.974 25.3245 193.974C25.4008 193.974 25.4739 193.944 25.5279 193.89C25.5818 193.836 25.6121 193.763 25.6121 193.687V192.831C27.1123 192.904 28.5314 193.533 29.5935 194.595C30.6555 195.657 31.2844 197.076 31.3578 198.577H30.5021C30.4258 198.577 30.3526 198.607 30.2987 198.661C30.2447 198.715 30.2144 198.788 30.2144 198.864C30.2144 198.941 30.2447 199.014 30.2987 199.068C30.3526 199.122 30.4258 199.152 30.5021 199.152H31.3578C31.2844 200.652 30.6555 202.071 29.5935 203.133C28.5314 204.195 27.1123 204.824 25.6121 204.898ZM25.3245 196.275C24.8125 196.275 24.3119 196.427 23.8862 196.712C23.4605 196.996 23.1287 197.401 22.9327 197.874C22.7368 198.347 22.6855 198.867 22.7854 199.369C22.8853 199.871 23.1319 200.333 23.4939 200.695C23.856 201.057 24.3173 201.303 24.8194 201.403C25.3216 201.503 25.8421 201.452 26.3152 201.256C26.7882 201.06 27.1925 200.728 27.477 200.303C27.7614 199.877 27.9133 199.376 27.9133 198.864C27.9133 198.178 27.6405 197.519 27.155 197.034C26.6695 196.548 26.0111 196.275 25.3245 196.275ZM25.3245 200.878C24.9262 200.878 24.537 200.76 24.2058 200.538C23.8747 200.317 23.6166 200.003 23.4642 199.635C23.3118 199.267 23.272 198.862 23.3497 198.471C23.4274 198.081 23.6191 197.722 23.9007 197.441C24.1823 197.159 24.5411 196.967 24.9317 196.889C25.3222 196.812 25.7271 196.852 26.095 197.004C26.4629 197.156 26.7774 197.415 26.9986 197.746C27.2199 198.077 27.338 198.466 27.338 198.864C27.338 199.398 27.1258 199.91 26.7482 200.288C26.3706 200.666 25.8585 200.878 25.3245 200.878Z" fill="url(#paint9_linear_2861_248)"/>
</g>
<path opacity="0.5" d="M160 200H181.292C185.71 200 189.292 196.418 189.292 192V146C189.292 141.582 192.873 138 197.292 138H224" stroke="url(#paint10_linear_2861_248)" stroke-width="0.920461"/>
<path d="M160 61H181.292C185.71 61 189.292 64.5817 189.292 69V115C189.292 119.418 192.873 123 197.292 123H224" stroke="url(#paint11_linear_2861_248)" stroke-width="0.920461"/>
<g filter="url(#filter1_f_2861_248)">
<path d="M197.8 122.076L191 122.443L198.656 123.064C199.221 123.11 199.767 123.285 200.252 123.576L201.665 124.424C201.76 124.481 201.823 124.579 201.835 124.689L201.905 125.32C201.945 125.681 202.475 125.67 202.499 125.307C202.503 125.24 202.53 125.178 202.574 125.128L203.354 124.251C203.991 123.534 204.88 123.09 205.837 123.013L212.861 122.443L205.95 122.07C204.923 122.014 203.96 121.554 203.273 120.79C202.631 120.076 202.276 119.151 202.276 118.191V116L202.006 118.156C201.883 119.145 201.433 120.064 200.728 120.769C199.946 121.551 198.904 122.016 197.8 122.076Z" fill="#30EDE6"/>
</g>
<path opacity="0.75" d="M160 130H222" stroke="url(#paint12_linear_2861_248)" stroke-width="0.920461"/>
<path d="M243.932 105.23C257.022 105.23 267.634 115.842 267.634 128.932C267.634 142.022 257.022 152.634 243.932 152.634C230.842 152.634 220.23 142.022 220.23 128.932C220.231 115.842 230.842 105.231 243.932 105.23Z" fill="#018284" stroke="url(#paint13_linear_2861_248)" stroke-width="0.46023"/>
<path d="M255.668 127.685V130.012C254.769 130.012 254.038 130.745 254.038 131.648V135.397C254.038 137.417 252.397 139.057 250.383 139.057H245.305L246.699 136.73H250.383C251.118 136.73 251.715 136.132 251.715 135.397V131.648C251.715 130.554 252.158 129.568 252.871 128.849C252.158 128.132 251.715 127.143 251.715 126.052V122.246C251.715 121.513 251.118 120.915 250.383 120.915H246.53C245.796 120.915 245.199 121.513 245.199 122.246L245.199 127.685H248.618V130.012H245.199V135.397C245.199 137.417 243.561 139.057 241.547 139.057H237.693C235.679 139.057 234.039 137.417 234.039 135.397V131.648C234.039 130.745 233.307 130.012 232.408 130.012V127.685C233.307 127.685 234.039 126.952 234.039 126.052L234.039 122.246C234.039 120.228 235.679 118.588 237.693 118.588H242.771L241.377 120.915H237.693C236.959 120.915 236.362 121.513 236.362 122.246L236.362 126.052C236.362 127.143 235.918 128.132 235.205 128.849C235.918 129.568 236.362 130.554 236.362 131.648V135.397C236.362 136.132 236.959 136.73 237.693 136.73H241.547C242.279 136.73 242.876 136.132 242.876 135.397L242.876 122.246C242.876 120.228 244.516 118.588 246.53 118.588H250.383C252.397 118.588 254.038 120.228 254.038 122.246L254.038 126.052C254.038 126.952 254.769 127.685 255.668 127.685Z" fill="black"/>
<defs>
<filter id="filter0_f_2861_248" x="263.159" y="120.173" width="25.5432" height="13.2668" filterUnits="userSpaceOnUse" color-interpolation-filters="sRGB">
<feFlood flood-opacity="0" result="BackgroundImageFix"/>
<feBlend mode="normal" in="SourceGraphic" in2="BackgroundImageFix" result="shape"/>
<feGaussianBlur stdDeviation="0.920461" result="effect1_foregroundBlur_2861_248"/>
</filter>
<filter id="filter1_f_2861_248" x="189.159" y="114.159" width="25.5432" height="13.2668" filterUnits="userSpaceOnUse" color-interpolation-filters="sRGB">
<feFlood flood-opacity="0" result="BackgroundImageFix"/>
<feBlend mode="normal" in="SourceGraphic" in2="BackgroundImageFix" result="shape"/>
<feGaussianBlur stdDeviation="0.920461" result="effect1_foregroundBlur_2861_248"/>
</filter>
<linearGradient id="paint0_linear_2861_248" x1="5.85455" y1="36" x2="115.812" y2="66.0358" gradientUnits="userSpaceOnUse">
<stop stop-color="#30EDE6"/>
<stop offset="1" stop-color="#666666"/>
</linearGradient>
<linearGradient id="paint1_linear_2861_248" x1="31.4802" y1="77.3751" x2="10.0092" y2="76.6578" gradientUnits="userSpaceOnUse">
<stop stop-color="#30EDE6"/>
<stop offset="1" stop-color="#666666"/>
</linearGradient>
<linearGradient id="paint2_linear_2861_248" x1="25.0368" y1="54.3638" x2="25.0368" y2="66.79" gradientUnits="userSpaceOnUse">
<stop stop-color="white"/>
<stop offset="1" stop-color="#999999"/>
</linearGradient>
<linearGradient id="paint3_linear_2861_248" x1="5.85455" y1="105" x2="115.812" y2="135.036" gradientUnits="userSpaceOnUse">
<stop stop-color="#30EDE6"/>
<stop offset="1" stop-color="#666666"/>
</linearGradient>
<linearGradient id="paint4_linear_2861_248" x1="39.074" y1="146.835" x2="20.8662" y2="141.15" gradientUnits="userSpaceOnUse">
<stop stop-color="#30EDE6"/>
<stop offset="1" stop-color="#666666"/>
</linearGradient>
<linearGradient id="paint5_linear_2861_248" x1="25.3244" y1="126.009" x2="25.3244" y2="135.79" gradientUnits="userSpaceOnUse">
<stop stop-color="white"/>
<stop offset="1" stop-color="#999999"/>
</linearGradient>
<linearGradient id="paint6_linear_2861_248" x1="282.725" y1="114.204" x2="1.36895e+12" y2="8.53219e+14" gradientUnits="userSpaceOnUse">
<stop stop-color="#30EDE6"/>
<stop offset="1" stop-color="#666666"/>
</linearGradient>
<linearGradient id="paint7_linear_2861_248" x1="5.85455" y1="174" x2="115.812" y2="204.036" gradientUnits="userSpaceOnUse">
<stop stop-color="#30EDE6"/>
<stop offset="1" stop-color="#666666"/>
</linearGradient>
<linearGradient id="paint8_linear_2861_248" x1="34.2416" y1="212.614" x2="14.6629" y2="215.266" gradientUnits="userSpaceOnUse">
<stop stop-color="#30EDE6"/>
<stop offset="1" stop-color="#666666"/>
</linearGradient>
<linearGradient id="paint9_linear_2861_248" x1="25.3245" y1="191.098" x2="25.3245" y2="206.631" gradientUnits="userSpaceOnUse">
<stop stop-color="white"/>
<stop offset="1" stop-color="#999999"/>
</linearGradient>
<linearGradient id="paint10_linear_2861_248" x1="190.212" y1="210.353" x2="190.212" y2="37.3376" gradientUnits="userSpaceOnUse">
<stop stop-color="#30EDE6"/>
<stop offset="1" stop-color="#666666"/>
</linearGradient>
<linearGradient id="paint11_linear_2861_248" x1="190.212" y1="50.6468" x2="190.212" y2="223.662" gradientUnits="userSpaceOnUse">
<stop stop-color="#30EDE6"/>
<stop offset="1" stop-color="#666666"/>
</linearGradient>
<linearGradient id="paint12_linear_2861_248" x1="189.268" y1="129.833" x2="189.268" y2="132.624" gradientUnits="userSpaceOnUse">
<stop stop-color="#30EDE6"/>
<stop offset="1" stop-color="#666666"/>
</linearGradient>
<linearGradient id="paint13_linear_2861_248" x1="243.932" y1="105" x2="243.932" y2="152.864" gradientUnits="userSpaceOnUse">
<stop stop-color="#30EDE6"/>
<stop offset="0.5" stop-color="#CCCCCC"/>
<stop offset="1" stop-color="#999999"/>
</linearGradient>
</defs>
</svg>
